<?xml version="1.0" encoding="UTF-8"?><svg id="ico_answer" xmlns="http://www.w3.org/2000/svg" xmlns:xlink="http://www.w3.org/1999/xlink" viewBox="0 0 314.44 440.2"><defs><style>.cls-1{fill:none;}.cls-2{clip-path:url(#clippath);}.cls-3{fill:#fff;}.cls-4{fill:#fbc4bd;}.cls-5{fill:#fcee21;}.cls-6{fill:#fcec74;}.cls-7{fill:#1b1464;}.cls-8{fill:#269ac2;}.cls-9{clip-path:url(#clippath-1);}</style><clipPath id="clippath"><circle class="cls-5" cx="161.44" cy="155.35" r="149"/></clipPath><clipPath id="clippath-1"><rect class="cls-1" y="5.56" width="305.08" height="379.82"/></clipPath></defs><circle class="cls-5" cx="161.44" cy="155.35" r="149"/><g class="cls-2"><g><g class="cls-9"><g><g><path class="cls-3" d="M200.2,103.2c-.03-.11-.06-.22-.09-.33-.9-3.07-2.27-6.06-3.42-9.05-2.5-6.52-5.01-13.05-7.51-19.57-.41-1.07-.91-2.08-1.48-3.01-3.94-8.22-10.22-15.02-19.55-18.8-15.76-6.38-33.29,1.99-42.72,14.95-3.15,4.32-5.28,9.4-6.45,14.73-1.23,2.9-5.48,1.88-6.2,4.97-6.04,.64-8.49,8.02-11.51,13.45-4.4,7.91-1.85,17.49,5.12,22.87,1.16,.89,2.31,1.63,3.49,2.28,1.37,9.73,5.52,19.12,11.99,26.42,.61,5.86,1.21,11.72,1.82,17.59-3.81-.65-7.84,.38-10.91,3.75-6.86,7.53-5.29,16.49,.14,23.63,4.56,13.79,9.12,27.58,13.68,41.38,.83,2.52,2.39,4.81,4.4,6.54,1.97,15.21,4.19,30.39,6.7,45.53,.9,5.45,7.44,9.97,12.78,9.73,5.42-.24,11.8-3.89,12.78-9.73,1-5.95,2.12-11.88,3.34-17.79,.56-.92,1.06-1.92,1.48-2.98,1.97-4.92,3.78-9.88,5.45-14.89,.42,.03,.84,.03,1.27,.01,6.74-.3,13.8-5.85,13.25-13.25-.75-10.16-.77-20.35,.04-30.51,.19-2.38,.42-4.75,.69-7.11,.01-.12,.47-3.41,.29-2.26,.16-1.08,.32-2.15,.5-3.23,.84-5.13,1.9-10.22,3.13-15.27,1.53-6.26-1.36-12.64-7.15-15.38-.95-5.91-2.03-11.8-3.25-17.65-.02-.08-.05-.16-.07-.25,5.05-9.28,10.25-18.67,14.82-28.22,4.26-5.05,5.61-12.31,3.15-18.53Z"/><g><g><path class="cls-8" d="M131.48,69.08c.11-.09,.23-.19,.37-.33,0,0,0,0,0,0-.12,.11-.25,.22-.37,.33Z"/><path class="cls-8" d="M199.93,55.76c-3.03-11.66-9.01-21.79-19.27-25.18-3.79-1.25-7.04-3.61-10.18-6.2-.98,.12-1.98,.07-2.94-.18-3.07-.81-6.14-2.36-8.57-4.53-7.07,2.3-14.91,1.43-20.7-2.93-1.3,.66-2.64,1.38-4.08,2.15-7.75,4.13-21.98,15.31-24.68,23.99,0,0-1.08,3.48-1.08,3.48-1.26,.97-2.32,2.23-3.02,3.8-1.76,3.97-3.25,8-4.41,12.09,1.87,10.86,2.7,21.83,2.88,32.84,.93-.41,2.01-.65,3.24-.65,1.36,0,2.53,.29,3.52,.78,2.24-7.3,4.68-14.7,8.3-21.4,3.91,.55,7.97-.66,11.24-3.62,.42-.38,.86-.75,1.29-1.13-.51,.42-.53,.29,.36-.32,0,0,0,0,.01,0,0,0,.01-.01,.02-.02,0,0-.01,0-.02,.02,1.38-.95,2.77-1.86,4.24-2.67,.65-.36,1.31-.7,1.98-1.03,.13-.06,.73-.32,1.13-.49,.37-.13,.77-.27,.87-.3,0,0,.02,0,.03,0,3.16,1.35,6.33,2.61,7.31,2.65,0,0,.02,0,.03,0,.49-2.47,2.19-4.65,5.43-5.42,2.89-.69,5.61-.83,8.19-.53,0,0,0,0,.01-.02,0,0,0,.01,0,.02,8.57,1,15.46,6.91,20.84,14.04,2.58,2.23,4.81,5.05,6.31,8.14,2.88,5.94,.96,14.34,10.47,11.26,.81-.26,1.55-.58,2.26-.93,2.1-9.57,2.4-24.6-1.01-37.7Z"/></g><path class="cls-8" d="M178.72,71.19s0,0,0,0c.04,.07,.08,.16,.12,.24,0,0,0,0,0-.01-.04-.07-.07-.15-.11-.23Z"/></g><path class="cls-6" d="M166.19,280.71c-.2-1.23-.41-2.46-.61-3.69-.1-.41-.22-.8-.36-1.19,.01-.13,.03-.26,.04-.39,.6-11.5,.99-23,1.18-34.5-.78-.85-1.33-1.87-1.52-3.05-1.75-11.15-3.68-22-.82-33.14-.86-.37-1.65-.89-2.31-1.57-3.69-3.79-6.22-8.12-8.27-12.92-.15,0-.29,0-.44,0-.55,.02-1.09,.09-1.62,.18-.05,1.27-.35,2.58-.88,3.82-2.39,5.64-6.98,10.36-8.96,16.14,2.94,9.74,.69,19.9,.59,29.84-.02,2.44-.97,4.29-2.38,5.55-.21,9.89-.56,19.77-1.08,29.65-.08,1.61,.22,3.2,.81,4.69-.04,1.31,.11,2.62,.46,3.93,.2,1.23,.41,2.46,.61,3.69,.41,1.72,1.2,3.23,2.37,4.51,.93,1.44,2.17,2.58,3.72,3.41,1.52,.97,3.16,1.49,4.93,1.57,1.76,.39,3.52,.32,5.28-.24,3.21-1.04,6.3-3.02,7.92-6.09,.45-1.05,.89-2.11,1.34-3.17,.63-2.35,.63-4.7,0-7.04Z"/><path class="cls-8" d="M289.09,334.58c-.85-5.6-1.68-11.2-2.53-16.8-.01-.09-.03-.18-.04-.25-.06-.47-.12-.94-.18-1.4-.16-1.29-.32-2.59-.46-3.89-.31-2.8-.59-5.62-.79-8.43-.83-11.43-.5-22.89-.1-34.33,.45-12.87,1.66-26.23-.52-38.99-2.03-11.89-11.18-21.78-22.62-23.36-.08-.05-.15-.1-.24-.15-8.89-4.9-18.57-7.39-28.4-9.55-4.44-.98-8.89-1.94-13.24-3.26-1.64-.5-3.28-1.04-4.88-1.66-.03-.04-1.01-.47-1.61-.75-.27,.03-.54,.04-.81,.04-3.9-.07-7.64-1.19-10.79-3.51-.23-.17-.45-.34-.66-.51-3.01,.33-5.91,1.59-7.89,3.75-2.19,2.39-3.66,5.71-3.87,9.04-2.16,4.93-3.43,10.59-5.12,15.55-3.84,11.29-7.81,22.54-12.25,33.61-.51,1.27-1.02,2.53-1.54,3.8-.2,.48-.4,.95-.59,1.43-.08,.18-.19,.44-.34,.79-1.17,2.67-2.34,5.34-3.56,7.99-2.44,5.28-5.03,10.48-7.81,15.59-2.77,5.09-5.72,10.08-8.89,14.93-.43,.65-.87,1.3-1.3,1.95-10.07-25.78-20.88-51.27-32.38-76.44-.39-2.66-.78-5.32-1.17-7.98-.65-4.39-1.05-9.04-3.07-13.03-.09-3.46-1.4-6.9-3.84-9.14-1.96-1.8-4.16-2.93-6.42-3.43-.99,1.21-2.31,2.1-3.83,2.39-1.65,.31-3.31,.51-4.97,.71-.47,.08-.93,.16-1.39,.27-.78,.18-1.56,.25-2.31,.22-2.55,2.22-4.85,4.86-6.75,7.73-.17,.05-.34,.11-.51,.17-2.03,.61-4.09,1.08-6.18,1.44-.7,.12-1.4,.23-2.1,.33,.47-.07,.95-.14,1.42-.2-.95,.29-2.15,.22-3.15,.3-11.15,.87-23.1-.11-33.87,3.36-7.76,2.5-11.2,8.69-12.37,16.28-.91,5.93-1.58,11.88-1.64,17.88-.06,5.73,.35,11.51,1.16,17.23-4.27,37.88-6.44,75.97-6.52,114.09,.33,.35,.67,.7,1.01,1.05-.29,3.71-.25,7.44,.2,11.17,.49,4.1,1.32,8.6,4.41,11.28,.16,1.14,.55,2.24,1.36,3.24,1.83,2.25,4.71,2.45,7.37,2.78,3.57,.44,7.14,.83,10.72,1.17,7.16,.69,14.33,1.18,21.52,1.49,3.49,.15,7.22,.54,10.59-.23,6.75,.35,13.5,.69,20.26,.99,22.87,1.02,45.77,1.74,68.67,1.8,2.33,0,4.67,0,7-.01,1.84,.21,3.68,.41,5.54,.61,10.93,1.16,21.86,2.26,32.83,2.91,12.71,.76,25.59,.87,38.35-.19,.1-1.24,.21-2.47,.31-3.71-.11-.86-.23-1.73-.39-2.59,0-.05,0-.1-.01-.15-1.35-1.45-1.18-4.3,1.06-5.08,.23-2.7,.45-5.4,.68-8.1-1.55-1.82-.51-5.46,2.55-5.1,1.19,.14,2.39,.25,3.58,.35,.52-.34,1.19-.5,2.01-.35,2.32,.42,4.64,.62,6.95,.63,2.68-.06,5.37-.25,8.05-.61,.39-.05,.74-.02,1.07,.04,3.55-2.84,7.03-5.78,10.53-8.71,.7-.59,1.48-.76,2.2-.67,2.7-3.47,4.81-7.34,5.84-11.59-.71-8.78-2.01-17.52-3.33-26.22Z"/><path class="cls-4" d="M156.22,135.97c-3.03,.21-6.06,.42-9.09,.63-.58,.04-1.15,.27-1.6,.64-.86-.54-2.24-.3-2.91,.43-.81,.88-.84,1.93-.38,2.98,1.42,3.31,4.38,6.04,8.06,6.35,1.61,.13,3.4-.39,4.71-1.32,.81-.57,1.47-1.22,2-2.06,.55-.86,.75-1.77,.88-2.76,0-.04,0-.08,0-.12,.3-.5,.54-1.05,.71-1.65,.4-1.45-.76-3.23-2.37-3.11Z"/></g><g><path class="cls-7" d="M187.59,110.66c0,2.06-.07,4.11-.22,6.17-.07,1.04-.17,2.09-.28,3.13-.05,.51-.11,1.02-.18,1.53-.03,.22,0,.57-.1,.77,.19-.38,.07-.49,.02-.19-.03,.19-.05,.38-.08,.58-.63,4.28-1.57,8.51-2.91,12.63-.34,1.06-.71,2.11-1.11,3.15-.19,.49-.38,.97-.58,1.46-.05,.12-.09,.25-.15,.36,.03-.06,.26-.61,.06-.15-.12,.27-.23,.54-.35,.8-.88,1.97-1.88,3.89-3,5.73-.55,.9-1.12,1.78-1.73,2.64-.29,.41-.6,.82-.9,1.23-.23,.31,.34-.43,.1-.13-.08,.1-.16,.2-.23,.3-.18,.22-.36,.44-.54,.66-1.33,1.59-2.78,3.08-4.35,4.43-.31,.26-.78,.83-1.17,.96,.35-.11,.37-.28,.13-.1-.1,.08-.2,.15-.3,.23-.25,.19-.51,.37-.77,.55-.86,.6-1.75,1.16-2.66,1.67-.93,.52-1.89,1-2.86,1.43-.11,.05-.24,.12-.36,.16,.64-.21,.29-.12,.14-.06-.25,.1-.49,.2-.74,.29-.56,.21-1.13,.41-1.71,.59-1.08,.34-2.18,.63-3.29,.87-.56,.12-1.11,.22-1.67,.32-.28,.05-.57,.09-.86,.13-.41,.07,.53-.06,.11-.02-.18,.02-.36,.04-.55,.06-2.65,.29-5.34,.33-8,.1-.33-.03-.66-.06-.99-.1-.16-.02-.33-.04-.49-.06-.44-.05,.47,.08,.03,0-.68-.11-1.35-.22-2.03-.36-1.27-.26-2.53-.59-3.76-.99-.59-.19-1.17-.39-1.74-.61-.29-.11-.57-.22-.85-.34-.39-.16,.44,.2,.06,.02-.17-.08-.35-.15-.52-.23-1.16-.53-2.29-1.13-3.39-1.79-1.05-.63-2.07-1.32-3.05-2.06-.07-.06-.45-.35-.15-.11,.3,.24-.08-.06-.15-.12-.23-.19-.46-.37-.69-.57-.48-.41-.95-.83-1.41-1.26-.92-.86-1.8-1.77-2.64-2.72-.39-.45-.78-.91-1.15-1.37-.11-.14-.64-.84-.24-.3-.2-.27-.41-.54-.6-.81-1.49-2.05-2.79-4.24-3.91-6.52-.27-.55-.53-1.1-.78-1.66-.13-.28-.25-.56-.37-.84,.26,.61-.13-.32-.19-.49-.6-1.52-1.14-3.07-1.63-4.63-1.02-3.28-1.81-6.63-2.39-10.02-.55-3.21-.89-6.37-1.05-9.92-.07-1.47-.1-2.94-.1-4.41s-1.32-2.94-2.87-2.87c-1.56,.07-2.87,1.26-2.87,2.87,0,7.07,.77,14.18,2.43,21.06,1.46,6.06,3.6,12.06,6.84,17.4,5.7,9.39,14.79,16.59,25.67,18.82,10.18,2.09,21.44,.48,30.11-5.45,7.79-5.33,13.02-13.32,16.43-22,3.33-8.47,4.88-17.67,5.21-26.74,.04-1.03,.05-2.06,.06-3.09,0-1.5-1.32-2.94-2.87-2.87-1.56,.07-2.87,1.26-2.87,2.87h0Z"/><path class="cls-7" d="M190.32,98.62h5.36c.12,0,.25,0,.37,0,.47-.03-.26,0-.25-.06,0-.02,.29,.08,.33,.08,.39-.02-.14,.08-.2-.11,.01,.04,.47,.28,.54,.31,.31,.16-.36-.39-.14-.1,.05,.07,.15,.13,.21,.2,.11,.11,.48,.63,.3,.32-.2-.32-.01,0,.02,.05,.09,.16,.19,.31,.28,.47,.13,.23,.25,.47,.36,.71-.24-.51,.03,.13,.09,.33,.2,.61,.35,1.25,.43,1.89-.06-.49,0,.17,.01,.33,.02,.28,.02,.57,.03,.85,0,.06,0,.13,0,.19,0,.39,0,.78,0,1.17v8.76c0,.74,0,1.48,0,2.22,0,.24,0,.48-.02,.71,0,.14-.09,1.02-.02,.47-.08,.6-.22,1.2-.4,1.77-.03,.09-.3,.87-.19,.57,.12-.31-.19,.38-.25,.49-.11,.21-.32,.43-.4,.65-.09,.26,.09-.11,.14-.16-.11,.13-.21,.25-.33,.37-.07,.07-.14,.13-.21,.2-.37,.4,.32-.14,.07-.04-.14,.06-.76,.48-.35,.23,.52-.31-.72,.19-.1,.02,.4-.11,.14-.02,0-.03-.55-.04-1.12,0-1.68,0h-4.02c-1.5,0-2.94,1.32-2.87,2.87,.07,1.56,1.26,2.87,2.87,2.87h3.78c1.71,0,3.31,.06,4.88-.77,3.99-2.12,4.81-7.27,4.81-11.33v-9.29c0-3.88-.29-8.05-3.2-10.97-1.16-1.17-2.63-1.87-4.28-1.99-.53-.04-1.07-.01-1.6-.01h-4.4c-1.5,0-2.94,1.32-2.87,2.87,.07,1.56,1.26,2.87,2.87,2.87h0Z"/><path class="cls-7" d="M109.32,92.88h-3.68c-1.68,0-3.3-.04-4.78,.93-3.67,2.42-4.35,7.18-4.35,11.23v9.17c0,3.83,.25,7.8,2.88,10.84,.87,1.01,2.13,1.84,3.46,2.07,.75,.13,1.45,.12,2.19,.12h4.27c1.5,0,2.94-1.32,2.87-2.87-.07-1.56-1.26-2.87-2.87-2.87h-3.36c-.6,0-1.19,0-1.79,0-.09,0-.22-.02-.31,0-.28,.05,.35,0,.36,.06,0,0-.34-.08-.32-.08-.07-.01-.42-.08,.04,.02,.39,.09,.09,.05-.03-.05-.53-.42,.29,.34-.06-.04-.07-.08-.59-.59-.29-.29,.27,.28-.12-.19-.19-.3-.16-.25-.28-.52-.42-.78-.16-.27,.04,.11,.06,.15-.06-.15-.12-.3-.17-.45-.08-.24-.16-.48-.22-.72-.08-.29-.15-.59-.21-.89-.03-.13-.05-.27-.07-.4,.1,.52,0-.09-.02-.2-.08-.9-.06-1.81-.06-2.71v-8.64c0-.76,0-1.51,0-2.27,0-.39,.01-.78,.05-1.17,.01-.19,.03-.37,.06-.56,0,.06-.08,.41,0,.09,.08-.34,.13-.69,.22-1.03,.07-.28,.16-.57,.25-.84,.08-.22,.3-.65,.06-.2,.12-.23,.23-.47,.36-.7,.05-.09,.11-.19,.17-.28,.06-.09,.43-.52,.14-.21-.27,.29,.22-.2,.29-.29,.34-.38-.09,.13-.16,.1,.02,0,.26-.17,.29-.19,.36-.27-.16,.28-.23,.07,0,0,.31-.1,.31-.1,0,0,.55-.12-.06,0-.37,.07-.22,.01-.05,.03,.48,.03,.98,0,1.46,0h3.91c1.5,0,2.94-1.32,2.87-2.87-.07-1.56-1.26-2.87-2.87-2.87h0Z"/><path class="cls-7" d="M134.77,107.9c3.69,0,3.7-5.74,0-5.74s-3.7,5.74,0,5.74h0Z"/><path class="cls-7" d="M166.33,107.47c3.69,0,3.7-5.74,0-5.74s-3.7,5.74,0,5.74h0Z"/><path class="cls-7" d="M145.16,97.81c.53,.38,1.29,1.23,1.69,1.88,.64,1.03,.83,1.53,1.12,2.72,.5,2.01,.33,4.4-.28,6.7-1.23,4.58-4.34,8.85-3.81,13.82,.32,2.99,1.71,5.51,3.83,7.63,2.24,2.25,5.72-1.23,3.48-3.48-.85-.85-1.33-1.48-1.91-2.59-.23-.43-.09-.19-.04-.08-.04-.11-.08-.22-.12-.33-.08-.22-.14-.45-.2-.67-.06-.26-.12-.52-.16-.79,.06,.46,0-.22,0-.37-.02-.5,0-1,.07-1.5-.05,.42,.03-.15,.06-.28,.05-.28,.12-.55,.18-.83,.28-1.12,.68-2.22,1.12-3.29-.09,.21,.15-.34,.18-.42,.14-.32,.28-.64,.42-.97,.31-.72,.61-1.45,.88-2.18,.49-1.31,.88-2.66,1.14-4.04,.5-2.7,.55-5.49-.23-8.15-.84-2.87-2.52-5.3-4.95-7.05-1.08-.78-2.74-.19-3.37,.88-.72,1.24-.2,2.59,.88,3.37h0Z"/><path class="cls-7" d="M119.12,153.99v18.16c0,1.5,1.32,2.94,2.87,2.87,1.56-.07,2.87-1.26,2.87-2.87v-18.16c0-1.5-1.32-2.94-2.87-2.87-1.56,.07-2.87,1.26-2.87,2.87h0Z"/><path class="cls-7" d="M177.15,153.99v16.12c0,1.5,1.32,2.94,2.87,2.87,1.56-.07,2.87-1.26,2.87-2.87v-16.12c0-1.5-1.32-2.94-2.87-2.87-1.56,.07-2.87,1.26-2.87,2.87h0Z"/><path class="cls-7" d="M209.74,194.16c14.18,3.65,28.53,6.58,42.63,10.52,3.4,.95,6.83,1.88,10.16,3.06,.1,.04,1.07,.41,.56,.2,.33,.14,.65,.29,.97,.45,.72,.35,1.42,.74,2.09,1.16,.56,.35,1.11,.73,1.64,1.13,.37,.27-.31-.25,.05,.04,.14,.11,.27,.22,.41,.34,.3,.26,.6,.52,.89,.79,.52,.48,1.02,.98,1.49,1.5,.24,.26,.47,.52,.7,.79,.11,.13,.22,.27,.34,.41,.33,.4-.07-.11,.12,.14,.86,1.14,1.63,2.35,2.29,3.62,.16,.3,.31,.61,.45,.92,.03,.07,.18,.47,.03,.07,.07,.19,.14,.39,.21,.59,.29,.84,.55,1.69,.78,2.54,.45,1.67,.81,3.37,1.11,5.07,.14,.77,.26,1.54,.38,2.32,.14,.94,.22,1.51,.3,2.14,.22,1.72,.43,3.45,.62,5.17,.41,3.79,.79,7.57,1.15,11.36,.7,7.46,1.29,14.93,1.82,22.4,1.06,14.95,2,29.93,2.54,44.91,.53,14.81,1.1,29.63,1.97,44.43,.1,1.78,.21,3.55,.33,5.33,.1,1.5,1.25,2.94,2.87,2.87,1.47-.07,2.97-1.27,2.87-2.87-.96-15-1.57-30.01-2.12-45.03-.56-15.19-1.4-30.37-2.42-45.54-1.03-15.12-2.1-30.31-4.18-45.32-.47-3.41-1.06-6.83-2.08-10.13-1-3.25-2.61-6.09-4.71-8.75-1.93-2.44-4.29-4.54-6.93-6.19-2.84-1.78-6.02-2.75-9.21-3.72-14.24-4.33-28.82-7.36-43.26-10.92-1.77-.44-3.54-.88-5.31-1.34-1.45-.37-3.18,.48-3.53,2-.34,1.5,.45,3.13,2,3.53h0Z"/><path class="cls-7" d="M92.17,188.7c-15.52,4.16-31.43,6.8-46.78,11.63-6.4,2.01-13.1,5.1-17.65,10.19-1.13,1.27-2.27,2.69-3.04,4.22-.5,.98-.63,2.2-.86,3.27-.21,.98-.42,1.97-.61,2.95-.82,4.05-1.54,8.13-2.17,12.21-2.51,16.17-3.69,32.5-4.19,48.84-.5,16.29-.35,32.6-.3,48.9,.05,16.27,.01,32.54-.87,48.79-.11,1.99-.23,3.97-.36,5.96-.1,1.55,1.39,2.87,2.87,2.87,1.64,0,2.77-1.32,2.87-2.87,1.07-15.98,1.25-31.99,1.24-48-.01-16.05-.21-32.11,.1-48.16,.31-15.96,1.14-31.93,3.18-47.77,1-7.81,2.37-15.74,4.07-23.49,.19-.87,.23-1.07,.76-1.86,.21-.32,.43-.64,.66-.95-.25,.33,.04-.05,.08-.1,.15-.18,.3-.37,.46-.55,.47-.54,.96-1.05,1.48-1.54,.28-.26,.56-.52,.85-.76,.14-.12,.29-.25,.44-.37-.01,0,.57-.45,.38-.31,2.25-1.71,5.37-3.32,8.19-4.56-.02,0,.44-.19,.22-.1-.26,.11,.32-.13,.37-.15,.41-.17,.82-.33,1.25-.47,1-.33,2.01-.65,3.02-.96,1.9-.59,3.81-1.14,5.72-1.67,3.82-1.06,7.67-2.01,11.53-2.92,7.65-1.81,15.35-3.43,22.99-5.31,1.89-.47,3.77-.95,5.65-1.45,1.5-.4,2.41-2.04,2-3.53-.41-1.51-2.03-2.41-3.53-2h0Z"/><path class="cls-7" d="M140.94,207.83c-3.42-2.12-6.83-4.23-10.25-6.35-5.44-3.37-10.88-6.74-16.32-10.11l-3.72-2.31c.44,1.08,.88,2.16,1.32,3.24,1.62-6.11,3.24-12.21,4.86-18.32,.23-.86,.46-1.73,.69-2.59l-3.53,2c4.09,1.68,8.18,3.37,12.27,5.05,6.51,2.68,13.03,5.36,19.54,8.05,1.49,.61,2.97,1.22,4.46,1.84-.57-1.41-1.14-2.81-1.72-4.22-3.37,7.24-6.74,14.47-10.1,21.71-.47,1.01-.94,2.03-1.42,3.04-.63,1.36-.43,3.16,1.03,3.93,1.27,.67,3.25,.42,3.93-1.03,3.37-7.24,6.74-14.47,10.1-21.71,.47-1.01,.94-2.03,1.42-3.04,.85-1.83,.1-3.47-1.72-4.22-4.09-1.68-8.18-3.37-12.27-5.05-6.51-2.68-13.03-5.36-19.54-8.05-1.49-.61-2.97-1.22-4.46-1.84-1.43-.59-3.17,.65-3.53,2-1.62,6.11-3.24,12.21-4.86,18.32-.23,.86-.46,1.73-.69,2.59-.33,1.26,.23,2.57,1.32,3.24,3.42,2.12,6.83,4.23,10.25,6.35,5.44,3.37,10.88,6.74,16.32,10.11l3.72,2.31c1.28,.79,3.22,.32,3.93-1.03,.74-1.41,.33-3.08-1.03-3.93Z"/><path class="cls-7" d="M165.32,212.77c3.42-2.12,6.83-4.23,10.25-6.35,5.44-3.37,10.88-6.74,16.32-10.11l3.72-2.31c1.09-.68,1.65-1.99,1.32-3.24-1.62-6.11-3.24-12.21-4.86-18.32-.23-.86-.46-1.73-.69-2.59-.36-1.37-2.1-2.59-3.53-2-4.09,1.68-8.18,3.37-12.27,5.05-6.51,2.68-13.03,5.36-19.54,8.05-1.49,.61-2.97,1.22-4.46,1.84-1.82,.75-2.57,2.38-1.72,4.22,3.37,7.24,6.74,14.47,10.1,21.71l1.42,3.04c.64,1.37,2.71,1.82,3.93,1.03,1.41-.91,1.71-2.47,1.03-3.93-3.37-7.24-6.74-14.47-10.1-21.71-.47-1.01-.94-2.03-1.42-3.04-.57,1.41-1.14,2.81-1.72,4.22,4.09-1.68,8.18-3.37,12.27-5.05,6.51-2.68,13.03-5.36,19.54-8.05l4.46-1.84c-1.18-.67-2.35-1.34-3.53-2,1.62,6.11,3.24,12.21,4.86,18.32,.23,.86,.46,1.73,.69,2.59,.44-1.08,.88-2.16,1.32-3.24-3.42,2.12-6.83,4.23-10.25,6.35-5.44,3.37-10.88,6.74-16.32,10.11l-3.72,2.31c-1.28,.79-1.88,2.6-1.03,3.93,.82,1.28,2.56,1.88,3.93,1.03Z"/><path class="cls-7" d="M159.33,205.7c-.43,3.13-.85,6.26-1.28,9.39,.92-.7,1.85-1.4,2.77-2.11h-16.21c.92,.7,1.85,1.4,2.77,2.11-.43-2.84-.85-5.69-1.28-8.53-.22-1.49-2.18-2.44-3.53-2-1.63,.53-2.24,1.93-2,3.53,.43,2.84,.85,5.69,1.28,8.53,.18,1.22,1.62,2.11,2.77,2.11h16.21c1.12,0,2.6-.88,2.77-2.11,.43-3.13,.85-6.26,1.28-9.39,.2-1.48-.36-3.16-2-3.53-1.35-.31-3.31,.41-3.53,2h0Z"/><path class="cls-7" d="M142.33,265.71c1.48-12.83,2.6-25.71,3.68-38.58,.31-3.65,.61-7.29,.91-10.94l-1.42,2.48c.33-.16,.4-.19,.21-.1,.2-.07,.4-.13,.6-.19,.2-.05,.4-.1,.6-.14,.35-.06,.4-.07,.13-.03,.79-.09,1.6-.06,2.39,0,.2,.02,.4,.04,.6,.06-.27-.04-.22-.03,.13,.02,.3,.05,.6,.09,.89,.14,.95,.16,1.9,.31,2.85,.43,1.69,.22,3.23,.21,4.9-.18,.39-.09,.77-.19,1.16-.28,.35-.06,.39-.07,.11-.02,.79,.01,.42-.18-1.12-.57,.07,.3,.72,.63,.95,.76,.6,.34,1.14,.4,1.82,.48-.68-.28-1.35-.56-2.03-.84-.36-.39-.06-.05,0,.01-.06-.06-.19-.58-.03-.03,.02,.05,.09,.45,.03,.09-.06-.38,0,.14,0,.23,.01,.67-.07,1.33-.12,1.99-.07,.93,.04,1.79,.18,2.71,.11,.76,.16,1.17,.27,2.05,.39,3.26,.65,6.53,.91,9.8,.27,3.28,.57,6.55,1.02,9.81,.1,.76,.31,1.56,.34,2.32-.02-.47-.05,.35-.05,.48v1.14c0,1.49-.04,2.98,0,4.47,.01,.56,.14,1.1,.21,1.66-.02-.14-.04-.41,.02,.19,.02,.21,.04,.42,.05,.64,.06,.9,.08,1.8,.11,2.71,.07,2.03,.25,4.09,.9,6.02,.48,1.42,2,2.5,3.53,2,1.41-.46,2.51-2.01,2-3.53-.18-.52-.32-1.05-.44-1.59-.04-.21-.08-.42-.11-.64,.05,.36-.02-.16-.02-.19-.09-1.06-.13-2.12-.16-3.19-.03-.96-.08-1.91-.2-2.87-.05-.36-.1-.72-.15-1.08-.1-.71-.01-.24,0-.13,0-.51,0-1.01,0-1.52,0-1.9,.17-3.9-.1-5.78-.3-2.05-.49-3.3-.71-5.44-.4-3.89-.65-7.8-1.03-11.7-.21-2.23-.47-4.45-.78-6.66-.03-.22-.08-.45-.1-.67-.02-.11-.03-.22-.05-.33,.05,.2,.07,.2,.06,.01,.03-.41,.05-.82,.09-1.24,.08-1,.09-1.95-.09-2.94-.19-1.02-.7-2.03-1.44-2.77-.37-.38-.82-.71-1.35-.83-.13-.02-.25-.03-.38-.05-.87-.15-.53,.02,1.03,.51-.01-.06-.18-.17-.23-.22-.41-.4-.87-.64-1.4-.83-1.05-.38-2.3-.12-3.35,.11-.49,.11-.97,.24-1.46,.35-.09,.02-.55,.04-.11,.02-.3,.01-.59,0-.89,0-.45-.02-.9-.06-1.34-.12-.5-.06,.37,.06-.13-.02-.25-.04-.5-.08-.75-.12-1.1-.18-2.19-.36-3.3-.5-1.99-.24-4.08-.19-5.98,.48-.68,.24-1.66,.57-2.16,1.12-.63,.69-.78,1.45-.87,2.35-.1,1.08-.18,2.17-.27,3.25-.17,2.02-.33,4.03-.5,6.05-.34,4.12-.69,8.24-1.05,12.36-.81,9.19-1.68,18.37-2.74,27.53-.17,1.5,1.44,2.93,2.87,2.87,1.7-.08,2.69-1.27,2.87-2.87h0Z"/><path class="cls-7" d="M48.84,253.1c.06,1.14,.13,2.28,.19,3.42l.51,9.31,.76,13.71c.31,5.6,.62,11.2,.93,16.8,.34,6.13,.68,12.27,1.02,18.4,.34,6.19,.68,12.38,1.03,18.58,.32,5.77,.64,11.55,.96,17.32,.27,4.86,.54,9.72,.81,14.57,.19,3.51,.39,7.02,.58,10.54,.09,1.66,.16,3.33,.28,4.99,0,.07,0,.14,.01,.22,.08,1.5,1.26,2.94,2.87,2.87,1.48-.07,2.96-1.26,2.87-2.87-.06-1.14-.13-2.28-.19-3.42-.17-3.1-.34-6.21-.51-9.31-.25-4.57-.51-9.14-.76-13.71-.31-5.6-.62-11.2-.93-16.8-.34-6.13-.68-12.27-1.02-18.4-.34-6.19-.68-12.38-1.03-18.58-.32-5.77-.64-11.55-.96-17.32-.27-4.86-.54-9.72-.81-14.57-.19-3.51-.39-7.02-.58-10.54-.09-1.66-.16-3.33-.28-4.99,0-.07,0-.14-.01-.22-.08-1.5-1.26-2.94-2.87-2.87-1.48,.07-2.96,1.26-2.87,2.87h0Z"/><path class="cls-7" d="M249.44,253.1c-.07,1.14-.13,2.28-.2,3.42-.18,3.1-.36,6.21-.54,9.31-.26,4.57-.53,9.14-.79,13.71-.32,5.6-.64,11.2-.97,16.8-.35,6.13-.71,12.27-1.06,18.4-.36,6.19-.71,12.38-1.07,18.58-.33,5.77-.67,11.55-1,17.32-.28,4.86-.56,9.72-.84,14.57-.2,3.51-.4,7.02-.61,10.54-.1,1.66-.24,3.33-.29,4.99,0,.07,0,.14-.01,.22-.09,1.5,1.38,2.94,2.87,2.87,1.63-.07,2.78-1.26,2.87-2.87,.07-1.14,.13-2.28,.2-3.42,.18-3.1,.36-6.21,.54-9.31,.26-4.57,.53-9.14,.79-13.71,.32-5.6,.65-11.2,.97-16.8,.35-6.13,.71-12.27,1.06-18.4,.36-6.19,.71-12.38,1.07-18.58,.33-5.77,.67-11.55,1-17.32,.28-4.86,.56-9.72,.84-14.57,.2-3.51,.4-7.02,.61-10.54,.1-1.66,.24-3.33,.29-4.99,0-.07,0-.14,.01-.22,.09-1.5-1.38-2.94-2.87-2.87-1.63,.07-2.78,1.26-2.87,2.87h0Z"/><path class="cls-7" d="M199.92,73.74c.19,2.74,.24,5.48,.13,8.23-.05,1.32-.14,2.63-.25,3.94-.13,1.42-.28,2.64-.45,3.81-.22,1.48,.37,3.16,2,3.53,1.37,.31,3.29-.42,3.53-2,.87-5.81,1.18-11.65,.78-17.51-.1-1.49-1.25-2.94-2.87-2.87-1.47,.07-2.98,1.27-2.87,2.87h0Z"/><path class="cls-7" d="M101.82,66.49c-1.47,7.93-1.51,15.95-.11,23.9,.26,1.48,2.15,2.45,3.53,2,1.6-.52,2.28-1.94,2-3.53-1.15-6.55-1.1-14.29,.11-20.85,.27-1.47-.41-3.17-2-3.53-1.41-.32-3.24,.43-3.53,2h0Z"/><path class="cls-7" d="M120.79,29.29c-4.3,2.85-8.1,6.2-11.15,10.37-2.73,3.74-4.67,7.98-6.58,12.17-.62,1.36-.44,3.15,1.03,3.93,1.26,.67,3.26,.43,3.93-1.03,1.85-4.07,3.73-8.17,6.33-11.83,.14-.2,.29-.4,.44-.61,.44-.6-.22,.26,.14-.19,.32-.39,.64-.79,.97-1.17,.74-.85,1.51-1.66,2.33-2.43,.82-.78,1.68-1.5,2.56-2.21,.26-.2,.27-.21,.02-.02,.14-.11,.28-.21,.41-.31,.21-.16,.43-.31,.64-.47,.6-.43,1.21-.85,1.82-1.25,1.25-.83,1.9-2.57,1.03-3.93-.8-1.25-2.59-1.92-3.93-1.03h0Z"/><path class="cls-7" d="M149.31,25.08c-.35,0-.71-.02-1.06-.05-.14-.01-.28-.03-.42-.04-.7-.06,.43,.08,.03,0-.66-.12-1.32-.24-1.96-.42-.31-.09-.61-.18-.91-.28-.17-.06-.33-.12-.5-.18-.08-.03-.65-.26-.25-.09,.41,.17-.22-.1-.24-.11-.13-.06-.26-.12-.38-.18-.32-.16-.63-.32-.93-.5-.55-.32-1.08-.67-1.6-1.04-.56-.4,.3,.26,0,0-.13-.11-.27-.22-.41-.34-.24-.21-.48-.42-.71-.64-.49-.47-.93-.96-1.36-1.48-.35-.41,.19,.28,0,0-.1-.14-.21-.29-.31-.43-.2-.29-.39-.59-.57-.89-.78-1.29-2.61-1.88-3.93-1.03-1.29,.83-1.86,2.55-1.03,3.93,3.47,5.75,9.84,9.41,16.55,9.52,1.5,.02,2.94-1.34,2.87-2.87-.07-1.58-1.26-2.84-2.87-2.87h0Z"/><path class="cls-7" d="M148.48,61.34c-.7,.12,.43-.03,.02,0-.18,.02-.36,.04-.54,.05-.36,.03-.72,.04-1.07,.03-.36,0-.72-.02-1.07-.05-.09,0-.71-.08-.26-.02,.45,.06-.16-.03-.26-.05-.71-.13-1.4-.31-2.08-.54-.17-.06-.34-.12-.51-.18-.16-.06-.64-.17-.01,0-.33-.09-.67-.31-.97-.47-.64-.34-1.24-.72-1.83-1.14-.34-.24-.05,.05,.07,.06-.09,0-.43-.35-.5-.41-.24-.21-.48-.43-.71-.66-.25-.25-.5-.52-.73-.79-.11-.13-.25-.27-.34-.41,.35,.55,.09,.1,0-.02-.44-.62-.81-1.27-1.14-1.95-.65-1.36-2.7-1.82-3.93-1.03-1.39,.9-1.73,2.48-1.03,3.93,3.27,6.8,11.11,10.4,18.4,9.18,1.49-.25,2.45-2.16,2-3.53-.52-1.6-1.94-2.27-3.53-2h0Z"/><path class="cls-7" d="M165,55.97c-.3-.09-.6-.19-.9-.3-.18-.06-.35-.13-.53-.2-.1-.04-.57-.3-.18-.07,.39,.23-.08-.04-.18-.08-.14-.07-.29-.13-.43-.2-.31-.15-.62-.31-.92-.47-.55-.3-1.09-.63-1.62-.98-.26-.17-.52-.35-.78-.54-.08-.06-.15-.11-.23-.17-.17-.13-.1-.07,.21,.16-.13-.04-.27-.21-.37-.3-1-.82-1.92-1.73-2.76-2.71-.1-.12-.2-.24-.3-.36-.26-.32-.12-.18,.04,.06-.17-.26-.38-.51-.56-.76-.4-.57-.76-1.16-1.1-1.76-.73-1.31-2.64-1.86-3.93-1.03-1.33,.85-1.82,2.52-1.03,3.93,3.03,5.4,8.13,9.47,14.02,11.32,1.43,.45,3.2-.53,3.53-2,.36-1.56-.47-3.05-2-3.53h0Z"/><path class="cls-7" d="M184.32,64.9c-3.6-5.59-7.8-10.81-12.51-15.5-1.07-1.06-3.01-1.14-4.06,0-1.05,1.14-1.14,2.93,0,4.06,2.24,2.23,4.36,4.57,6.35,7.03,.23,.28,.45,.56,.68,.85,.14,.18,.28,.36,.42,.53,.28,.36-.23-.31,.05,.06,.46,.61,.92,1.23,1.37,1.85,.95,1.32,1.86,2.66,2.74,4.03,.81,1.26,2.59,1.89,3.93,1.03,1.26-.81,1.9-2.58,1.03-3.93h0Z"/><path class="cls-7" d="M118.06,68.64c-2.9,5.69-4.64,11.79-5.25,18.15-.14,1.5,1.42,2.94,2.87,2.87,1.68-.08,2.72-1.26,2.87-2.87,.13-1.4,.24-2.16,.54-3.71,.27-1.38,.6-2.75,.99-4.1,.39-1.35,.85-2.69,1.36-4,.31-.78,.3-.77,.65-1.54,.29-.64,.6-1.27,.92-1.9,.68-1.34,.39-3.17-1.03-3.93-1.31-.69-3.2-.4-3.93,1.03h0Z"/><path class="cls-7" d="M105.62,191.39c.38,1.01,.76,2.02,1.14,3.03,1.04,2.75,2.07,5.5,3.11,8.25,1.53,4.07,3.07,8.13,4.6,12.2,1.87,4.96,3.74,9.92,5.62,14.89,2.05,5.44,4.1,10.87,6.15,16.31,2.07,5.49,4.14,10.98,6.21,16.47,1.94,5.14,3.88,10.28,5.82,15.43,1.63,4.32,3.26,8.65,4.89,12.97l3.52,9.33c.56,1.47,1.1,2.95,1.67,4.42,.02,.06,.05,.13,.07,.19,.53,1.4,1.96,2.51,3.53,2,1.37-.44,2.57-2.03,2-3.53-.38-1.01-.76-2.02-1.14-3.03-1.04-2.75-2.07-5.5-3.11-8.25-1.53-4.07-3.07-8.13-4.6-12.2-1.87-4.96-3.74-9.92-5.62-14.89-2.05-5.44-4.1-10.87-6.15-16.31-2.07-5.49-4.14-10.98-6.21-16.47-1.94-5.14-3.88-10.28-5.82-15.43-1.63-4.32-3.26-8.65-4.89-12.97-1.17-3.11-2.35-6.22-3.52-9.33-.56-1.47-1.1-2.95-1.67-4.42-.02-.06-.05-.13-.07-.19-.53-1.4-1.96-2.51-3.53-2-1.37,.44-2.57,2.03-2,3.53h0Z"/><path class="cls-7" d="M190.55,189.86c-.42,1.13-.84,2.26-1.26,3.39-1.14,3.07-2.28,6.15-3.42,9.22-1.68,4.52-3.35,9.04-5.03,13.57-2.05,5.54-4.11,11.08-6.16,16.62-2.25,6.07-4.5,12.14-6.75,18.21-2.26,6.1-4.52,12.2-6.79,18.3-2.12,5.71-4.24,11.43-6.36,17.14-1.79,4.83-3.58,9.66-5.37,14.48-1.28,3.46-2.57,6.92-3.85,10.38-.61,1.65-1.28,3.28-1.83,4.95-.02,.07-.05,.14-.08,.21-.52,1.41,.58,3.21,2,3.53,1.63,.37,2.97-.49,3.53-2,.42-1.13,.84-2.26,1.26-3.39,1.14-3.07,2.28-6.15,3.42-9.22,1.68-4.52,3.35-9.04,5.03-13.57,2.05-5.54,4.11-11.08,6.16-16.62,2.25-6.07,4.5-12.14,6.75-18.21,2.26-6.1,4.52-12.2,6.79-18.3,2.12-5.71,4.24-11.43,6.36-17.14,1.79-4.83,3.58-9.66,5.37-14.48,1.28-3.46,2.57-6.92,3.85-10.38,.61-1.65,1.28-3.28,1.83-4.95,.02-.07,.05-.14,.08-.21,.52-1.41-.58-3.21-2-3.53-1.63-.37-2.97,.49-3.53,2h0Z"/><path class="cls-7" d="M149.29,380.96v-55.96c0-2.59,.08-5.2,0-7.8,0-.04,0-.07,0-.11,0-1.5-1.32-2.94-2.87-2.87-1.56,.07-2.87,1.26-2.87,2.87v55.96c0,2.59-.08,5.2,0,7.8,0,.04,0,.07,0,.11,0,1.5,1.32,2.94,2.87,2.87,1.56-.07,2.87-1.26,2.87-2.87h0Z"/><path class="cls-7" d="M197.3,190.06c6.28,5.62,12.55,11.24,18.83,16.85,.88,.79,1.77,1.58,2.65,2.37,1.12,1,2.97,1.19,4.06,0,1-1.09,1.19-2.99,0-4.06-6.28-5.62-12.55-11.24-18.83-16.85-.88-.79-1.77-1.58-2.65-2.37-1.12-1-2.97-1.19-4.06,0-1,1.09-1.19,2.99,0,4.06h0Z"/><path class="cls-7" d="M197.14,224.1c2.75,2.46,5.5,4.93,8.25,7.39,4.36,3.9,8.72,7.81,13.08,11.71,1,.9,2.01,1.8,3.01,2.69,1.12,1,2.97,1.19,4.06,0,1-1.09,1.19-2.99,0-4.06-2.75-2.46-5.5-4.93-8.25-7.39-4.36-3.9-8.72-7.81-13.08-11.71l-3.01-2.69c-1.12-1-2.97-1.19-4.06,0-1,1.09-1.19,2.99,0,4.06h0Z"/><path class="cls-7" d="M152.53,327.27c2.43-2.71,4.86-5.42,7.29-8.13,5.8-6.46,11.59-12.92,17.39-19.38l21.14-23.57c6.06-6.76,12.12-13.51,18.18-20.27,2.96-3.3,5.97-6.56,8.88-9.9,.04-.05,.08-.09,.12-.14,1-1.12,1.18-2.97,0-4.06-1.09-1-2.99-1.19-4.06,0-2.43,2.71-4.86,5.42-7.29,8.13-5.8,6.46-11.59,12.92-17.39,19.38-7.05,7.86-14.09,15.71-21.14,23.57-6.06,6.76-12.12,13.51-18.18,20.27-2.96,3.3-5.97,6.56-8.88,9.9-.04,.05-.08,.09-.12,.14-1,1.12-1.18,2.97,0,4.06,1.09,1,2.99,1.19,4.06,0h0Z"/><path class="cls-7" d="M211.37,227.06c3.47-5.35,6.95-10.7,10.42-16.05,.5-.77,1-1.54,1.5-2.31,.82-1.26,.3-3.23-1.03-3.93-1.43-.76-3.05-.32-3.93,1.03-3.47,5.35-6.95,10.7-10.42,16.05-.5,.77-1,1.54-1.5,2.31-.82,1.26-.3,3.23,1.03,3.93,1.43,.76,3.05,.32,3.93-1.03h0Z"/><path class="cls-7" d="M102.7,184.19c-6.5,5.35-13.01,10.7-19.51,16.06-.92,.75-1.83,1.51-2.75,2.26-1.16,.96-1.07,3.08,0,4.06,1.24,1.14,2.82,1.02,4.06,0,6.5-5.35,13.01-10.7,19.51-16.06,.92-.75,1.83-1.51,2.75-2.26,1.16-.96,1.07-3.08,0-4.06-1.24-1.14-2.82-1.02-4.06,0h0Z"/><path class="cls-7" d="M101.44,218.2c-2.85,2.35-5.7,4.69-8.55,7.04-4.52,3.72-9.04,7.44-13.55,11.15-1.04,.86-2.08,1.71-3.12,2.57-1.16,.96-1.07,3.08,0,4.06,1.24,1.14,2.82,1.02,4.06,0,2.85-2.35,5.7-4.69,8.55-7.04,4.52-3.72,9.04-7.44,13.55-11.15,1.04-.86,2.08-1.71,3.12-2.57,1.16-.96,1.07-3.08,0-4.06-1.24-1.14-2.82-1.02-4.06,0h0Z"/><path class="cls-7" d="M141.94,313.9c-2.06-2.5-4.11-5-6.17-7.49-4.9-5.95-9.8-11.9-14.7-17.86-5.94-7.22-11.88-14.44-17.82-21.65-5.13-6.24-10.27-12.48-15.4-18.72-2.48-3.02-4.87-6.17-7.48-9.08-.04-.04-.07-.09-.11-.13-.96-1.16-3.08-1.07-4.06,0-1.14,1.24-1.02,2.82,0,4.06,2.06,2.5,4.11,5,6.17,7.49,4.9,5.95,9.8,11.9,14.7,17.86,5.94,7.22,11.88,14.44,17.82,21.65,5.13,6.24,10.27,12.48,15.4,18.72,2.48,3.02,4.87,6.17,7.48,9.08,.04,.04,.07,.09,.11,.13,.96,1.16,3.08,1.07,4.06,0,1.14-1.24,1.02-2.82,0-4.06h0Z"/><path class="cls-7" d="M96.09,221.92c-3.25-5.49-6.49-10.98-9.74-16.47-.47-.79-.93-1.58-1.4-2.37-.76-1.29-2.62-1.87-3.93-1.03-1.3,.84-1.85,2.54-1.03,3.93,3.25,5.49,6.49,10.98,9.74,16.47,.47,.79,.93,1.58,1.4,2.37,.76,1.29,2.62,1.87,3.93,1.03,1.3-.84,1.85-2.54,1.03-3.93h0Z"/><path class="cls-7" d="M162.32,21.56c3.13,1.8,5.49,3.49,7.93,5.63,1.26,1.11,2.47,2.27,3.63,3.5,.58,.61,1.14,1.24,1.68,1.87,.29,.34,.57,.68,.85,1.02,.11,.14,.22,.28,.33,.41,.02,.03,.55,.7,.2,.26,.91,1.19,2.51,1.94,3.93,1.03,1.17-.76,2.01-2.65,1.03-3.93-4.57-5.96-10.16-10.99-16.69-14.75-1.3-.75-3.2-.35-3.93,1.03-.72,1.37-.36,3.13,1.03,3.93h0Z"/><path class="cls-7" d="M189.22,42.58c1.34,1.57,2.32,2.91,3.56,4.91,1.12,1.81,2.09,3.7,2.96,5.64,.12,.27-.09-.23,.1,.23,.11,.26,.21,.53,.32,.79,.19,.48,.37,.97,.54,1.46,.36,1.03,.68,2.06,.96,3.11,.27,1,.51,2.02,.7,3.04,.11,.56,.21,1.11,.29,1.67,.02,.11,.13,.91,.06,.36,.04,.28,.07,.56,.1,.84,.17,1.49,1.2,2.95,2.87,2.87,1.41-.06,3.05-1.27,2.87-2.87-1.08-9.67-4.95-18.7-11.26-26.12-.98-1.15-3.07-1.08-4.06,0-1.12,1.22-1.04,2.84,0,4.06h0Z"/><path class="cls-7" d="M146.24,143.68c-1.71-1.09-2.7-2.62-3.14-4.69-.03-.13-.05-.25-.08-.38-.05-.29-.04-.23,.02,.17-.06-.03,.04-.35-.01-.39,.32,.22-.58,1.24-.82,1.38-.65,.38-.42,.14-.12,.1-.26,.04-.59,.05-.14,.03,.38-.02,.75-.04,1.13-.06,5.56-.27,11.11-.78,16.69-.61-.79-1.04-1.58-2.08-2.37-3.11-.23,1.54-.63,3.27-1.2,4.6-.32,.75-.72,1.48-1.18,2.15-.03,.04-.28,.38-.2,.28,.08-.1-.2,.22-.23,.25-.26,.29-.54,.57-.85,.81,.19-.16-.06,.04-.12,.08-.15,.09-.29,.19-.44,.27-.15,.08-.3,.17-.46,.24,.24-.1-.05,.01-.13,.03-.77,.2-1.23,.25-2.1,.19-1.37-.09-2.99-.59-4.25-1.34-2.73-1.62-5.21,2.63-2.48,4.25,3.64,2.16,8.92,3.04,12.57,.46,3.53-2.5,5.2-6.82,5.83-10.96,.24-1.59-.63-3.06-2.37-3.11-3.34-.1-6.68,.03-10.02,.21-1.73,.1-3.45,.21-5.18,.32-1.11,.07-2.24,.08-3.35,.23-1.13,.15-2.15,.67-2.71,1.7-.62,1.13-.41,2.43-.15,3.63,.7,3.17,2.65,5.79,5.37,7.52,1.12,.71,2.71,.23,3.37-.88,.69-1.19,.24-2.65-.88-3.37Z"/></g></g></g><g><path class="cls-3" d="M303.33,267.24c.54-7.92,.74-15.87,.6-23.81-1.36,.03-2.7-.73-2.97-2.46-1.5-9.85,1.67-22.7-4.45-31.27-1.15-.54-2.09-1.68-2.09-3.06v-.93c0-.74,.25-1.31,.65-1.73,.13-.58,.25-1.17,.36-1.76-.5-.34-1.04-.62-1.6-.82-.15-.05-.3-.1-.44-.15-.32-4.28-.8-8.54-1.6-12.75,1.24-7.05,1.55-12.92-2.87-19.58-.04-.1,.72-2.02,.68-2.12-.07-.16,.08-3.38,0-3.53-.3-4.55-6.56-7.51-8.46-11.31-1.85-3.71-4.77-8.02-8.37-10.05-1.69-.95-3.46-1.29-5.18-1.14,.5-11.63,1.01-23.25,1.51-34.88,.21-4.79-3.28-7.15-6.86-7.13-.19,.28-.38,.56-.57,.84-2.22,4.4-3.78,9.09-4.89,13.91,0,.06,0,.12,0,.18-1.29,11.25-.41,22.65-2.28,33.84-.15,.87-.86,1.21-1.52,1.12-.02,.41-.04,.82-.05,1.23-2.6,1.82-4.7,4.71-6.51,7.12-2.95,3.93-6.01,8.53-7.36,13.38-1.56,5.62,.54,10.5,3.7,14.97,2.02,2.85,1.21,7.59,3.35,10.35-1.49,1.89,.61,2.48,1.19,4.8,.59,2.39,1.7,4.54,3.18,6.33-1.24,.31-2.4,.91-3.41,1.95-.75,.78-1.3,1.66-1.71,2.61-1.82,1.15-3.17,3.13-3.27,5.97-.09,2.5-.16,4.99-.21,7.49-.13,.52-.21,1.07-.24,1.66-.6,12.9-.82,25.81-.67,38.72-.9,1.15-1.44,2.67-1.4,4.59,.27,11.31,.55,22.63,.82,33.94-.1,.49-.16,1.02-.16,1.57-.11,10.65,.01,21.3,.39,31.95,.02,.49,.03,1,.04,1.5-1.52,9.77-1.59,19.84,3.41,28.43,.1,.25,.2,.5,.3,.74,2.98,6.63,9.03,11.47,15.81,13.28,3.58,1.28,7.26,1.44,10.74,.7,3.43,.08,7-.93,10.31-3.21,.55-.38,1.08-.78,1.59-1.21,6.68-3.94,11.98-10.18,15.26-17.43,4.28-9.47,5.44-19.7,5.2-30.1,1.84-20.9,1.84-41.86,.03-62.75Z"/><path class="cls-8" d="M237.7,345.19c.62,9.45,2.14,19.55,7.26,27.72,5.07,8.09,13.9,13.22,23.59,12.2,10.34-1.08,19.45-7.66,24.83-16.4,6.2-10.08,7.86-22.1,8.95-33.67,1.3-13.79,1.97-27.64,2.03-41.49,.14-27.23-2.14-54.42-6.59-81.28-.36-2.17-2.77-2.89-4.6-2.61-.6,.09-1.2,.16-1.8,.24-.67-.3-1.46-.41-2.35-.23-1.76,.37-3.53,.69-5.31,.97-4.32,.26-8.64,.25-12.97,.03-1.45-.66-2.92-1.3-4.4-1.9-2.22-.89-4.18,.93-4.61,2.98-4.01-.22-8.01-.67-11.98-1.35-1.8-.31-4.26,.48-4.6,2.61-4.9,30.51-7.69,61.34-8.15,92.25-.2,13.28-.18,26.65,.69,39.91Zm14.33-123.55c-.24,.06-.47,.14-.69,.24,.04-.24,.07-.49,.1-.73,.17,.17,.37,.33,.59,.49Zm1.39,150.16c.07-.03,.13-.07,.19-.1,.8,1.05,1.73,2.01,2.76,2.88-1.09-.81-2.07-1.75-2.95-2.78Z"/><g><path class="cls-7" d="M273.03,140.22c-.11-4.36-.13-8.72-.11-13.07,.01-2.24,.04-4.47,.07-6.71,.03-1.83-.01-3.68,.19-5.5,.08-.76-.07,.42,0-.05,.03-.2,.06-.39,.09-.59,.06-.36,.12-.71,.18-1.07,.14-.8,.29-1.6,.42-2.4,.27-1.68,.52-3.41,.41-5.12-.24-3.46-1.91-7.16-5.18-8.74-6.08-2.93-9.86,4.13-11.38,8.86-.95,2.96-1.26,6.1-1.52,9.19-.36,4.31-.4,8.63-.61,12.94-.12,2.35-.3,4.69-.55,7.03-.26,2.48-.48,4.17-.89,6.59-.77,4.66-1.85,9.28-3.29,13.78-.46,1.43,.54,3.2,2,3.53,1.57,.36,3.04-.47,3.53-2,2.48-7.72,3.84-15.76,4.57-23.82,.37-4.02,.47-8.05,.63-12.08,.15-3.74,.31-7.6,.97-11,.18-.92,.43-1.82,.72-2.71,.17-.51,.35-1.01,.54-1.5,.24-.62-.24,.52,.1-.24,.12-.28,.25-.55,.39-.82,.24-.48,.5-.94,.79-1.39,.11-.17,.23-.44,.39-.56-.46,.32-.3,.36-.09,.13,.09-.1,.17-.2,.26-.3,.08-.09,.53-.42,.55-.52-.01,.05-.61,.4-.24,.18,.08-.05,.16-.11,.24-.15,.08-.05,.16-.08,.24-.13,.41-.27-.57,.13-.25,.11,.09,0,.23-.06,.32-.09,.44-.17-.75,.05-.24,.04,.66-.02-.48-.19-.09-.04,.07,.03,.2,.06,.28,.07,.5,.08-.46-.29-.19-.09,.02,.02,.66,.39,.65,.39-.08,.07-.45-.41-.13-.09,.17,.17,.35,.32,.52,.49,.11,.12,.22,.24,.33,.37-.37-.43-.04-.04,.05,.09,.19,.29,.34,.6,.5,.9-.28-.54,.04,.12,.11,.36,.05,.18,.1,.36,.14,.54,.02,.09,.14,.83,.08,.39-.06-.47,.02,.27,.02,.3,.01,.15,.02,.31,.02,.46,0,.31,0,.62,0,.93-.01,.39-.04,.79-.08,1.18-.02,.16-.03,.32-.05,.48-.07,.63,.09-.49-.03,.19-.24,1.44-.51,2.87-.73,4.3-.64,4.25-.45,8.61-.48,12.9-.03,4.69-.01,9.39,.1,14.08,.04,1.5,1.29,2.94,2.87,2.87,1.52-.07,2.91-1.26,2.87-2.87h0Z"/><path class="cls-7" d="M284.39,156.53c-2.06-3.94-4.3-7.79-6.72-11.52-1.19-1.84-2.37-4.1-4.26-5.31-2.48-1.59-5.1-.52-7.1,1.26-2.27,2.01-4.69,3.82-7.03,5.75-2.3,1.9-4.61,4.07-5.98,6.77-.85,1.67-1.35,3.44-1.4,5.31-.05,2.15,.58,4.17,1.43,6.12,.6,1.38,2.73,1.8,3.93,1.03,1.43-.92,1.67-2.45,1.03-3.93,.23,.52,.01,.02-.04-.11-.07-.18-.13-.37-.2-.56-.09-.29-.17-.58-.24-.87-.04-.18-.07-.35-.11-.53-.09-.41-.23-.26,0,.04-.13-.18-.05-.77-.05-1,0-.29,.05-.58,.05-.87,0-.41-.15,.72,0,.11,.03-.12,.05-.24,.08-.37,.05-.24,.12-.48,.2-.72,.05-.15,.1-.29,.15-.44,.21-.61-.14,.21,0,0,.3-.47,.52-1,.83-1.47,.12-.19,.31-.57,.5-.71-.35,.24-.26,.33-.09,.12,.13-.15,.25-.3,.38-.45,.86-.99,1.81-1.88,2.8-2.73,2.02-1.74,4.19-3.3,6.23-5.02,.48-.4,.95-.82,1.42-1.24,.17-.15,.33-.31,.51-.45,.33-.27-.5,.19,.18-.11,.23-.1,.34-.04,.02-.03-.07,0-.91-.05-.31,.02-.09-.03-.18-.07-.27-.1,.07,.04,.13,.08,.2,.13-.07-.05-.14-.1-.21-.15,.09,.08,.18,.17,.26,.26,.1,.1,.43,.54,.1,.1,.1,.13,.19,.27,.29,.41,.6,.87,1.18,1.75,1.76,2.64,2.42,3.73,4.66,7.58,6.72,11.52,.7,1.33,2.67,1.84,3.93,1.03,1.36-.88,1.77-2.5,1.03-3.93h0Z"/><path class="cls-7" d="M286.45,157.26c-2.93-1.08-5.85-2.15-8.78-3.23-1.53-.56-3.05-1.02-4.68-.51-1.62,.51-2.87,1.87-4.13,2.95-4.66,3.99-9.32,7.98-13.98,11.97-1.14,.98-1.08,3.07,0,4.06,1.22,1.12,2.84,1.05,4.06,0,4.32-3.7,8.64-7.4,12.96-11.1,.51-.44,1.02-.87,1.53-1.31,.25-.22,.51-.44,.76-.65,.15-.13,.31-.26,.46-.39-.19,.14-.2,.15-.04,.04,.38-.24,.36-.26-.04-.06-.06-.01-.13-.02-.19-.03,.19,.04,.38,.09,.57,.15,.61,.19,1.21,.43,1.81,.66,2.72,1,5.44,2,8.15,3,1.41,.52,3.21-.58,3.53-2,.37-1.62-.49-2.98-2-3.53h0Z"/><path class="cls-7" d="M286.21,172.36c-1.33-1.38-2.66-2.76-3.99-4.13-1.43-1.48-2.9-3.46-5.14-3.58-2.22-.11-3.86,1.57-5.48,2.85-1.45,1.15-2.87,2.32-4.27,3.53-2.77,2.38-5.44,4.87-8.01,7.46-1.6,1.62-2.81,3.54-2.18,5.91,.47,1.77,1.65,3.45,2.64,4.97,2.17,3.32,4.74,6.39,7.66,9.07,1.11,1.01,2.98,1.18,4.06,0,1.01-1.1,1.18-2.98,0-4.06-1.08-.99-2.12-2.03-3.09-3.12-1.05-1.17-1.75-2.04-2.5-3.08-.86-1.2-1.67-2.44-2.41-3.71-.17-.3-.34-.6-.51-.9-.09-.17-.16-.39-.28-.53-.24-.28,.03-.07,0-.01-.03,.07-.06,.31-.07,.39,.05-.24,.21-.3-.01-.02,.02-.02,.25-.38,.07-.13-.2,.28,.24-.25,.28-.3,2.16-2.29,4.51-4.43,6.86-6.52,1.19-1.05,2.39-2.08,3.61-3.09,.57-.47,1.14-.94,1.72-1.4,.33-.26,.66-.53,.99-.79,.12-.1,.25-.2,.37-.29,.15-.12,.17-.13,.04-.04,.08-.06,.17-.13,.25-.19,.15-.11,.31-.21,.45-.33,.45-.37-.16,.01-.44,.04-.26-.07-.51-.13-.77-.2,.07,.04,.14,.09,.21,.13-.06-.04-.13-.09-.19-.13,.09,.09,.18,.17,.27,.26,.65,.65,1.28,1.32,1.91,1.98,1.29,1.34,2.59,2.68,3.88,4.02,1.05,1.08,3.02,1.13,4.06,0,1.07-1.16,1.12-2.91,0-4.06h0Z"/><path class="cls-7" d="M272.18,187.06c.45,.76,.87,1.53,1.27,2.33,.19,.38,.37,.76,.54,1.15,.06,.14,.35,.78,.08,.16,.08,.18,.15,.36,.22,.54,.33,.82,.62,1.66,.89,2.51,.11,.37,.23,.74,.32,1.11,.04,.15,.07,.3,.1,.45-.01-.1-.02-.21-.03-.31,.02,.03,.05,.66,.01,.68,.01-.11,.02-.21,.03-.32-.07,.22-.06,.21,.04-.03,.28-.42-.07,.05-.11,.15-.12,.3,.42-.49,.09-.16-.37,.38,.55-.3,.08-.05-.09,.05-.36,.16-.43,.23,.15-.15,.61-.18,.14-.1-.11,.02-.71,.17-.18,.06,.49-.1,.02-.02-.11-.02-.08,0-.16,0-.24-.01-.21-.02-.11,0,.31,.04-.09-.07-.5-.12-.61-.16-.09-.03-.62-.28-.25-.08,.38,.2-.16-.09-.23-.13-.77-.41-1.46-.93-2.16-1.45-1.21-.9-3.26-.24-3.93,1.03-.79,1.5-.26,2.97,1.03,3.93,1.81,1.35,3.9,2.65,6.25,2.57,2.21-.08,4.51-1.22,5.47-3.3,1.12-2.45,.24-5.03-.64-7.42-.81-2.18-1.79-4.3-2.97-6.3-.77-1.29-2.62-1.87-3.93-1.03-1.3,.84-1.85,2.54-1.03,3.93h0Z"/><path class="cls-7" d="M250.22,167.87c-.87,.13,.6,.07,.09,.03-.36-.03,.48,.14,.58,.17-.47-.14,.04,.02,.23,.13,.04,.03,.73,.48,.26,.13,.24,.18,.46,.4,.67,.62,.09,.09,.18,.19,.26,.29-.17-.24-.16-.23,.03,.04,.15,.23,.29,.45,.42,.69,0,0,.4,.81,.2,.37,1.04,2.38,1.19,5.17,1.56,7.71,.2,1.41,.41,2.81,.6,4.22,.14,1.04-.03-.53,.03,.38,.04,.59,.02,.03,.11-.16,.64-.54,.75-.69,.34-.43,.29-.12,.34-.15,.13-.09-.21,.05-.15,.05,.17,0-.16,.02-.32,.03-.48,.04-1.38,.08-2.78,.03-4.16-.1-.32-.03-.64-.06-.96-.11,.39,.05-.53-.09-.51-.09-.74-.13-1.47-.29-2.2-.46-1.46-.36-3.18,.46-3.53,2-.34,1.48,.44,3.15,2,3.53,4.34,1.06,15.54,3.08,14.77-4.54-.29-2.86-.8-5.72-1.22-8.57-.37-2.54-.91-5.26-2.43-7.39-.9-1.27-2.03-2.43-3.43-3.16-1.65-.85-3.28-1.05-5.1-.78-1.49,.22-2.44,2.18-2,3.53,.53,1.63,1.93,2.24,3.53,2h0Z"/><path class="cls-7" d="M248.15,151.69c-2.83,3.8-5.17,7.92-7.77,11.87-1.28,1.93-2.6,3.7-3.47,5.87-.81,2.03-1.19,4.24-1.28,6.43-.17,4.43,1.1,8.62,2.89,12.62,1.76,3.93,4.07,7.61,6.67,11.03,2.96,3.89,6.26,7.52,10.1,10.57,1.17,.93,2.93,1.23,4.06,0,.95-1.04,1.26-3.06,0-4.06-3.14-2.49-5.95-5.39-8.48-8.5-.15-.19-.31-.38-.46-.57,0,0-.58-.75-.27-.34-.3-.39-.59-.78-.88-1.17-.63-.87-1.24-1.75-1.83-2.65-1.15-1.76-2.21-3.58-3.14-5.46-.21-.41-.41-.83-.6-1.25-.1-.21-.19-.42-.28-.63-.05-.11-.28-.66-.09-.19-.38-.9-.72-1.81-1.02-2.74-.3-.94-.54-1.9-.71-2.87-.03-.18-.06-.36-.09-.53-.15-.87,.03,.57-.04-.31-.04-.54-.09-1.07-.11-1.61-.03-.89,.02-1.78,.1-2.67,.08-.86-.13,.55,.04-.29,.04-.22,.08-.43,.12-.65,.11-.51,.24-1.02,.4-1.53,.07-.21,.14-.41,.21-.62,.02-.06,.37-.84,.11-.28,.19-.39,.38-.78,.59-1.16,.53-.92,1.18-1.76,1.77-2.64,2.86-4.22,5.33-8.69,8.38-12.78,.9-1.21,.24-3.26-1.03-3.93-1.5-.79-2.97-.26-3.93,1.03h0Z"/><path class="cls-7" d="M286.67,167.61c.54,3.45,1.09,6.9,1.63,10.35,.28,1.75,.56,3.5,.82,5.25,.05,.32,.1,.64,.14,.97,.03,.21,.06,.43,.09,.64-.03-.23-.02-.16,.03,.2,.11,.86,.2,1.72,.28,2.58,.59,6.75,.1,13.12-1.46,19.5-.36,1.46,.46,3.18,2,3.53,1.48,.34,3.15-.44,3.53-2,1.67-6.85,2.28-14,1.66-21.03-.32-3.64-.95-7.24-1.51-10.84-.56-3.56-1.12-7.12-1.68-10.68-.23-1.49-2.17-2.44-3.53-2-1.62,.52-2.26,1.94-2,3.53h0Z"/><path class="cls-7" d="M237.75,352.71c.5,8.62,1.53,18.02,7.1,25,5.44,6.82,14.83,9.57,23.27,9.33,6.74-.19,13.61-1.94,19.33-5.58,5.04-3.2,9.09-7.72,12.05-12.88,6-10.46,7.92-22.9,8.63-34.77,.41-6.95,.35-13.92,.21-20.87-.21-10.67-.75-21.33-1.47-31.98-1.43-21.27-3.57-42.49-5.21-63.74-.2-2.6-.39-5.2-.58-7.81-.11-1.52-1.23-2.91-2.87-2.87-11.42,.29-22.84,.24-34.25-.04-5.83-.14-11.65-.31-17.48-.47-2.05-.05-4.39-.55-5.69,1.42-.24,.36-.38,.8-.49,1.22-.67,2.5-.72,5.28-.91,7.85-.33,4.57-.55,9.16-.74,13.74-.26,6.21-.46,12.42-.64,18.63-.2,7.18-.36,14.35-.49,21.53-.14,7.56-.25,15.12-.32,22.68-.07,7.34-.11,14.67-.11,22.01,0,6.51,.03,13.01,.13,19.52,.07,5.07,.18,10.14,.4,15.2,.04,.96,.09,1.91,.14,2.86,.09,1.5,1.26,2.94,2.87,2.87,1.48-.07,2.96-1.26,2.87-2.87-.26-4.57-.38-9.14-.47-13.72-.12-6.14-.17-12.27-.19-18.41-.02-7.08,0-14.16,.05-21.23,.05-7.49,.14-14.99,.26-22.48,.12-7.29,.26-14.57,.44-21.86,.16-6.49,.35-12.98,.59-19.47,.19-5.08,.4-10.17,.7-15.24,.11-1.85,.23-3.7,.39-5.55,.06-.72,.13-1.44,.2-2.17,.03-.29,.06-.59,.1-.88,.02-.14,.03-.28,.05-.41,.07-.57-.13,.88-.04,.33,.06-.4,.12-.81,.21-1.2,.03-.13,.07-.26,.1-.4,.13-.57-.24,.49-.18,.39,.19-.32-.45,.55-.39,.49-.18,.19-.81,.58-1.19,.68-.14,.04-1.32,.08-.39,.11,.35,0,.69,.02,1.04,.03,.85,.02,1.7,.04,2.55,.07,2.94,.08,5.88,.16,8.82,.24,11.02,.3,22.04,.54,33.07,.41,3-.03,6-.09,9-.17l-2.87-2.87c1.46,20.74,3.53,41.43,5.11,62.16,.79,10.36,1.45,20.73,1.85,31.11,.32,8.49,.55,17,.33,25.49-.07,2.72-.2,5.45-.41,8.16-.11,1.42-.24,2.84-.4,4.26-.08,.7-.16,1.4-.25,2.1-.05,.43,.09-.1,.03-.19,.04,.06-.07,.5-.08,.57-.05,.38-.11,.76-.17,1.15-.87,5.69-2.25,11.29-4.4,16.64-.12,.3,.07,.16,.07-.17,0,.14-.17,.39-.22,.52-.12,.29-.25,.57-.38,.85-.31,.67-.64,1.34-.98,2-.62,1.2-1.3,2.37-2.03,3.5-.36,.56-.74,1.11-1.13,1.65-.11,.16-.53,.54-.54,.73,.08-.1,.15-.2,.23-.29-.07,.1-.15,.19-.22,.28-.15,.19-.3,.38-.46,.56-.85,1.02-1.76,2-2.73,2.91-.49,.46-.99,.9-1.5,1.33-.08,.07-.7,.59-.71,.57,.01,.01,.54-.4,0,0-.15,.11-.3,.22-.45,.33-1.17,.84-2.41,1.59-3.69,2.25-.57,.3-1.15,.57-1.74,.83-.21,.09-.61,.42-.04,.02-.15,.1-.38,.16-.55,.22-.37,.15-.75,.28-1.13,.42-1.44,.5-2.92,.91-4.42,1.22-.79,.16-1.59,.3-2.38,.42-.76,.12,.63-.07-.13,.02-.15,.02-.3,.04-.45,.05-.54,.06-1.08,.11-1.62,.15-1.98,.15-3.96,.13-5.93-.08-.27-.03-.54-.06-.81-.09,.52,.07,.05,0-.04-.01-.54-.09-1.07-.18-1.6-.29-.97-.2-1.92-.45-2.87-.75-.51-.16-1.01-.33-1.51-.52-.17-.06-.33-.13-.49-.19-.8-.32,.49,.25-.29-.13-.95-.45-1.88-.92-2.77-1.48-.37-.23-.73-.47-1.08-.72-.05-.04-.73-.55-.24-.17-.13-.11-.27-.21-.4-.32-.79-.65-1.52-1.37-2.2-2.14-.19-.22-.38-.44-.56-.68,.24,.32-.04-.07-.07-.11-.32-.48-.65-.95-.94-1.44-.24-.41-.47-.83-.69-1.25-.13-.25-.25-.51-.38-.77-.03-.06-.35-.8-.17-.36-.85-2.02-1.42-4.17-1.88-6.31-.2-.94-.37-1.88-.53-2.82-.1-.56-.18-1.13-.27-1.69-.02-.1-.09-.57,0-.05,.08,.58-.02-.19-.03-.29-.21-1.94-.32-3.89-.44-5.83-.09-1.5-1.26-2.94-2.87-2.87-1.48,.07-2.96,1.26-2.87,2.87Z"/></g></g></g></g></svg>