<?xml version="1.0" encoding="UTF-8"?><svg id="_レイヤー_2" xmlns="http://www.w3.org/2000/svg" viewBox="0 0 170.81 513.61"><defs><style>.cls-1{fill:#fff;}</style></defs><g id="_ホワイト"><path class="cls-1" d="M65.63,43.86v8.06s3.29,2.99,8.64,6.66c5.34,3.66,10.83,8.12,10.83,8.12,0,0,1.83-.81,4.68-2.49,2.85-1.69,3.27-2.93,3.27-2.93v-5.3s1.22-1.23,2.62-4.23c1.41-3.01,1.89-6.76,1.89-6.76,0,0,.88,.89,3.28-1.5,2.4-2.4,3.39-10.92,2.35-13.43-1.05-2.52-2.54-1.09-2.54-1.09,0,0,.7-4.37,.7-10.55s-4.09-10.56-4.09-10.56c0,0-1.55-2.73-4.07-4.06-2.51-1.34-3.12-1.2-4.38-2.48-1.27-1.26-3.2-1.12-4.79-1.12s-2.25-.19-3.56-.19-.3-.2-3.2,.75c-2.91,.94-3.84,1.32-5.35,1.32s-1.49-.3-3.75,1.96c-2.26,2.26-4.61,4.88-5.55,7.42-.94,2.53-2.34,5.63-2.34,8.64v9.01s-1.59-.27-1.59,3.01,3.28,9.67,4.6,10.99c1.31,1.31,2.34,.74,2.34,.74Zm104.26,455.11c-2.24-3.97-10.16-.69-15.34-3.97-5.16-3.27-15.49-14.47-15.49-14.47,0,0-2.06-4.17-3.09-6.95-1.02-2.78,.88-3.08,.88-6.3s-.88-3.66-2.27-6.99c0,0-1.54-3.98-1.54-10.35s2.63-90.23,2.63-96.16-5.32-53.3-5.32-53.3c0,0,.43-.43,1.26-1.27,.82-.81-3.18-25.42-3.18-25.42,0,0,1.23-.58,2.55-1.9,1.3-1.32,1.83-2.93,2.63-6.01,.8-3.06,.45-5.63,1.54-7.9,1.1-2.27-2.49-12.73-2.49-12.73l-9.07-.8v-2.64h12.08v-12.29c0-8.12-2.2-27.89-.88-37.32,1.32-9.45-2.63-48.38-2.63-54.67s-1.91-23.41-1.91-26.19v-16.25c0-7.61-2.91-10.1-3.95-10.1s-25.83-13.17-25.83-13.17c0,0,.32,1.28,.07,1.54-.27,.26-6.31-2.12-6.31-2.12,0,0,.68,4.82,1.26,10.24,.59,5.41,0,14.45,0,14.45l-5.19-8.45-.98-4.8s.36-.35,.36-1.41,.71-1.7,1.04-3.01c.32-1.32,0-1.05,.61-1.65,.59-.61,0-3.58,.56-4.14,.59-.58,1.8-1.79,1.8-1.79l-5.59-3.33s-1.09,.19-2.74-.03c-1.65-.23-2.6-.59-2.6-.59,0,0-1.38,.77-3.94,1.92-2.59,1.16-5.56,1.65-5.56,1.65l-6.03-10.65-1.64-1.2c-1.66-1.21-2.77-3.71-2.77-3.71l-1.02,2s-1.05-.16-3.41,2.2c-2.35,2.36-6.25,6.27-6.25,6.27,0,0-12.73,3.94-19.87,5.27-7.14,1.32-12.24,.72-14.38,2.86-2.14,2.13-4.84,12.06-4.84,14.05s1.64,3.84-.11,7.23c-1.76,3.41-1.76,8.12-1.76,10.66s-.76,9.88-1.97,13.61c-1.21,3.73-.55,8.57-1.32,11.3-.77,2.74-3.08,10.21-2.41,13.62,.66,3.39-2.2,5.7-2.2,9s-1.42,23.82-1.42,25.79-1.87,62.02-1.87,62.02c0,0,17.12-3.95,20.73-3.95s5.61,1.98,5.61,1.98l-2.2,36.77s-2.73-.77-3.28-2.3c-.55-1.54-2.54-2.2-3.41-3.08s-4.17-3.84-4.71-6.69c-.55-2.87,1.03-5.99,1.85-6.8,.83-.83,1.66,1.97,1.66,3.73s.6,8.95,2.13,9.38c1.54,.44,3.3-1.81,3.3-4.98s-1.21-7.8-1.21-9.78,.94-7.51,0-10.48c-.94-2.97-.94-4.02-.94-4.02,0,0-1.46-.4-5.27,.05-3.8,.42-8.86,1.23-8.86,1.23,0,0-.15,10.69-1.57,14.19-1.42,3.52,1.09,7.48,2.09,10.33,.98,2.85,2.59,5.35,3.73,6.47,1.12,1.12,5.32,3.8,7.58,4.51,2.24,.71,6.75,1.87,6.75,1.87v15.11s.82,2.11,3.52,3c2.7,.88,3.81,1.09,3.81,1.09,0,0,.58,4.98,2.2,8.78,1.61,3.81,3.66,20.34,3.66,27.08s3.52,34.26,3.52,52.11,4.67,75.52,4.67,75.52c0,4.78-2.35,13.47-2.35,20.27,0,5.47,2.35,9.71,2.35,9.71,0,0,1.53,3.76,1.53,5.13s-4.09,9.4-2.05,11.45c2.05,2.05,5.98,5.13,13.51,5.13s15.04,1.2,15.04-2.23-2.73-8.02-2.73-11.78v-4.61s2.39-5.95,3.64-10.31c.79-2.77-.98-8.19-.98-10.82,0-3.73-1.61-9.23-1.61-13.36,0,0-2.05-76.44-2.05-84.91s0-11.41,3.23-23.71c3.22-12.3,.29-14.65,.29-22.26s4.68-40.68,4.68-40.68c0,0,1.77-2.64,4.98,7.31,3.23,9.96,11.71,41.28,14.35,49.48,2.63,8.2,8.77,6.15,7.16,12.73-1.6,6.59,1.91,47.56,1.91,60.16s-.3,41.88-.3,41.88c0,4.22-1.16,5.09-.28,8.75,.87,3.66,1.75,4.54,1.75,6.43s-.55,4.74-.55,4.74c-.03,1.27-.05,2.42-.05,3.25,0,2.76-1.03,6.9-1.03,6.9v7.22l12.93,3.12,7.58-1.04s1.72,.69,8.62,4.48c6.89,3.79,25.33,1.04,30.32,1.04s6.88-2.25,4.66-6.2ZM34.68,179.69c-1.97,10.54-6.36,29.86-6.36,29.86v-24.8c0-14.28,3.29-31.17,3.29-31.17,0,0,.98,6.69,2.41,8.12,1.42,1.41,2.63,7.46,.66,17.99Zm47.87-90.88c-1.44,1.41-4.84,7.23-4.84,7.23,0,0-2.7-5.48-6.66-14.27-3.95-8.78-8.12-18.95-8.12-18.95,0,0,4.53,4.46,8.63,7.3,4.1,2.86,7.11,3.82,7.11,3.82,0,0-.27,.91,.72,1.89,.99,1,.07,1.17,.07,1.98s1.48,1.16,1.48,2.2,.07,1.16,1.02,3c.95,1.82,.72,2.05,1.09,3.59,.36,1.53,.92,.77-.51,2.2Zm2.35-13.07c0-.94,.77-1.7,1.7-1.7s1.7,.76,1.7,1.7-.76,1.7-1.7,1.7-1.7-.77-1.7-1.7Zm2.65,128.55c-1.15,0-2.08-.94-2.08-2.09s.93-2.09,2.08-2.09,2.09,.94,2.09,2.09-.94,2.09-2.09,2.09Zm0-18.52c-1.15,0-2.08-.95-2.08-2.09s.93-2.09,2.08-2.09,2.09,.93,2.09,2.09-.94,2.09-2.09,2.09Zm1.2-18.64c-1.16,0-2.09-.95-2.09-2.09s.93-2.09,2.09-2.09,2.09,.93,2.09,2.09-.94,2.09-2.09,2.09Zm.59-18.73c-1.15,0-2.08-.94-2.08-2.09s.93-2.09,2.08-2.09,2.09,.94,2.09,2.09-.94,2.09-2.09,2.09Zm20.48-50.94s-1.37-.38-1.7-.89c-.34-.53-1.1-.73-1.1-.73l-2.7,10.66-.27-.27,1.38-10.42-1.16-.11s-1.7,1.19-3.17,1.91c-1.48,.72-3.23,1.1-3.23,1.1l1.45-1.02-1.05-.38s1.19-.55,2.08-.99c.91-.45,1.32-.87,1.32-.87h-.33s-.24-.95,.02-1.62c.27-.67,.45-.85,.45-.85h.2l-.2-.37,.12-.13s-.34-.12-.45-.51c-.12-.4-.12-.61-.12-.61,0,0,.34-.09,.78-.09s.69,.05,.69,.05l.47-.45s-1.13,.2-1.95,.27c-.8,.05-1.32,.34-1.32,.34,0,0,.94-1.2,1.86-1.59,.91-.38,1.21-.38,1.21-.38,0,0-.28-1.24-.77-1.73-.48-.5-1.31-.93-1.23-1,.08-.08,.69-.29,.69-.29,0,0-.38-.59-.37-1.27,0-.7,.44-1.29,.44-1.29,0,0,.65,.66,.91,.93,.27,.28,.23,.37,.23,.37,0,0,.37-.08,.52-.24,.17-.16,.23-.24,.34-.24,.12,0,.23,.05,.5,.05s.42,.16,.61,.08c.2-.06,.41-.2,.59-.2,.2,0,.23-.13,.59-.12,.35,0,.64,.13,.8,.13s.49,.11,.57,.03c.08-.09,.45-.35,.45-.35,0,0,.93-.86,1.09-1.14,.17-.29,.16-.8,.55-.8,.39,.02,.54,.28,.69,.31,.16,.06,1.45-.05,1.81,.31,.38,.38,.56,.84,.54,.86-.04,.03,.49,.23,.62,.6,.12,.36,.13,.37,.33,.59,.2,.2,.23,.34-.23,.64-.46,.3-.52,.82-.52,1.09,0,.27-.16,.54-.16,.54l.12,.42s.72-.05,1.33,.17c.59,.2,1.16,.52,1.09,.59-.07,.07-1.05-.16-1.39,.05-.32,.23-.55,.31-.68,.45-.14,.13,.48,.55,1.21,.35,.71-.19,1.41-.57,1.12-.3-.27,.26-.87,.56-1.12,.73-.27,.15-.78,.43-.78,.43,0,0,1.03,.95,.87,1.11-.17,.17-2.04,1.51-2.04,1.51,0,0,1.34,.65,1.23,2.12-.12,1.48-1.59,1.86-1.59,1.86,0,0,1.16,1.02,2.22,1.62,1.08,.61,1.52,.72,1.52,.72l-2.5-.09s.11,.8,0,.8c-.13,0-1.91-1.14-2.55-1.62-.65-.48-.91-.8-.91-.8Zm1.27,12.99v-3.09s2.74-2.55,4.71-.58,2.2,2.31,3.73,2.31,1.53,1.31,1.53,1.31l-9.98,.04Z"/></g></svg>