<?xml version="1.0" encoding="UTF-8"?><svg id="ico_man_body_white" xmlns="http://www.w3.org/2000/svg" viewBox="0 0 103.21 118.33"><defs><style>.cls-1{fill:#fff;}</style></defs><circle class="cls-1" cx="51.62" cy="33.06" r="20.78" transform="translate(-8.34 20.32) rotate(-20.64)"/><path class="cls-1" d="M103.14,37.98l-4.62-31.7c-.58-4-4.3-6.78-8.31-6.19-4,.58-6.78,4.3-6.19,8.31l4.08,27.97c-6.12,4.95-21.82,17.41-27.03,19.21-2,.69-5.28,2.34-9.45,2.34s-7.46-1.66-9.45-2.34c-5.21-1.79-20.91-14.26-27.03-19.21l4.08-27.97C19.78,4.38,17.01,.66,13,.08,9-.51,5.28,2.27,4.7,6.27L.08,37.98c-.27,1.87,.19,3.68,1.16,5.13,.27,.5,.6,.99,1,1.43,0,0,24.08,27.21,24.24,30.96v42.83h50.27v-42.83c.16-3.75,24.24-30.96,24.24-30.96,.4-.44,.72-.93,1-1.43,.97-1.46,1.43-3.26,1.16-5.13Z"/></svg>