<?xml version="1.0" encoding="utf-8"?>
<!-- Generator: Adobe Illustrator 26.4.1, SVG Export Plug-In . SVG Version: 6.00 Build 0)  -->
<svg version="1.1" id="_x32_" xmlns="http://www.w3.org/2000/svg" xmlns:xlink="http://www.w3.org/1999/xlink" x="0px" y="0px"
	 viewBox="0 0 120 120" style="enable-background:new 0 0 120 120;" xml:space="preserve">
<style type="text/css">
	.st0{fill:#FFFFFF;}
</style>
<g>
	<path class="st0" d="M69.4,21.7L84,25.6c0.4,0.1,0.7,0.4,0.8,0.8l3.8,14.6c0.1,0.4,0.5,0.7,0.9,0.7c0.4,0,0.8-0.3,0.9-0.7l3.8-14.6
		c0.1-0.4,0.4-0.7,0.8-0.8l14.6-3.9c0.4-0.1,0.7-0.5,0.7-0.9c0-0.4-0.3-0.8-0.7-0.9l-14.6-3.9c-0.4-0.1-0.7-0.4-0.8-0.8L90.4,0.7
		C90.3,0.3,90,0,89.5,0c-0.4,0-0.8,0.3-0.9,0.7l-3.8,14.6c-0.1,0.4-0.4,0.7-0.8,0.8l-14.6,3.9c-0.4,0.1-0.7,0.5-0.7,0.9
		C68.7,21.3,69,21.7,69.4,21.7z"/>
	<path class="st0" d="M18.2,41.1L21,51.5c0.1,0.3,0.3,0.5,0.7,0.5c0.3,0,0.6-0.2,0.7-0.5L25,41.1c0.1-0.3,0.3-0.5,0.6-0.6L36,37.8
		c0.3-0.1,0.5-0.3,0.5-0.6c0-0.3-0.2-0.6-0.5-0.6l-10.4-2.8c-0.3-0.1-0.5-0.3-0.6-0.5l-2.7-10.4c-0.1-0.3-0.3-0.5-0.7-0.5
		c-0.3,0-0.6,0.2-0.7,0.5l-2.7,10.4c-0.1,0.3-0.3,0.5-0.6,0.5L7.3,36.5c-0.3,0.1-0.5,0.3-0.5,0.6c0,0.3,0.2,0.6,0.5,0.6l10.4,2.8
		C17.9,40.6,18.2,40.8,18.2,41.1z"/>
	<path class="st0" d="M8,86.1v9.4c0,1.5,0.3,3.1,0.9,4.5c0.6,1.5,1.5,3,2.8,4.4c0.5,0.6,1.1,1.2,1.7,1.8v-15
		c-0.4-0.3-0.8-0.6-1.2-0.9C10.7,89,9.2,87.6,8,86.1z"/>
	<path class="st0" d="M17.8,109.7c1.5,1,3,1.9,4.8,2.7c0.7,0.4,1.5,0.7,2.3,1.1v-16c-2.5-1-4.9-2.2-7.1-3.4V109.7z"/>
	<path class="st0" d="M29.3,99.1v16H29c3.1,1.1,6.5,2.1,10.1,2.8v-16.2c-2.3-0.5-4.6-1-6.7-1.6C31.3,99.8,30.3,99.5,29.3,99.1z"/>
	<path class="st0" d="M43.4,118.7c4.5,0.7,9.2,1.2,14.2,1.3v-16.3c-4.9-0.1-9.6-0.5-14.2-1.2V118.7z"/>
	<path class="st0" d="M61.9,120c5.1-0.1,10.1-0.6,14.7-1.4v-16.2c-4.7,0.7-9.6,1.2-14.7,1.3V120z"/>
	<path class="st0" d="M81,117.8c1.7-0.4,3.4-0.8,5-1.2c1.7-0.5,3.3-1,4.8-1.5V99c-3.1,1-6.4,1.9-9.8,2.6V117.8z"/>
	<path class="st0" d="M95.1,97.3v15.9c2.6-1.2,5-2.5,7.1-3.9V93.8c-1.1,0.6-2.2,1.3-3.4,1.8C97.6,96.2,96.4,96.8,95.1,97.3z"/>
	<path class="st0" d="M106.3,91.1h0.3v14.7c1.8-1.8,3.2-3.8,4-5.7c0.6-1.5,0.9-3,0.9-4.5v-9.4c-0.1,0.2-0.3,0.3-0.4,0.5
		C109.7,88.2,108.1,89.7,106.3,91.1z"/>
	<path class="st0" d="M110.5,76.5c0.6-1.5,0.9-3,0.9-4.5c0-1.5-0.3-3-0.9-4.5c-0.6-1.5-1.5-3-2.8-4.4c-2.5-2.9-6.2-5.6-10.9-7.9
		c-9.4-4.6-22.6-7.6-37.1-7.6c-9.6,0-18.5,1.3-26.2,3.4c-7.7,2.2-14.1,5.3-18.5,8.9c-2.9,2.4-5,5-6.1,7.6C8.3,68.9,8,70.4,8,72
		c0,1.5,0.3,3,0.9,4.5c0.6,1.5,1.5,3,2.8,4.4c2.5,2.9,6.2,5.6,10.9,7.9c9.4,4.6,22.6,7.6,37.1,7.6c9.6,0,18.5-1.3,26.2-3.5
		c7.7-2.2,14.1-5.3,18.5-8.9C107.4,81.7,109.5,79.1,110.5,76.5z M65.7,86.9h-0.9h-4.9h-0.4h-4.9h-0.9l0.6-7L44,80l0.6-5.2l10.1-0.1
		l0.3-3.8l-10,0.2l0.6-4.8l7.1-0.2l-6.8-11.7l7.8-0.3l6,9.6l6-9.6l7.8,0.3l-6.8,11.7l7.1,0.2l0.6,4.8l-10-0.2l0.3,3.8l10.1,0.1
		l0.6,5.2l-10.3-0.1L65.7,86.9z M102.7,74.6l-6.8,1.8c-0.2,0-0.3,0.2-0.4,0.4l-1.8,6.8c0,0.2-0.2,0.3-0.4,0.3
		c-0.2,0-0.4-0.1-0.4-0.3L91,76.7c0-0.2-0.2-0.3-0.4-0.4l-6.8-1.8c-0.2,0-0.3-0.2-0.3-0.4c0-0.2,0.1-0.4,0.3-0.4l6.8-1.8
		c0.2,0,0.3-0.2,0.4-0.4l1.8-6.8c0-0.2,0.2-0.3,0.4-0.3c0.2,0,0.4,0.1,0.4,0.3l1.8,6.8c0,0.2,0.2,0.3,0.4,0.4l6.8,1.8
		c0.2,0,0.3,0.2,0.3,0.4C103.1,74.3,102.9,74.5,102.7,74.6z"/>
</g>
</svg>
