<?xml version="1.0" encoding="utf-8"?>
<!-- Generator: Adobe Illustrator 26.4.1, SVG Export Plug-In . SVG Version: 6.00 Build 0)  -->
<svg version="1.1" id="_x32_" xmlns="http://www.w3.org/2000/svg" xmlns:xlink="http://www.w3.org/1999/xlink" x="0px" y="0px"
	 viewBox="0 0 120 120" style="enable-background:new 0 0 120 120;" xml:space="preserve">
<style type="text/css">
	.st0{fill:#FFFFFF;}
</style>
<g>
	<path class="st0" d="M38.9,21c3.3,0,5.9-2.6,5.9-5.9V5.8c0-3.3-2.6-5.9-5.9-5.9c-3.3,0-5.9,2.6-5.9,5.9v9.3
		C33,18.3,35.7,21,38.9,21z"/>
	<path class="st0" d="M82.4,21c3.3,0,5.9-2.6,5.9-5.9V5.8c0-3.3-2.6-5.9-5.9-5.9c-3.3,0-5.9,2.6-5.9,5.9v9.3
		C76.5,18.3,79.1,21,82.4,21z"/>
	<path class="st0" d="M102.8,8.3h-9.3v6.8c0,6.1-5,11.1-11.1,11.1c-6.1,0-11.1-5-11.1-11.1V8.3H50v6.8c0,6.1-5,11.1-11.1,11.1
		c-6.1,0-11.1-5-11.1-11.1V8.3H17.8c-9.1,0-16.6,7.4-16.6,16.6v78.6c0,9.1,7.4,16.6,16.6,16.6h85c9.1,0,16.6-7.4,16.6-16.6V24.9
		C119.4,15.7,111.9,8.3,102.8,8.3z M111.3,103.4c0,4.7-3.8,8.5-8.5,8.5h-85c-4.7,0-8.5-3.8-8.5-8.5V35.3h102V103.4z"/>
	<rect x="41.3" y="89.6" class="st0" width="14.9" height="14.9"/>
	<rect x="41.3" y="66.5" class="st0" width="14.9" height="14.9"/>
	<rect x="18.2" y="89.6" class="st0" width="14.9" height="14.9"/>
	<rect x="18.2" y="66.5" class="st0" width="14.9" height="14.9"/>
	<rect x="87.5" y="43.4" class="st0" width="14.9" height="14.9"/>
	<rect x="64.4" y="43.4" class="st0" width="14.9" height="14.9"/>
	<polygon class="st0" points="82.4,68.7 77.9,65.2 69.8,75.6 65,71.8 61.5,76.2 70.8,83.6 	"/>
	<rect x="87.5" y="66.5" class="st0" width="14.9" height="14.9"/>
	<rect x="64.4" y="89.6" class="st0" width="14.9" height="14.9"/>
	<rect x="41.3" y="43.4" class="st0" width="14.9" height="14.9"/>
</g>
</svg>
