<?xml version="1.0" encoding="UTF-8"?><svg id="ico_man_face_white" xmlns="http://www.w3.org/2000/svg" viewBox="0 0 103.21 119.3"><defs><style>.cls-1{fill:#fff;}</style></defs><path class="cls-1" d="M91.17,94.51c-2.41-4.11-6.13-6.58-9.72-8.23-3.59-1.65-7.13-2.54-9.27-3.34-1.69-.63-3.53-1.61-4.85-2.67-.66-.53-1.18-1.07-1.49-1.55-.32-.48-.42-.85-.42-1.09v-5.05c2.26-2.52,5.51-6.42,6.85-12.61,.47-.21,.93-.45,1.37-.76,1.11-.76,2.04-1.87,2.84-3.38,.8-1.51,1.51-3.45,2.27-6.1,.38-1.34,.56-2.51,.56-3.55,0-.53-.05-1.01-.15-1.47C95.03,24.28,71.23-2.5,53.63,.63c-13.79-3.55-26.23,8.62-31.12,19.31-3.97,8.67-2.64,20.63,1.56,24.69-.1,.48-.16,1.01-.16,1.57,0,1.04,.18,2.21,.56,3.55,1.01,3.53,1.93,5.8,3.11,7.48,.59,.83,1.27,1.5,2,2,.44,.31,.91,.55,1.37,.76,1.33,6.19,4.59,10.09,6.85,12.61v5.05c0,.21-.1,.6-.45,1.1-.51,.75-1.52,1.65-2.68,2.4-1.16,.76-2.49,1.41-3.6,1.8-1.44,.51-3.52,1.08-5.79,1.88-3.41,1.21-7.32,2.95-10.45,6.07-3.14,3.11-5.37,7.68-5.35,13.94,0,.8,.03,1.62,.1,2.48,.05,.53,.24,.97,.46,1.35,.43,.7,1.02,1.25,1.75,1.8,1.29,.95,3.07,1.89,5.4,2.82,6.95,2.76,18.7,5.33,34.41,5.33,12.76,0,22.93-1.7,30.01-3.82,3.54-1.06,6.31-2.22,8.3-3.36,1-.57,1.8-1.14,2.43-1.76,.32-.31,.59-.63,.82-1.01,.23-.38,.41-.82,.46-1.35,.07-.85,.11-1.68,.11-2.47,0-4.17-.97-7.59-2.57-10.32Zm-42.39,20.58c-.05,0-.11,0-.16,0l-5.55-13.02,.07,.06,5.05-6.31,.83,3.48h.22l-.45,15.8Zm-6.8-15.57l-6.36-14.93c.8-.46,1.58-.97,2.3-1.54,.44-.35,.86-.72,1.24-1.12l10.64,7.82-7.82,9.77Zm9.62-11.58l-10.94-8.04c.35-.68,.59-1.44,.59-2.28v-6.38l-.44-.49c-2.36-2.63-5.57-6.13-6.68-12.34l-.17-.99-.95-.34c-.6-.21-1.06-.43-1.47-.71-.59-.42-1.13-.99-1.76-2.16-.62-1.16-1.28-2.9-2-5.43-.32-1.1-.43-1.96-.43-2.6,0-.74,.14-1.17,.29-1.45,.22-.4,.49-.57,.83-.7,.23-.09,.48-.12,.62-.13l.81,.17,2.05,6.19,1.18-5.52,6.07-8.67s-.39,4.34-1.58,7.88c11.59-3.75,14.62-8.09,15.23-9.19l-3.8,7.61s13.24-3.94,15.6-9.46l-2.56,8.47s7.09-1.97,8.27-5.12c.68-1.81,.77,.6,.73,2.98l-.14-.02v11.03l2.93-6.35,.15-.02c.14,0,.66,.06,1.01,.29,.2,.13,.36,.28,.51,.55,.15,.27,.29,.7,.29,1.44,0,.64-.11,1.5-.43,2.6-.96,3.37-1.81,5.32-2.6,6.41-.39,.55-.75,.89-1.15,1.17-.4,.28-.86,.5-1.47,.71l-.95,.34-.17,.99c-1.11,6.21-4.31,9.71-6.68,12.34l-.44,.49v6.38c0,.83,.23,1.6,.58,2.29l-10.93,8.03Zm2.98,27.15c-.05,0-.1,0-.16,0l-.46-15.82h.23l.82-3.48,5.05,6.31,.07-.05-5.56,13.04Zm6.64-15.58l-7.82-9.77,10.63-7.81c.73,.74,1.56,1.41,2.47,2.01,.35,.23,.73,.42,1.09,.62l-6.37,14.95Z"/></svg>