<?xml version="1.0" encoding="utf-8"?>
<!-- Generator: Adobe Illustrator 26.4.1, SVG Export Plug-In . SVG Version: 6.00 Build 0)  -->
<svg version="1.1" id="レイヤー_1" xmlns="http://www.w3.org/2000/svg" xmlns:xlink="http://www.w3.org/1999/xlink" x="0px"
	 y="0px" viewBox="0 0 120 120" style="enable-background:new 0 0 120 120;" xml:space="preserve">
<style type="text/css">
	.st0{fill:#FFFFFF;}
</style>
<g>
	<path class="st0" d="M107.3,40c9.1-9.1,9.1-23.9,0-33c-9.1-9.1-23.9-9.1-33,0c-0.7,0.7-1.3,1.4-1.8,2.1C63.3,2.3,50.3,3,42,11.3
		c-8.8,8.8-9.1,22.8-0.9,32l0,0.1l1,1c0,0,0,0,0.1,0.1l0,0l0.1,0.1l0,0c1.9,1.9,4.2,3.4,6.5,4.4L8.8,88.8c-3.8,3.8-3.8,10,0,13.8
		l2.9,2.9c3.8,3.8,9.9,3.8,13.7,0.1l12.8,12.8c1.9,1.9,5,1.9,6.9,0l4.3-4.3c1.9-1.9,1.9-5,0-6.9l-3.6-3.6l2.9-2.9l3.6,3.6
		c1.9,1.9,5,1.9,6.9,0l4.3-4.3c1.9-1.9,1.9-5,0-6.9L50.6,80.3l14.7-14.7c1.1,2.4,2.6,4.7,4.6,6.7c9.1,9.1,23.9,9.1,33,0
		c8.3-8.3,9-21.3,2.2-30.4C105.9,41.3,106.6,40.7,107.3,40z M58.6,96.5l-2.9,2.9l-7.1-7.1l-11.2,11.2l7.1,7.1l-2.9,2.9l-12.1-12.1
		l17.1-17L58.6,96.5z M98.8,68.1C92,75,80.9,75,74,68.1c-2.4-2.4-4-5.4-4.7-8.5l-1.2-5.2l-46.9,46.9c-1.5,1.5-4,1.5-5.5,0l-2.9-2.9
		c-1.5-1.5-1.5-4,0-5.5L59.8,46l-5.2-1.2c-3.1-0.7-6.1-2.2-8.5-4.7h0c0,0,0,0,0,0h0c-3.4-3.4-5.1-7.9-5.1-12.4
		c0-4.5,1.7-8.9,5.1-12.4c3.4-3.4,7.9-5.1,12.4-5.1c4.5,0,8.9,1.7,12.3,5.1l2.7,3.1l2-3.6c0.8-1.4,1.7-2.6,2.8-3.8
		C81.8,7.7,86.3,6,90.7,6c4.5,0,9,1.7,12.4,5.1c3.4,3.4,5.1,7.9,5.1,12.4c0,4.5-1.7,9-5.1,12.4c-1.1,1.1-2.4,2.1-3.8,2.8l-3.6,2
		l3.1,2.7C105.6,50.3,105.6,61.3,98.8,68.1z"/>
	<path class="st0" d="M52.1,21.4c-3.5,3.5-3.5,9.3,0,12.8c3.5,3.5,9.3,3.5,12.8,0c3.5-3.5,3.5-9.3,0-12.8
		C61.4,17.9,55.6,17.9,52.1,21.4z M61.6,30.9c-1.7,1.7-4.5,1.7-6.2,0c-1.7-1.7-1.7-4.5,0-6.2c1.7-1.7,4.5-1.7,6.2,0
		C63.3,26.4,63.3,29.2,61.6,30.9z"/>
	<path class="st0" d="M97.2,29.9c3.5-3.5,3.5-9.3,0-12.8c-3.5-3.5-9.3-3.5-12.8,0c-3.5,3.5-3.5,9.3,0,12.8
		C87.9,33.5,93.6,33.4,97.2,29.9z M87.6,20.4c1.7-1.7,4.5-1.7,6.2,0c1.7,1.7,1.7,4.5,0,6.2c-1.7,1.7-4.5,1.7-6.2,0
		C85.9,24.9,85.9,22.1,87.6,20.4z"/>
	<path class="st0" d="M92.8,49.3c-3.5-3.5-9.3-3.5-12.8,0c-3.5,3.5-3.5,9.3,0,12.8c3.5,3.5,9.3,3.5,12.8,0
		C96.4,58.6,96.4,52.9,92.8,49.3C92.8,49.3,92.8,49.3,92.8,49.3z M89.5,58.9c-1.7,1.7-4.5,1.7-6.2,0c-1.7-1.7-1.7-4.5,0-6.2
		c1.7-1.7,4.5-1.7,6.2,0l0,0C91.2,54.4,91.2,57.1,89.5,58.9z"/>
</g>
</svg>
