<?xml version="1.0" encoding="UTF-8"?><svg id="_レイヤー_1" xmlns="http://www.w3.org/2000/svg" xmlns:xlink="http://www.w3.org/1999/xlink" viewBox="4 0 133.76 164.18"><defs><style>.cls-1{fill:none;}.cls-2{clip-path:url(#clippath);}.cls-3{fill:#fff;}.cls-4{fill:#fbc4bd;}.cls-5{fill:#fcec74;}.cls-6{fill:#1b1464;}.cls-7{fill:#269ac2;}</style><clipPath id="clippath"><rect class="cls-1" width="132.3" height="164.72"/></clipPath></defs><g class="cls-2"><g><g><path class="cls-3" d="M86.82,42.35s-.02-.1-.04-.14c-.39-1.33-.98-2.63-1.48-3.92-1.09-2.83-2.17-5.66-3.26-8.49-.18-.46-.4-.9-.64-1.31-1.71-3.56-4.43-6.52-8.48-8.15-6.84-2.77-14.44,.86-18.53,6.48-1.36,1.88-2.29,4.08-2.8,6.39-.53,1.26-2.38,.82-2.69,2.16-2.62,.28-3.68,3.48-4.99,5.83-1.91,3.43-.8,7.58,2.22,9.92,.5,.39,1,.7,1.51,.99,.6,4.22,2.39,8.29,5.2,11.46,.26,2.54,.53,5.08,.79,7.63-1.65-.28-3.4,.16-4.73,1.63-2.97,3.27-2.29,7.15,.06,10.25,1.98,5.98,3.96,11.96,5.93,17.94,.36,1.09,1.04,2.08,1.91,2.84,.85,6.6,1.82,13.18,2.91,19.74,.39,2.36,3.22,4.32,5.54,4.22,2.35-.11,5.12-1.69,5.54-4.22,.43-2.58,.92-5.15,1.45-7.72,.24-.4,.46-.83,.64-1.29,.85-2.13,1.64-4.29,2.36-6.46,.18,.01,.36,.01,.55,0,2.92-.13,5.98-2.54,5.75-5.75-.33-4.41-.33-8.83,.02-13.23,.08-1.03,.18-2.06,.3-3.09,0-.05,.21-1.48,.13-.98,.07-.47,.14-.93,.21-1.4,.36-2.23,.82-4.43,1.36-6.62,.66-2.72-.59-5.48-3.1-6.67-.41-2.56-.88-5.12-1.41-7.66,0-.04-.02-.07-.03-.11,2.19-4.02,4.44-8.1,6.43-12.24,1.85-2.19,2.43-5.34,1.37-8.04Z"/><g><g><path class="cls-7" d="M57.02,27.55s.1-.08,.16-.14c0,0,0,0,0,0-.05,.05-.11,.1-.16,.14Z"/><path class="cls-7" d="M86.7,21.77c-1.32-5.06-3.91-9.45-8.36-10.92-1.64-.54-3.05-1.57-4.41-2.69-.43,.05-.86,.03-1.27-.08-1.33-.35-2.66-1.02-3.72-1.96-3.06,1-6.47,.62-8.98-1.27-.56,.29-1.15,.6-1.77,.93-3.36,1.79-9.53,6.64-10.7,10.4,0,0-.47,1.51-.47,1.51-.55,.42-1,.97-1.31,1.65-.76,1.72-1.41,3.47-1.91,5.24,.81,4.71,1.17,9.47,1.25,14.24,.4-.18,.87-.28,1.41-.28,.59,0,1.1,.13,1.53,.34,.97-3.16,2.03-6.38,3.6-9.28,1.7,.24,3.46-.29,4.87-1.57,.18-.17,.37-.33,.56-.49-.22,.18-.23,.13,.16-.14,0,0,0,0,0,0,0,0,0,0,0,0,0,0,0,0,0,0,.6-.41,1.2-.8,1.84-1.16,.28-.16,.57-.31,.86-.45,.06-.03,.32-.14,.49-.21,.16-.06,.33-.12,.38-.13,0,0,0,0,.01,0,1.37,.59,2.75,1.13,3.17,1.15,0,0,0,0,.01,0,.21-1.07,.95-2.01,2.35-2.35,1.25-.3,2.43-.36,3.55-.23,0,0,0,0,0,0,0,0,0,0,0,0,3.72,.43,6.7,3,9.04,6.09,1.12,.97,2.09,2.19,2.74,3.53,1.25,2.58,.42,6.22,4.54,4.88,.35-.11,.67-.25,.98-.4,.91-4.15,1.04-10.67-.44-16.35Z"/></g><path class="cls-7" d="M77.5,28.46s0,0,0,0c.02,.03,.03,.07,.05,.1,0,0,0,0,0,0-.02-.03-.03-.07-.05-.1Z"/></g><path class="cls-5" d="M72.07,119.33c-.09-.53-.18-1.07-.27-1.6-.04-.18-.1-.35-.16-.52,0-.06,.01-.11,.02-.17,.26-4.99,.43-9.97,.51-14.96-.34-.37-.58-.81-.66-1.32-.76-4.84-1.6-9.54-.36-14.37-.37-.16-.72-.39-1-.68-1.6-1.64-2.7-3.52-3.59-5.6-.06,0-.13,0-.19,0-.24,.01-.47,.04-.7,.08-.02,.55-.15,1.12-.38,1.66-1.04,2.45-3.03,4.49-3.88,7,1.27,4.23,.3,8.63,.26,12.94-.01,1.06-.42,1.86-1.03,2.41-.09,4.29-.24,8.58-.47,12.86-.04,.7,.09,1.39,.35,2.04-.02,.57,.05,1.14,.2,1.71,.09,.53,.18,1.07,.27,1.6,.18,.75,.52,1.4,1.03,1.95,.41,.63,.94,1.12,1.61,1.48,.66,.42,1.37,.65,2.14,.68,.76,.17,1.53,.14,2.29-.1,1.39-.45,2.73-1.31,3.43-2.64,.19-.46,.39-.92,.58-1.37,.27-1.02,.27-2.04,0-3.05Z"/><path class="cls-7" d="M125.37,142.69c-.37-2.43-.73-4.86-1.1-7.28,0-.04-.01-.08-.02-.11-.03-.2-.05-.41-.08-.61-.07-.56-.14-1.12-.2-1.68-.14-1.22-.25-2.44-.34-3.66-.36-4.96-.21-9.93-.04-14.89,.19-5.58,.72-11.37-.23-16.91-.88-5.16-4.85-9.45-9.81-10.13-.04-.02-.07-.04-.1-.06-3.85-2.12-8.05-3.2-12.31-4.14-1.93-.42-3.86-.84-5.74-1.42-.71-.22-1.42-.45-2.12-.72-.01-.02-.44-.21-.7-.33-.12,.01-.23,.02-.35,.02-1.69-.03-3.31-.52-4.68-1.52-.1-.07-.19-.15-.28-.22-1.3,.14-2.56,.69-3.42,1.63-.95,1.04-1.59,2.48-1.68,3.92-.94,2.14-1.49,4.59-2.22,6.74-1.67,4.9-3.39,9.77-5.31,14.58-.22,.55-.44,1.1-.67,1.65-.09,.21-.17,.41-.26,.62-.03,.08-.08,.19-.15,.34-.51,1.16-1.01,2.32-1.55,3.47-1.06,2.29-2.18,4.55-3.39,6.76-1.2,2.21-2.48,4.37-3.86,6.48-.19,.28-.38,.56-.57,.85-4.37-11.18-9.05-22.24-14.04-33.15-.17-1.15-.34-2.31-.51-3.46-.28-1.9-.45-3.92-1.33-5.65-.04-1.5-.61-2.99-1.67-3.96-.85-.78-1.8-1.27-2.79-1.49-.43,.52-1,.91-1.66,1.04-.71,.14-1.43,.22-2.16,.31-.2,.03-.4,.07-.6,.12-.34,.08-.68,.11-1,.1-1.11,.96-2.11,2.11-2.93,3.35-.07,.02-.15,.05-.22,.07-.88,.26-1.78,.47-2.68,.63-.3,.05-.61,.1-.91,.14,.21-.03,.41-.06,.62-.09-.41,.13-.93,.09-1.36,.13-4.83,.38-10.02-.05-14.69,1.46-3.37,1.09-4.86,3.77-5.36,7.06-.4,2.57-.68,5.15-.71,7.75-.03,2.49,.15,4.99,.5,7.47-1.85,16.43-2.79,32.95-2.83,49.48,.14,.15,.29,.3,.44,.45-.12,1.61-.11,3.23,.09,4.84,.21,1.78,.57,3.73,1.91,4.89,.07,.5,.24,.97,.59,1.4,.79,.97,2.04,1.06,3.2,1.21,1.55,.19,3.1,.36,4.65,.51,3.1,.3,6.22,.51,9.33,.65,1.52,.06,3.13,.23,4.59-.1,2.93,.15,5.86,.3,8.79,.43,9.92,.44,19.85,.75,29.78,.78,1.01,0,2.02,0,3.04,0,.8,.09,1.6,.18,2.4,.26,4.74,.5,9.48,.98,14.24,1.26,5.51,.33,11.1,.38,16.63-.08,.04-.54,.09-1.07,.13-1.61-.05-.38-.1-.75-.17-1.12,0-.02,0-.04,0-.07-.58-.63-.51-1.86,.46-2.2,.1-1.17,.2-2.34,.29-3.51-.67-.79-.22-2.37,1.11-2.21,.52,.06,1.03,.11,1.55,.15,.22-.15,.51-.22,.87-.15,1.01,.18,2.01,.27,3.01,.28,1.16-.03,2.33-.11,3.49-.27,.17-.02,.32-.01,.47,.02,1.54-1.23,3.05-2.51,4.57-3.78,.31-.25,.64-.33,.96-.29,1.17-1.51,2.09-3.18,2.53-5.03-.31-3.81-.87-7.6-1.44-11.37Z"/><path class="cls-4" d="M67.75,56.56c-1.31,.09-2.63,.18-3.94,.28-.25,.02-.5,.12-.69,.28-.37-.23-.97-.13-1.26,.18-.35,.38-.36,.84-.17,1.29,.62,1.43,1.9,2.62,3.5,2.75,.7,.06,1.47-.17,2.04-.57,.35-.25,.64-.53,.87-.89,.24-.37,.32-.77,.38-1.2,0-.02,0-.04,0-.05,.13-.22,.24-.46,.31-.72,.18-.63-.33-1.4-1.03-1.35Z"/></g><g><path class="cls-6" d="M81.35,45.58c0,.89-.03,1.78-.09,2.67-.03,.45-.07,.9-.12,1.36-.02,.22-.05,.44-.08,.66-.01,.09,0,.25-.04,.33,.08-.17,.03-.21,.01-.08-.01,.08-.02,.17-.04,.25-.27,1.85-.68,3.69-1.26,5.48-.15,.46-.31,.92-.48,1.37-.08,.21-.16,.42-.25,.63-.02,.05-.04,.11-.07,.16,.01-.03,.11-.26,.03-.06-.05,.12-.1,.23-.15,.35-.38,.85-.81,1.69-1.3,2.49-.24,.39-.49,.77-.75,1.14-.13,.18-.26,.35-.39,.53-.1,.13,.15-.19,.04-.06-.03,.04-.07,.09-.1,.13-.08,.1-.15,.19-.23,.29-.58,.69-1.2,1.34-1.89,1.92-.13,.11-.34,.36-.51,.41,.15-.05,.16-.12,.06-.04-.04,.03-.09,.07-.13,.1-.11,.08-.22,.16-.33,.24-.37,.26-.76,.5-1.16,.73-.4,.23-.82,.43-1.24,.62-.05,.02-.1,.05-.16,.07,.28-.09,.13-.05,.06-.03-.11,.04-.21,.08-.32,.13-.24,.09-.49,.18-.74,.26-.47,.15-.95,.27-1.43,.38-.24,.05-.48,.1-.73,.14-.12,.02-.25,.04-.37,.06-.18,.03,.23-.02,.05,0-.08,0-.16,.02-.24,.03-1.15,.13-2.32,.14-3.47,.04-.14-.01-.29-.03-.43-.04-.07,0-.14-.02-.21-.03-.19-.02,.2,.03,.01,0-.29-.05-.59-.09-.88-.15-.55-.11-1.1-.26-1.63-.43-.25-.08-.51-.17-.76-.27-.12-.05-.25-.1-.37-.15-.17-.07,.19,.09,.02,0-.07-.03-.15-.07-.23-.1-.5-.23-.99-.49-1.47-.77-.46-.27-.9-.57-1.32-.89-.03-.02-.19-.15-.07-.05,.13,.1-.03-.03-.06-.05-.1-.08-.2-.16-.3-.25-.21-.18-.41-.36-.61-.54-.4-.37-.78-.77-1.14-1.18-.17-.19-.34-.39-.5-.59-.05-.06-.28-.36-.11-.13-.09-.12-.18-.23-.26-.35-.64-.89-1.21-1.84-1.7-2.83-.12-.24-.23-.48-.34-.72-.05-.12-.11-.24-.16-.37,.11,.26-.06-.14-.08-.21-.26-.66-.49-1.33-.71-2.01-.44-1.42-.79-2.88-1.04-4.34-.24-1.39-.38-2.76-.46-4.3-.03-.64-.04-1.27-.04-1.91s-.57-1.27-1.24-1.24c-.67,.03-1.24,.55-1.24,1.24,0,3.07,.33,6.15,1.05,9.13,.63,2.63,1.56,5.23,2.97,7.55,2.47,4.07,6.42,7.19,11.13,8.16,4.42,.9,9.3,.21,13.06-2.36,3.38-2.31,5.65-5.78,7.13-9.54,1.44-3.67,2.12-7.66,2.26-11.6,.02-.45,.02-.89,.02-1.34,0-.65-.57-1.27-1.24-1.24-.68,.03-1.24,.55-1.24,1.24h0Z"/><path class="cls-6" d="M82.54,40.36h2.32c.05,0,.11,0,.16,0,.21-.01-.11,0-.11-.03,0-.01,.13,.03,.14,.03,.17,0-.06,.03-.09-.05,0,.02,.2,.12,.23,.14,.14,.07-.16-.17-.06-.05,.02,.03,.06,.06,.09,.09,.05,.05,.21,.27,.13,.14-.09-.14,0,0,0,.02,.04,.07,.08,.13,.12,.2,.06,.1,.11,.2,.15,.31-.1-.22,.01,.06,.04,.14,.09,.27,.15,.54,.19,.82-.03-.21,0,.07,0,.14,0,.12,.01,.25,.01,.37,0,.03,0,.05,0,.08,0,.17,0,.34,0,.51v3.8c0,.32,0,.64,0,.96,0,.1,0,.21,0,.31,0,.06-.04,.44,0,.2-.03,.26-.09,.52-.17,.77-.01,.04-.13,.38-.08,.25,.05-.13-.08,.17-.11,.21-.05,.09-.14,.19-.17,.28-.04,.11,.04-.05,.06-.07-.05,.05-.09,.11-.14,.16-.03,.03-.06,.06-.09,.09-.16,.17,.14-.06,.03-.02-.06,.02-.33,.21-.15,.1,.23-.14-.31,.08-.04,0,.17-.05,.06,0,0-.01-.24-.02-.49,0-.73,0h-1.74c-.65,0-1.27,.57-1.24,1.24,.03,.67,.55,1.24,1.24,1.24h1.64c.74,0,1.44,.03,2.12-.34,1.73-.92,2.09-3.15,2.09-4.91v-4.03c0-1.68-.13-3.49-1.39-4.76-.5-.51-1.14-.81-1.85-.86-.23-.02-.46,0-.69,0h-1.91c-.65,0-1.27,.57-1.24,1.24,.03,.67,.55,1.24,1.24,1.24h0Z"/><path class="cls-6" d="M47.41,37.87h-1.59c-.73,0-1.43-.02-2.07,.4-1.59,1.05-1.89,3.11-1.89,4.87v3.98c0,1.66,.11,3.38,1.25,4.7,.38,.44,.92,.8,1.5,.9,.32,.05,.63,.05,.95,.05h1.85c.65,0,1.27-.57,1.24-1.24-.03-.67-.55-1.24-1.24-1.24h-1.46c-.26,0-.52,0-.78,0-.04,0-.1,0-.14,0-.12,.02,.15,0,.16,.03,0,0-.15-.04-.14-.03-.03,0-.18-.04,.02,0,.17,.04,.04,.02-.01-.02-.23-.18,.12,.15-.02-.02-.03-.03-.26-.26-.13-.12,.12,.12-.05-.08-.08-.13-.07-.11-.12-.23-.18-.34-.07-.12,.02,.05,.02,.06-.02-.07-.05-.13-.07-.2-.04-.1-.07-.21-.1-.31-.03-.13-.06-.26-.09-.39-.01-.06-.02-.12-.03-.17,.04,.23,0-.04,0-.09-.03-.39-.03-.78-.03-1.17v-3.74c0-.33,0-.66,0-.98,0-.17,0-.34,.02-.51,0-.08,.01-.16,.02-.24,0,.03-.04,.18,0,.04,.04-.15,.06-.3,.1-.45,.03-.12,.07-.25,.11-.37,.03-.1,.13-.28,.03-.09,.05-.1,.1-.2,.16-.3,.02-.04,.05-.08,.07-.12,.02-.04,.19-.23,.06-.09-.12,.12,.09-.09,.13-.12,.15-.17-.04,.06-.07,.04,0,0,.11-.07,.13-.08,.15-.12-.07,.12-.1,.03,0,0,.14-.04,.14-.04,0,0,.24-.05-.03,0-.16,.03-.1,0-.02,.01,.21,.01,.42,0,.63,0h1.69c.65,0,1.27-.57,1.24-1.24-.03-.67-.55-1.24-1.24-1.24h0Z"/><path class="cls-6" d="M58.44,44.38c1.6,0,1.6-2.49,0-2.49s-1.6,2.49,0,2.49h0Z"/><path class="cls-6" d="M72.13,44.2c1.6,0,1.6-2.49,0-2.49s-1.6,2.49,0,2.49h0Z"/><path class="cls-6" d="M62.95,40.01c.23,.16,.56,.53,.74,.82,.28,.45,.36,.66,.49,1.18,.22,.87,.14,1.91-.12,2.9-.53,1.99-1.88,3.84-1.65,6,.14,1.3,.74,2.39,1.66,3.31,.97,.97,2.48-.53,1.51-1.51-.37-.37-.58-.64-.83-1.12-.1-.19-.04-.08-.02-.03-.02-.05-.04-.1-.05-.15-.03-.1-.06-.19-.09-.29-.03-.11-.05-.23-.07-.34,.03,.2,0-.1,0-.16,0-.22,0-.43,.03-.65-.02,.18,.01-.06,.02-.12,.02-.12,.05-.24,.08-.36,.12-.49,.29-.96,.49-1.43-.04,.09,.06-.15,.08-.18,.06-.14,.12-.28,.18-.42,.13-.31,.26-.63,.38-.95,.21-.57,.38-1.15,.49-1.75,.22-1.17,.24-2.38-.1-3.53-.37-1.25-1.09-2.3-2.14-3.06-.47-.34-1.19-.08-1.46,.38-.31,.54-.09,1.12,.38,1.46h0Z"/><path class="cls-6" d="M51.66,64.37v7.87c0,.65,.57,1.27,1.24,1.24,.67-.03,1.24-.55,1.24-1.24v-7.87c0-.65-.57-1.27-1.24-1.24-.67,.03-1.24,.55-1.24,1.24h0Z"/><path class="cls-6" d="M76.82,64.37v6.99c0,.65,.57,1.27,1.24,1.24,.67-.03,1.24-.55,1.24-1.24v-6.99c0-.65-.57-1.27-1.24-1.24-.67,.03-1.24,.55-1.24,1.24h0Z"/><path class="cls-6" d="M90.96,81.79c6.15,1.58,12.37,2.85,18.49,4.56,1.47,.41,2.96,.81,4.4,1.33,.04,.02,.46,.18,.24,.09,.14,.06,.28,.13,.42,.19,.31,.15,.61,.32,.91,.5,.24,.15,.48,.32,.71,.49,.16,.12-.13-.11,.02,.02,.06,.05,.12,.1,.18,.15,.13,.11,.26,.22,.39,.34,.22,.21,.44,.42,.65,.65,.1,.11,.2,.23,.3,.34,.05,.06,.1,.12,.15,.18,.14,.17-.03-.05,.05,.06,.37,.49,.71,1.02,.99,1.57,.07,.13,.13,.26,.2,.4,.02,.03,.08,.2,.01,.03,.03,.08,.06,.17,.09,.25,.13,.36,.24,.73,.34,1.1,.2,.72,.35,1.46,.48,2.2,.06,.33,.11,.67,.16,1,.06,.41,.09,.65,.13,.93,.1,.75,.19,1.49,.27,2.24,.18,1.64,.34,3.28,.5,4.93,.3,3.23,.56,6.47,.79,9.71,.46,6.49,.87,12.98,1.1,19.48,.23,6.42,.47,12.85,.85,19.27,.05,.77,.09,1.54,.14,2.31,.04,.65,.54,1.28,1.24,1.24,.64-.03,1.29-.55,1.24-1.24-.42-6.5-.68-13.02-.92-19.53-.24-6.59-.61-13.17-1.05-19.75-.44-6.56-.91-13.14-1.81-19.65-.2-1.48-.46-2.96-.9-4.39-.43-1.41-1.13-2.64-2.04-3.79-.84-1.06-1.86-1.97-3-2.68-1.23-.77-2.61-1.19-3.99-1.61-6.17-1.88-12.5-3.19-18.76-4.73-.77-.19-1.54-.38-2.3-.58-.63-.16-1.38,.21-1.53,.87-.15,.65,.19,1.36,.87,1.53h0Z"/><path class="cls-6" d="M39.97,79.42c-6.73,1.8-13.63,2.95-20.29,5.04-2.78,.87-5.68,2.21-7.65,4.42-.49,.55-.98,1.17-1.32,1.83-.22,.43-.27,.95-.37,1.42-.09,.43-.18,.85-.27,1.28-.35,1.76-.67,3.52-.94,5.3-1.09,7.01-1.6,14.09-1.82,21.18-.22,7.07-.15,14.14-.13,21.21,.02,7.05,0,14.11-.38,21.16-.05,.86-.1,1.72-.16,2.58-.05,.67,.6,1.24,1.24,1.24,.71,0,1.2-.57,1.24-1.24,.46-6.93,.54-13.87,.54-20.82,0-6.96-.09-13.92,.04-20.88,.14-6.92,.49-13.85,1.38-20.72,.44-3.39,1.03-6.82,1.76-10.19,.08-.38,.1-.46,.33-.81,.09-.14,.19-.28,.29-.41-.11,.14,.02-.02,.03-.04,.07-.08,.13-.16,.2-.24,.2-.23,.42-.46,.64-.67,.12-.11,.24-.22,.37-.33,.06-.05,.13-.11,.19-.16,0,0,.25-.2,.17-.13,.97-.74,2.33-1.44,3.55-1.98,0,0,.19-.08,.1-.04-.11,.05,.14-.06,.16-.07,.18-.07,.36-.14,.54-.2,.44-.14,.87-.28,1.31-.42,.82-.25,1.65-.5,2.48-.72,1.66-.46,3.33-.87,5-1.27,3.32-.78,6.66-1.49,9.97-2.3,.82-.2,1.64-.41,2.45-.63,.65-.17,1.05-.89,.87-1.53-.18-.65-.88-1.04-1.53-.87h0Z"/><path class="cls-6" d="M61.12,87.72c-1.48-.92-2.96-1.84-4.44-2.75-2.36-1.46-4.72-2.92-7.08-4.39l-1.61-1c.19,.47,.38,.94,.57,1.41,.7-2.65,1.41-5.3,2.11-7.94,.1-.37,.2-.75,.3-1.12l-1.53,.87c1.77,.73,3.55,1.46,5.32,2.19,2.82,1.16,5.65,2.33,8.47,3.49,.64,.27,1.29,.53,1.93,.8-.25-.61-.5-1.22-.74-1.83-1.46,3.14-2.92,6.28-4.38,9.41-.2,.44-.41,.88-.61,1.32-.27,.59-.19,1.37,.45,1.7,.55,.29,1.41,.18,1.7-.45,1.46-3.14,2.92-6.28,4.38-9.41,.2-.44,.41-.88,.61-1.32,.37-.79,.04-1.5-.74-1.83-1.77-.73-3.55-1.46-5.32-2.19-2.82-1.16-5.65-2.33-8.47-3.49-.64-.27-1.29-.53-1.93-.8-.62-.25-1.38,.28-1.53,.87-.7,2.65-1.41,5.3-2.11,7.94-.1,.37-.2,.75-.3,1.12-.14,.55,.1,1.11,.57,1.41,1.48,.92,2.96,1.84,4.44,2.75,2.36,1.46,4.72,2.92,7.08,4.39l1.61,1c.55,.34,1.39,.14,1.7-.45,.32-.61,.15-1.34-.45-1.7Z"/><path class="cls-6" d="M71.69,89.86c1.48-.92,2.96-1.84,4.44-2.75,2.36-1.46,4.72-2.92,7.08-4.39l1.61-1c.47-.29,.72-.86,.57-1.41-.7-2.65-1.41-5.3-2.11-7.94-.1-.37-.2-.75-.3-1.12-.16-.59-.91-1.12-1.53-.87-1.77,.73-3.55,1.46-5.32,2.19-2.82,1.16-5.65,2.33-8.47,3.49-.64,.27-1.29,.53-1.93,.8-.79,.32-1.11,1.03-.74,1.83,1.46,3.14,2.92,6.28,4.38,9.41l.61,1.32c.28,.59,1.17,.79,1.7,.45,.61-.39,.74-1.07,.45-1.7-1.46-3.14-2.92-6.28-4.38-9.41-.2-.44-.41-.88-.61-1.32-.25,.61-.5,1.22-.74,1.83,1.77-.73,3.55-1.46,5.32-2.19,2.82-1.16,5.65-2.33,8.47-3.49l1.93-.8c-.51-.29-1.02-.58-1.53-.87,.7,2.65,1.41,5.3,2.11,7.94,.1,.37,.2,.75,.3,1.12,.19-.47,.38-.94,.57-1.41-1.48,.92-2.96,1.84-4.44,2.75-2.36,1.46-4.72,2.92-7.08,4.39l-1.61,1c-.55,.34-.82,1.13-.45,1.7,.36,.55,1.11,.81,1.7,.45Z"/><path class="cls-6" d="M69.1,86.8c-.19,1.36-.37,2.71-.56,4.07,.4-.3,.8-.61,1.2-.91h-7.03c.4,.3,.8,.61,1.2,.91-.19-1.23-.37-2.47-.56-3.7-.1-.65-.94-1.06-1.53-.87-.7,.23-.97,.84-.87,1.53,.19,1.23,.37,2.47,.56,3.7,.08,.53,.7,.91,1.2,.91h7.03c.49,0,1.13-.38,1.2-.91,.19-1.36,.37-2.71,.56-4.07,.09-.64-.15-1.37-.87-1.53-.58-.13-1.44,.18-1.53,.87h0Z"/><path class="cls-6" d="M61.72,112.82c.64-5.57,1.13-11.15,1.6-16.73,.13-1.58,.26-3.16,.39-4.74l-.62,1.07c.14-.07,.17-.08,.09-.04,.09-.03,.17-.06,.26-.08,.09-.02,.17-.04,.26-.06,.15-.03,.17-.03,.06-.01,.34-.04,.69-.03,1.03,0,.09,0,.17,.02,.26,.03-.12-.02-.1-.01,.06,0,.13,.02,.26,.04,.39,.06,.41,.07,.82,.13,1.24,.19,.73,.09,1.4,.09,2.12-.08,.17-.04,.34-.08,.51-.12,.15-.03,.17-.03,.05,0,.34,0,.18-.08-.48-.25,.03,.13,.31,.27,.41,.33,.26,.15,.49,.17,.79,.21-.29-.12-.59-.24-.88-.36-.15-.17-.03-.02,0,0-.02-.02-.08-.25-.01-.01,0,.02,.04,.19,.02,.04-.03-.17,0,.06,0,.1,0,.29-.03,.58-.05,.86-.03,.4,.02,.78,.08,1.17,.05,.33,.07,.51,.12,.89,.17,1.41,.28,2.83,.4,4.25,.12,1.42,.25,2.84,.44,4.26,.04,.33,.14,.68,.15,1.01,0-.21-.02,.15-.02,.21v.49c0,.65-.02,1.29,0,1.94,0,.24,.06,.48,.09,.72,0-.06-.02-.18,0,.08,0,.09,.02,.18,.02,.28,.03,.39,.04,.78,.05,1.17,.03,.88,.11,1.77,.39,2.61,.21,.62,.87,1.08,1.53,.87,.61-.2,1.09-.87,.87-1.53-.08-.23-.14-.46-.19-.69-.02-.09-.04-.18-.05-.28,.02,.16,0-.07,0-.08-.04-.46-.05-.92-.07-1.38-.01-.42-.04-.83-.09-1.24-.02-.16-.04-.31-.06-.47-.04-.31,0-.1,0-.06,0-.22,0-.44,0-.66,0-.82,.08-1.69-.04-2.51-.13-.89-.21-1.43-.31-2.36-.17-1.69-.28-3.38-.44-5.07-.09-.97-.21-1.93-.34-2.89-.01-.09-.03-.19-.04-.29,0-.05-.01-.1-.02-.15,.02,.09,.03,.09,.03,0,.01-.18,.02-.36,.04-.54,.04-.43,.04-.84-.04-1.28-.08-.44-.31-.88-.62-1.2-.16-.16-.36-.31-.59-.36-.06,0-.11-.01-.17-.02-.38-.06-.23,0,.44,.22,0-.02-.08-.07-.1-.1-.18-.17-.38-.28-.61-.36-.46-.16-1-.05-1.45,.05-.21,.05-.42,.1-.63,.15-.04,0-.24,.02-.05,0-.13,0-.26,0-.39,0-.19,0-.39-.03-.58-.05-.22-.03,.16,.02-.06,0-.11-.02-.22-.03-.32-.05-.48-.08-.95-.16-1.43-.22-.86-.1-1.77-.08-2.59,.21-.29,.1-.72,.25-.94,.49-.27,.3-.34,.63-.38,1.02-.04,.47-.08,.94-.12,1.41-.07,.87-.15,1.75-.22,2.62-.15,1.79-.3,3.57-.46,5.36-.35,3.98-.73,7.97-1.19,11.94-.07,.65,.63,1.27,1.24,1.24,.74-.03,1.16-.55,1.24-1.24h0Z"/><path class="cls-6" d="M21.18,107.35c.03,.49,.05,.99,.08,1.48l.22,4.04,.33,5.94c.13,2.43,.27,4.86,.4,7.28,.15,2.66,.29,5.32,.44,7.98,.15,2.69,.3,5.37,.45,8.06,.14,2.5,.28,5.01,.42,7.51,.12,2.11,.23,4.21,.35,6.32,.08,1.52,.17,3.05,.25,4.57,.04,.72,.07,1.44,.12,2.17,0,.03,0,.06,0,.09,.04,.65,.55,1.28,1.24,1.24,.64-.03,1.28-.55,1.24-1.24-.03-.49-.05-.99-.08-1.48-.07-1.35-.15-2.69-.22-4.04-.11-1.98-.22-3.96-.33-5.94-.13-2.43-.27-4.86-.4-7.28-.15-2.66-.29-5.32-.44-7.98-.15-2.69-.3-5.37-.45-8.06-.14-2.5-.28-5.01-.42-7.51-.12-2.11-.23-4.21-.35-6.32-.08-1.52-.17-3.05-.25-4.57-.04-.72-.07-1.44-.12-2.17,0-.03,0-.06,0-.09-.04-.65-.55-1.28-1.24-1.24-.64,.03-1.28,.55-1.24,1.24h0Z"/><path class="cls-6" d="M108.17,107.35c-.03,.49-.06,.99-.09,1.48-.08,1.35-.16,2.69-.23,4.04-.11,1.98-.23,3.96-.34,5.94-.14,2.43-.28,4.86-.42,7.28-.15,2.66-.31,5.32-.46,7.98-.15,2.69-.31,5.37-.46,8.06-.14,2.5-.29,5.01-.43,7.51-.12,2.11-.24,4.21-.36,6.32-.09,1.52-.18,3.05-.26,4.57-.04,.72-.1,1.44-.12,2.17,0,.03,0,.06,0,.09-.04,.65,.6,1.27,1.24,1.24,.71-.03,1.2-.55,1.24-1.24,.03-.49,.06-.99,.09-1.48,.08-1.35,.16-2.69,.23-4.04,.11-1.98,.23-3.96,.34-5.94,.14-2.43,.28-4.86,.42-7.28,.15-2.66,.31-5.32,.46-7.98,.15-2.69,.31-5.37,.46-8.06,.14-2.5,.29-5.01,.43-7.51,.12-2.11,.24-4.21,.36-6.32,.09-1.52,.18-3.05,.26-4.57,.04-.72,.1-1.44,.12-2.17,0-.03,0-.06,0-.09,.04-.65-.6-1.27-1.24-1.24-.71,.03-1.2,.55-1.24,1.24h0Z"/><path class="cls-6" d="M86.7,29.57c.08,1.19,.1,2.38,.06,3.57-.02,.57-.06,1.14-.11,1.71-.06,.62-.12,1.15-.2,1.65-.1,.64,.16,1.37,.87,1.53,.59,.13,1.43-.18,1.53-.87,.38-2.52,.51-5.05,.34-7.59-.04-.65-.54-1.28-1.24-1.24-.64,.03-1.29,.55-1.24,1.24h0Z"/><path class="cls-6" d="M44.16,26.42c-.64,3.44-.65,6.92-.05,10.36,.11,.64,.93,1.06,1.53,.87,.69-.22,.99-.84,.87-1.53-.5-2.84-.48-6.2,.05-9.04,.12-.64-.18-1.37-.87-1.53-.61-.14-1.4,.18-1.53,.87h0Z"/><path class="cls-6" d="M52.38,10.29c-1.87,1.24-3.51,2.69-4.83,4.5-1.18,1.62-2.02,3.46-2.85,5.28-.27,.59-.19,1.37,.45,1.7,.55,.29,1.42,.19,1.7-.45,.8-1.76,1.62-3.54,2.74-5.13,.06-.09,.13-.18,.19-.26,.19-.26-.1,.11,.06-.08,.14-.17,.28-.34,.42-.51,.32-.37,.66-.72,1.01-1.05,.36-.34,.73-.65,1.11-.96,.11-.09,.12-.09,.01,0,.06-.05,.12-.09,.18-.14,.09-.07,.18-.14,.28-.2,.26-.19,.52-.37,.79-.54,.54-.36,.83-1.12,.45-1.7-.35-.54-1.12-.83-1.7-.45h0Z"/><path class="cls-6" d="M64.75,8.47c-.15,0-.31,0-.46-.02-.06,0-.12-.01-.18-.02-.3-.03,.19,.03,.01,0-.29-.05-.57-.1-.85-.18-.13-.04-.26-.08-.39-.12-.07-.02-.14-.05-.22-.08-.04-.01-.28-.11-.11-.04,.18,.07-.09-.04-.1-.05-.06-.03-.11-.05-.17-.08-.14-.07-.27-.14-.41-.22-.24-.14-.47-.29-.69-.45-.24-.17,.13,.11,0,0-.06-.05-.12-.1-.18-.15-.1-.09-.21-.18-.31-.28-.21-.2-.4-.42-.59-.64-.15-.18,.08,.12,0,0-.04-.06-.09-.12-.13-.19-.09-.13-.17-.26-.25-.39-.34-.56-1.13-.81-1.7-.45-.56,.36-.81,1.11-.45,1.7,1.5,2.49,4.27,4.08,7.18,4.13,.65,.01,1.27-.58,1.24-1.24-.03-.68-.55-1.23-1.24-1.24h0Z"/><path class="cls-6" d="M64.39,24.19c-.3,.05,.19-.01,0,0-.08,0-.15,.02-.23,.02-.15,.01-.31,.02-.47,.01-.16,0-.31,0-.46-.02-.04,0-.31-.04-.11,0,.2,.03-.07-.01-.11-.02-.31-.06-.61-.13-.9-.23-.07-.02-.15-.05-.22-.08-.07-.03-.28-.07,0,0-.14-.04-.29-.13-.42-.2-.28-.15-.54-.31-.79-.49-.15-.1-.02,.02,.03,.02-.04,0-.19-.15-.21-.18-.11-.09-.21-.19-.31-.29-.11-.11-.22-.22-.32-.34-.05-.06-.11-.12-.15-.18,.15,.24,.04,.04,0,0-.19-.27-.35-.55-.49-.85-.28-.59-1.17-.79-1.7-.45-.6,.39-.75,1.07-.45,1.7,1.42,2.95,4.82,4.51,7.98,3.98,.64-.11,1.06-.94,.87-1.53-.23-.7-.84-.98-1.53-.87h0Z"/><path class="cls-6" d="M71.56,21.86c-.13-.04-.26-.08-.39-.13-.08-.03-.15-.06-.23-.09-.04-.02-.25-.13-.08-.03,.17,.1-.03-.02-.08-.04-.06-.03-.12-.06-.19-.09-.14-.07-.27-.13-.4-.21-.24-.13-.47-.27-.7-.42-.11-.08-.23-.15-.34-.23-.03-.02-.07-.05-.1-.07-.07-.06-.04-.03,.09,.07-.06-.02-.12-.09-.16-.13-.43-.36-.83-.75-1.2-1.17-.04-.05-.09-.1-.13-.16-.11-.14-.05-.08,.02,.03-.07-.11-.16-.22-.24-.33-.17-.25-.33-.5-.48-.76-.32-.57-1.15-.81-1.7-.45-.58,.37-.79,1.09-.45,1.7,1.31,2.34,3.53,4.11,6.08,4.91,.62,.2,1.39-.23,1.53-.87,.15-.68-.2-1.32-.87-1.53h0Z"/><path class="cls-6" d="M79.93,25.74c-1.56-2.42-3.38-4.69-5.42-6.72-.46-.46-1.31-.5-1.76,0-.46,.5-.49,1.27,0,1.76,.97,.97,1.89,1.98,2.75,3.05,.1,.12,.2,.24,.29,.37,.06,.08,.12,.15,.18,.23,.12,.16-.1-.13,.02,.03,.2,.27,.4,.53,.6,.8,.41,.57,.81,1.15,1.19,1.75,.35,.55,1.12,.82,1.7,.45,.55-.35,.82-1.12,.45-1.7h0Z"/><path class="cls-6" d="M51.2,27.36c-1.26,2.47-2.01,5.11-2.28,7.87-.06,.65,.62,1.27,1.24,1.24,.73-.03,1.18-.55,1.24-1.24,.06-.61,.1-.94,.23-1.61,.12-.6,.26-1.19,.43-1.78,.17-.59,.37-1.16,.59-1.73,.13-.34,.13-.33,.28-.67,.13-.28,.26-.55,.4-.82,.3-.58,.17-1.38-.45-1.7-.57-.3-1.39-.17-1.7,.45h0Z"/><path class="cls-6" d="M45.81,80.59c.17,.44,.33,.88,.5,1.31,.45,1.19,.9,2.38,1.35,3.58,.67,1.76,1.33,3.53,2,5.29,.81,2.15,1.62,4.3,2.44,6.46,.89,2.36,1.78,4.71,2.67,7.07,.9,2.38,1.8,4.76,2.69,7.14,.84,2.23,1.68,4.46,2.52,6.69,.71,1.88,1.41,3.75,2.12,5.63l1.53,4.05c.24,.64,.48,1.28,.72,1.92,.01,.03,.02,.05,.03,.08,.23,.61,.85,1.09,1.53,.87,.59-.19,1.12-.88,.87-1.53-.17-.44-.33-.88-.5-1.31-.45-1.19-.9-2.38-1.35-3.58-.67-1.76-1.33-3.53-2-5.29-.81-2.15-1.62-4.3-2.44-6.46-.89-2.36-1.78-4.71-2.67-7.07-.9-2.38-1.8-4.76-2.69-7.14-.84-2.23-1.68-4.46-2.52-6.69-.71-1.88-1.41-3.75-2.12-5.63-.51-1.35-1.02-2.7-1.53-4.05-.24-.64-.48-1.28-.72-1.92-.01-.03-.02-.05-.03-.08-.23-.61-.85-1.09-1.53-.87-.59,.19-1.12,.88-.87,1.53h0Z"/><path class="cls-6" d="M82.64,79.93c-.18,.49-.36,.98-.54,1.47-.49,1.33-.99,2.67-1.48,4-.73,1.96-1.45,3.92-2.18,5.88-.89,2.4-1.78,4.81-2.67,7.21-.98,2.63-1.95,5.26-2.93,7.9-.98,2.65-1.96,5.29-2.94,7.94-.92,2.48-1.84,4.96-2.76,7.43-.78,2.09-1.55,4.19-2.33,6.28-.56,1.5-1.11,3-1.67,4.5-.26,.71-.55,1.42-.8,2.14-.01,.03-.02,.06-.03,.09-.23,.61,.25,1.39,.87,1.53,.71,.16,1.29-.21,1.53-.87,.18-.49,.36-.98,.54-1.47,.49-1.33,.99-2.67,1.48-4,.73-1.96,1.45-3.92,2.18-5.88,.89-2.4,1.78-4.81,2.67-7.21l2.93-7.9c.98-2.65,1.96-5.29,2.94-7.94,.92-2.48,1.84-4.96,2.76-7.43l2.33-6.28c.56-1.5,1.11-3,1.67-4.5,.26-.71,.55-1.42,.8-2.14,.01-.03,.02-.06,.03-.09,.23-.61-.25-1.39-.87-1.53-.71-.16-1.29,.21-1.53,.87h0Z"/><path class="cls-6" d="M64.74,162.8v-24.27c0-1.13,.04-2.26,0-3.38,0-.02,0-.03,0-.05,0-.65-.57-1.27-1.24-1.24-.67,.03-1.24,.55-1.24,1.24v24.27c0,1.13-.04,2.26,0,3.38,0,.02,0,.03,0,.05,0,.65,.57,1.27,1.24,1.24,.67-.03,1.24-.55,1.24-1.24h0Z"/><path class="cls-6" d="M85.56,80.02c2.72,2.44,5.44,4.87,8.16,7.31,.38,.34,.77,.69,1.15,1.03,.49,.43,1.29,.51,1.76,0,.44-.47,.52-1.3,0-1.76-2.72-2.44-5.44-4.87-8.16-7.31-.38-.34-.77-.69-1.15-1.03-.49-.43-1.29-.51-1.76,0-.44,.47-.52,1.3,0,1.76h0Z"/><path class="cls-6" d="M85.49,94.78c1.19,1.07,2.39,2.14,3.58,3.2l5.67,5.08c.44,.39,.87,.78,1.3,1.17,.49,.43,1.29,.51,1.76,0,.44-.47,.52-1.3,0-1.76-1.19-1.07-2.39-2.14-3.58-3.2l-5.67-5.08-1.31-1.17c-.48-.43-1.29-.51-1.76,0-.44,.47-.52,1.3,0,1.76h0Z"/><path class="cls-6" d="M66.15,139.52l3.16-3.52c2.51-2.8,5.03-5.6,7.54-8.41l9.17-10.22c2.63-2.93,5.26-5.86,7.89-8.79,1.28-1.43,2.59-2.85,3.85-4.29,.02-.02,.04-.04,.05-.06,.43-.48,.51-1.29,0-1.76-.47-.44-1.3-.52-1.76,0-1.05,1.17-2.11,2.35-3.16,3.52-2.51,2.8-5.03,5.6-7.54,8.41-3.06,3.41-6.11,6.81-9.17,10.22-2.63,2.93-5.26,5.86-7.89,8.79-1.28,1.43-2.59,2.85-3.85,4.29-.02,.02-.04,.04-.05,.06-.43,.48-.51,1.29,0,1.76,.47,.44,1.3,.52,1.76,0h0Z"/><path class="cls-6" d="M91.67,96.06c1.51-2.32,3.01-4.64,4.52-6.96,.22-.33,.43-.67,.65-1,.36-.55,.13-1.4-.45-1.7-.62-.33-1.32-.14-1.7,.45-1.51,2.32-3.01,4.64-4.52,6.96-.22,.33-.43,.67-.65,1-.36,.55-.13,1.4,.45,1.7,.62,.33,1.32,.14,1.7-.45h0Z"/><path class="cls-6" d="M44.54,77.47c-2.82,2.32-5.64,4.64-8.46,6.96-.4,.33-.79,.65-1.19,.98-.5,.42-.46,1.34,0,1.76,.54,.49,1.22,.44,1.76,0,2.82-2.32,5.64-4.64,8.46-6.96,.4-.33,.79-.65,1.19-.98,.5-.42,.46-1.34,0-1.76-.54-.49-1.22-.44-1.76,0h0Z"/><path class="cls-6" d="M43.99,92.22c-1.24,1.02-2.47,2.04-3.71,3.05-1.96,1.61-3.92,3.22-5.88,4.84-.45,.37-.9,.74-1.35,1.11-.5,.42-.46,1.34,0,1.76,.54,.49,1.22,.44,1.76,0,1.24-1.02,2.47-2.04,3.71-3.05,1.96-1.61,3.92-3.22,5.88-4.84,.45-.37,.9-.74,1.35-1.11,.5-.42,.46-1.34,0-1.76-.54-.49-1.22-.44-1.76,0h0Z"/><path class="cls-6" d="M61.56,133.72c-.89-1.08-1.78-2.17-2.67-3.25-2.12-2.58-4.25-5.16-6.37-7.74l-7.73-9.39c-2.23-2.71-4.45-5.41-6.68-8.12-1.08-1.31-2.11-2.67-3.24-3.94-.02-.02-.03-.04-.05-.06-.42-.5-1.34-.46-1.76,0-.49,.54-.44,1.22,0,1.76,.89,1.08,1.78,2.17,2.67,3.25,2.12,2.58,4.25,5.16,6.37,7.74,2.58,3.13,5.15,6.26,7.73,9.39,2.23,2.71,4.45,5.41,6.68,8.12,1.08,1.31,2.11,2.67,3.24,3.94,.02,.02,.03,.04,.05,.06,.42,.5,1.34,.46,1.76,0,.49-.54,.44-1.22,0-1.76h0Z"/><path class="cls-6" d="M41.67,93.83c-1.41-2.38-2.82-4.76-4.22-7.14-.2-.34-.4-.68-.61-1.03-.33-.56-1.14-.81-1.7-.45-.56,.36-.8,1.1-.45,1.7,1.41,2.38,2.82,4.76,4.22,7.14,.2,.34,.4,.68,.61,1.03,.33,.56,1.14,.81,1.7,.45,.56-.36,.8-1.1,.45-1.7h0Z"/><path class="cls-6" d="M70.39,6.94c1.36,.78,2.38,1.51,3.44,2.44,.55,.48,1.07,.99,1.57,1.52,.25,.27,.49,.54,.73,.81,.12,.15,.25,.29,.37,.44,.05,.06,.1,.12,.14,.18,0,.01,.24,.3,.09,.11,.39,.51,1.09,.84,1.7,.45,.51-.33,.87-1.15,.45-1.7-1.98-2.58-4.41-4.77-7.24-6.4-.56-.33-1.39-.15-1.7,.45-.31,.59-.16,1.36,.45,1.7h0Z"/><path class="cls-6" d="M82.06,16.06c.58,.68,1.01,1.26,1.54,2.13,.49,.78,.91,1.6,1.28,2.45,.05,.12-.04-.1,.04,.1,.05,.11,.09,.23,.14,.34,.08,.21,.16,.42,.23,.63,.16,.44,.29,.9,.42,1.35,.12,.43,.22,.87,.31,1.32,.05,.24,.09,.48,.13,.73,0,.05,.06,.4,.02,.16,.02,.12,.03,.24,.04,.37,.07,.64,.52,1.28,1.24,1.24,.61-.03,1.32-.55,1.24-1.24-.47-4.19-2.15-8.11-4.88-11.33-.42-.5-1.33-.47-1.76,0-.49,.53-.45,1.23,0,1.76h0Z"/><path class="cls-6" d="M63.42,59.9c-.74-.47-1.17-1.13-1.36-2.03-.01-.05-.02-.11-.03-.16-.02-.12-.02-.1,0,.08-.03-.01,.02-.15,0-.17,.14,.09-.25,.54-.36,.6-.28,.17-.18,.06-.05,.04-.11,.02-.26,.02-.06,.01,.16,0,.33-.02,.49-.02,2.41-.12,4.82-.34,7.24-.27-.34-.45-.69-.9-1.03-1.35-.1,.67-.27,1.42-.52,1.99-.14,.32-.31,.64-.51,.93-.01,.02-.12,.16-.09,.12,.04-.04-.08,.09-.1,.11-.11,.13-.24,.25-.37,.35,.08-.07-.03,.02-.05,.04-.06,.04-.13,.08-.19,.12-.06,.04-.13,.07-.2,.1,.1-.04-.02,0-.06,.01-.33,.09-.53,.11-.91,.08-.59-.04-1.3-.25-1.84-.58-1.18-.7-2.26,1.14-1.08,1.84,1.58,.94,3.87,1.32,5.45,.2,1.53-1.08,2.25-2.96,2.53-4.75,.11-.69-.27-1.33-1.03-1.35-1.45-.04-2.9,.01-4.35,.09-.75,.04-1.5,.09-2.25,.14-.48,.03-.97,.03-1.45,.1-.49,.07-.93,.29-1.17,.74-.27,.49-.18,1.05-.06,1.57,.3,1.37,1.15,2.51,2.33,3.26,.49,.31,1.18,.1,1.46-.38,.3-.52,.1-1.15-.38-1.46Z"/></g></g></g><g><path class="cls-3" d="M131.55,113.48c.23-3.44,.32-6.88,.26-10.32-.59,.01-1.17-.32-1.29-1.07-.65-4.27,.72-9.84-1.93-13.56-.5-.23-.91-.73-.91-1.33v-.4c0-.32,.11-.57,.28-.75,.06-.25,.11-.51,.16-.76-.22-.15-.45-.27-.7-.36-.06-.02-.13-.04-.19-.07-.14-1.86-.35-3.7-.69-5.53,.54-3.06,.67-5.6-1.24-8.49-.02-.04,.31-.88,.29-.92-.03-.07,.04-1.46,0-1.53-.13-1.97-2.85-3.26-3.67-4.91-.8-1.61-2.07-3.48-3.63-4.36-.73-.41-1.5-.56-2.25-.5,.22-5.04,.44-10.08,.65-15.13,.09-2.08-1.42-3.1-2.97-3.09-.08,.12-.17,.24-.25,.37-.96,1.91-1.64,3.94-2.12,6.03,0,.03,0,.05,0,.08-.56,4.88-.18,9.82-.99,14.68-.06,.38-.37,.52-.66,.48,0,.18-.02,.36-.02,.53-1.13,.79-2.04,2.04-2.82,3.09-1.28,1.71-2.61,3.7-3.19,5.8-.68,2.44,.23,4.55,1.61,6.49,.88,1.24,.53,3.29,1.45,4.49-.65,.82,.27,1.08,.51,2.08,.26,1.04,.74,1.97,1.38,2.74-.54,.13-1.04,.39-1.48,.85-.32,.34-.56,.72-.74,1.13-.79,.5-1.37,1.36-1.42,2.59-.04,1.08-.07,2.16-.09,3.25-.06,.22-.09,.46-.1,.72-.26,5.59-.35,11.19-.29,16.79-.39,.5-.63,1.16-.61,1.99,.12,4.91,.24,9.81,.36,14.72-.04,.21-.07,.44-.07,.68-.05,4.62,0,9.24,.17,13.86,0,.21,.01,.43,.02,.65-.66,4.24-.69,8.61,1.48,12.33,.04,.11,.08,.22,.13,.32,1.29,2.87,3.92,4.97,6.86,5.76,1.55,.55,3.15,.62,4.66,.3,1.49,.03,3.04-.4,4.47-1.39,.24-.16,.47-.34,.69-.52,2.9-1.71,5.2-4.41,6.62-7.56,1.86-4.11,2.36-8.54,2.26-13.06,.8-9.06,.8-18.15,.01-27.21Z"/><path class="cls-7" d="M103.08,147.29c.27,4.1,.93,8.48,3.15,12.02,2.2,3.51,6.03,5.73,10.23,5.29,4.48-.47,8.43-3.32,10.77-7.11,2.69-4.37,3.41-9.59,3.88-14.6,.56-5.98,.85-11.99,.88-17.99,.06-11.81-.93-23.6-2.86-35.25-.16-.94-1.2-1.25-1.99-1.13-.26,.04-.52,.07-.78,.11-.29-.13-.63-.18-1.02-.1-.76,.16-1.53,.3-2.3,.42-1.87,.11-3.75,.11-5.62,.01-.63-.29-1.27-.56-1.91-.82-.96-.39-1.81,.4-2,1.29-1.74-.09-3.47-.29-5.19-.59-.78-.14-1.85,.21-1.99,1.13-2.13,13.23-3.34,26.6-3.53,40-.09,5.76-.08,11.56,.3,17.31Zm6.21-53.58c-.1,.02-.2,.06-.3,.11,.02-.11,.03-.21,.05-.32,.08,.07,.16,.15,.26,.21Zm.6,65.12s.06-.03,.08-.04c.35,.45,.75,.87,1.2,1.25-.47-.35-.9-.76-1.28-1.2Z"/><g><path class="cls-6" d="M118.4,58.4c-.05-1.89-.06-3.78-.05-5.67,0-.97,.02-1.94,.03-2.91,.01-.79,0-1.59,.08-2.39,.04-.33-.03,.18,0-.02,.01-.08,.03-.17,.04-.26,.03-.16,.05-.31,.08-.46,.06-.35,.13-.69,.18-1.04,.12-.73,.23-1.48,.18-2.22-.1-1.5-.83-3.1-2.25-3.79-2.63-1.27-4.27,1.79-4.94,3.84-.41,1.28-.55,2.65-.66,3.98-.16,1.87-.17,3.74-.27,5.61-.05,1.02-.13,2.04-.24,3.05-.11,1.07-.21,1.81-.38,2.86-.34,2.02-.8,4.02-1.43,5.97-.2,.62,.23,1.39,.87,1.53,.68,.16,1.32-.21,1.53-.87,1.08-3.35,1.66-6.83,1.98-10.33,.16-1.74,.2-3.49,.27-5.24,.06-1.62,.13-3.3,.42-4.77,.08-.4,.19-.79,.31-1.17,.07-.22,.15-.44,.23-.65,.1-.27-.1,.23,.04-.1,.05-.12,.11-.24,.17-.36,.1-.21,.22-.41,.34-.6,.05-.07,.1-.19,.17-.24-.2,.14-.13,.15-.04,.06,.04-.04,.07-.09,.11-.13,.04-.04,.23-.18,.24-.23,0,.02-.26,.17-.1,.08,.03-.02,.07-.05,.1-.07,.03-.02,.07-.04,.1-.06,.18-.11-.25,.06-.11,.05,.04,0,.1-.03,.14-.04,.19-.07-.32,.02-.1,.02,.29,0-.21-.08-.04-.02,.03,.01,.09,.03,.12,.03,.22,.04-.2-.13-.08-.04,0,0,.29,.17,.28,.17-.03,.03-.2-.18-.06-.04,.07,.07,.15,.14,.22,.21,.05,.05,.1,.11,.14,.16-.16-.18-.02-.02,.02,.04,.08,.13,.15,.26,.22,.39-.12-.23,.02,.05,.05,.16,.02,.08,.04,.16,.06,.23,0,.04,.06,.36,.04,.17-.03-.21,0,.12,0,.13,0,.07,0,.13,0,.2,0,.13,0,.27,0,.4,0,.17-.02,.34-.04,.51,0,.07-.02,.14-.02,.21-.03,.27,.04-.21-.01,.08-.1,.62-.22,1.24-.32,1.87-.28,1.84-.2,3.74-.21,5.59-.01,2.04,0,4.07,.04,6.11,.02,.65,.56,1.28,1.24,1.24,.66-.03,1.26-.55,1.24-1.24h0Z"/><path class="cls-6" d="M123.33,65.47c-.89-1.71-1.86-3.38-2.92-5-.52-.8-1.03-1.78-1.85-2.3-1.08-.69-2.21-.22-3.08,.55-.98,.87-2.04,1.66-3.05,2.49-1,.82-2,1.77-2.59,2.93-.37,.72-.59,1.49-.61,2.3-.02,.93,.25,1.81,.62,2.65,.26,.6,1.18,.78,1.7,.45,.62-.4,.73-1.06,.45-1.7,.1,.23,0,0-.02-.05-.03-.08-.06-.16-.08-.24-.04-.12-.08-.25-.11-.38-.02-.08-.03-.15-.05-.23-.04-.18-.1-.11,0,.02-.06-.08-.02-.33-.02-.43,0-.12,.02-.25,.02-.38,0-.18-.07,.31,0,.05,.01-.05,.02-.11,.03-.16,.02-.1,.05-.21,.08-.31,.02-.06,.04-.13,.07-.19,.09-.26-.06,.09,0,0,.13-.2,.22-.43,.36-.64,.05-.08,.13-.25,.22-.31-.15,.1-.11,.14-.04,.05,.06-.07,.11-.13,.17-.2,.37-.43,.79-.82,1.22-1.19,.88-.76,1.82-1.43,2.7-2.18,.21-.18,.41-.36,.62-.54,.07-.07,.14-.13,.22-.19,.14-.12-.22,.08,.08-.05,.1-.04,.15-.02,.01-.01-.03,0-.39-.02-.13,0-.04-.01-.08-.03-.11-.04,.03,.02,.06,.04,.09,.05-.03-.02-.06-.04-.09-.06,.04,.04,.08,.07,.11,.11,.04,.04,.19,.23,.05,.04,.04,.06,.08,.12,.12,.18,.26,.38,.51,.76,.76,1.14,1.05,1.62,2.02,3.29,2.92,5,.3,.58,1.16,.8,1.7,.45,.59-.38,.77-1.08,.45-1.7h0Z"/><path class="cls-6" d="M124.23,65.79c-1.27-.47-2.54-.93-3.81-1.4-.66-.24-1.32-.44-2.03-.22-.7,.22-1.25,.81-1.79,1.28l-6.06,5.19c-.5,.42-.47,1.33,0,1.76,.53,.49,1.23,.45,1.76,0,1.87-1.6,3.75-3.21,5.62-4.81,.22-.19,.44-.38,.66-.57,.11-.09,.22-.19,.33-.28,.07-.06,.13-.11,.2-.17-.08,.06-.09,.06-.02,.02,.17-.1,.16-.11-.02-.03-.03,0-.05,0-.08-.01,.08,.02,.17,.04,.25,.07,.27,.08,.52,.19,.79,.28,1.18,.43,2.36,.87,3.54,1.3,.61,.22,1.39-.25,1.53-.87,.16-.7-.21-1.29-.87-1.53h0Z"/><path class="cls-6" d="M124.12,72.34c-.58-.6-1.15-1.2-1.73-1.79-.62-.64-1.26-1.5-2.23-1.55-.96-.05-1.68,.68-2.38,1.24-.63,.5-1.25,1.01-1.85,1.53-1.2,1.03-2.36,2.11-3.48,3.24-.7,.7-1.22,1.53-.95,2.56,.2,.77,.71,1.5,1.14,2.16,.94,1.44,2.05,2.77,3.32,3.93,.48,.44,1.29,.51,1.76,0,.44-.48,.51-1.29,0-1.76-.47-.43-.92-.88-1.34-1.35-.45-.51-.76-.89-1.08-1.34-.37-.52-.72-1.06-1.04-1.61-.07-.13-.15-.26-.22-.39-.04-.07-.07-.17-.12-.23-.1-.12,.01-.03,0,0-.01,.03-.02,.13-.03,.17,.02-.1,.09-.13,0,0,0,0,.11-.16,.03-.06-.09,.12,.1-.11,.12-.13,.94-.99,1.96-1.92,2.98-2.83,.51-.46,1.04-.9,1.57-1.34,.25-.2,.5-.41,.75-.61,.14-.11,.29-.23,.43-.34,.05-.04,.11-.08,.16-.13,.07-.05,.07-.06,.02-.02,.04-.03,.07-.06,.11-.08,.06-.05,.14-.09,.2-.14,.2-.16-.07,0-.19,.02-.11-.03-.22-.06-.33-.09,.03,.02,.06,.04,.09,.06-.03-.02-.06-.04-.08-.06,.04,.04,.08,.08,.12,.11,.28,.28,.55,.57,.83,.86,.56,.58,1.12,1.16,1.68,1.74,.45,.47,1.31,.49,1.76,0,.46-.5,.48-1.26,0-1.76h0Z"/><path class="cls-6" d="M118.04,78.71c.2,.33,.38,.67,.55,1.01,.08,.16,.16,.33,.23,.5,.03,.06,.15,.34,.03,.07,.03,.08,.06,.15,.09,.23,.14,.36,.27,.72,.38,1.09,.05,.16,.1,.32,.14,.48,.02,.06,.03,.13,.04,.19,0-.04,0-.09-.01-.13,.01,.01,.02,.29,0,.29,0-.05,0-.09,.01-.14-.03,.1-.03,.09,.02-.01,.12-.18-.03,.02-.05,.07-.05,.13,.18-.21,.04-.07-.16,.16,.24-.13,.03-.02-.04,.02-.16,.07-.19,.1,.07-.07,.27-.08,.06-.04-.05,0-.31,.07-.08,.03,.21-.04,0,0-.05,0-.04,0-.07,0-.11,0-.09,0-.05,0,.13,.02-.04-.03-.22-.05-.27-.07-.04-.01-.27-.12-.11-.04,.17,.09-.07-.04-.1-.06-.33-.18-.64-.4-.94-.63-.52-.39-1.41-.1-1.7,.45-.34,.65-.11,1.29,.45,1.7,.78,.58,1.69,1.15,2.71,1.11,.96-.03,1.96-.53,2.37-1.43,.49-1.06,.1-2.18-.28-3.22-.35-.95-.78-1.86-1.29-2.73-.33-.56-1.14-.81-1.7-.45-.56,.36-.8,1.1-.45,1.7h0Z"/><path class="cls-6" d="M108.51,70.39c-.38,.05,.26,.03,.04,.01-.16-.01,.21,.06,.25,.07-.2-.06,.02,0,.1,.06,.02,.01,.32,.21,.11,.06,.1,.08,.2,.17,.29,.27,.04,.04,.08,.08,.11,.13-.08-.11-.07-.1,.01,.02,.06,.1,.13,.2,.18,.3,0,0,.17,.35,.09,.16,.45,1.03,.52,2.24,.68,3.34,.09,.61,.18,1.22,.26,1.83,.06,.45-.01-.23,.01,.17,.02,.26,0,.01,.05-.07,.28-.24,.33-.3,.15-.19,.13-.05,.15-.07,.06-.04-.09,.02-.07,.02,.07,0-.07,0-.14,.01-.21,.02-.6,.03-1.21,.01-1.8-.04-.14-.01-.28-.03-.41-.05,.17,.02-.23-.04-.22-.04-.32-.05-.64-.12-.95-.2-.63-.15-1.38,.2-1.53,.87-.15,.64,.19,1.37,.87,1.53,1.88,.46,6.74,1.34,6.4-1.97-.13-1.24-.35-2.48-.53-3.72-.16-1.1-.39-2.28-1.05-3.21-.39-.55-.88-1.06-1.49-1.37-.72-.37-1.42-.45-2.21-.34-.65,.09-1.06,.95-.87,1.53,.23,.71,.84,.97,1.53,.87h0Z"/><path class="cls-6" d="M107.62,63.37c-1.23,1.65-2.24,3.44-3.37,5.15-.55,.84-1.13,1.61-1.5,2.55-.35,.88-.52,1.84-.55,2.79-.07,1.92,.48,3.74,1.25,5.47,.76,1.71,1.76,3.3,2.89,4.78,1.28,1.69,2.72,3.26,4.38,4.58,.51,.4,1.27,.53,1.76,0,.41-.45,.54-1.33,0-1.76-1.36-1.08-2.58-2.34-3.68-3.69-.07-.08-.13-.16-.2-.25,0,0-.25-.32-.12-.15-.13-.17-.25-.34-.38-.51-.27-.38-.54-.76-.79-1.15-.5-.76-.96-1.55-1.36-2.37-.09-.18-.18-.36-.26-.54-.04-.09-.08-.18-.12-.27-.02-.05-.12-.29-.04-.08-.16-.39-.31-.79-.44-1.19-.13-.41-.23-.82-.31-1.24-.01-.08-.03-.15-.04-.23-.06-.38,.01,.25-.02-.13-.02-.23-.04-.47-.05-.7-.01-.39,0-.77,.04-1.16,.03-.37-.06,.24,.02-.13,.02-.09,.03-.19,.05-.28,.05-.22,.11-.44,.17-.66,.03-.09,.06-.18,.09-.27,.01-.03,.16-.36,.05-.12,.08-.17,.16-.34,.26-.5,.23-.4,.51-.76,.77-1.14,1.24-1.83,2.31-3.77,3.63-5.54,.39-.52,.1-1.41-.45-1.7-.65-.34-1.29-.11-1.7,.45h0Z"/><path class="cls-6" d="M124.32,70.28c.24,1.5,.47,2.99,.71,4.49,.12,.76,.24,1.52,.36,2.28,.02,.14,.04,.28,.06,.42,.01,.09,.03,.19,.04,.28-.01-.1,0-.07,.01,.09,.05,.37,.09,.75,.12,1.12,.26,2.93,.04,5.69-.63,8.46-.15,.63,.2,1.38,.87,1.53,.64,.15,1.37-.19,1.53-.87,.73-2.97,.99-6.07,.72-9.12-.14-1.58-.41-3.14-.66-4.7-.24-1.54-.49-3.09-.73-4.63-.1-.65-.94-1.06-1.53-.87-.7,.23-.98,.84-.87,1.53h0Z"/><path class="cls-6" d="M103.11,150.55c.22,3.74,.66,7.82,3.08,10.84,2.36,2.96,6.43,4.15,10.09,4.05,2.92-.08,5.9-.84,8.38-2.42,2.18-1.39,3.94-3.35,5.23-5.59,2.6-4.54,3.43-9.93,3.74-15.08,.18-3.01,.15-6.04,.09-9.05-.09-4.63-.33-9.25-.64-13.87-.62-9.22-1.55-18.42-2.26-27.64-.09-1.13-.17-2.26-.25-3.39-.05-.66-.53-1.26-1.24-1.24-4.95,.13-9.9,.1-14.85-.02-2.53-.06-5.05-.14-7.58-.2-.89-.02-1.9-.24-2.47,.62-.1,.16-.16,.35-.21,.53-.29,1.08-.31,2.29-.39,3.4-.14,1.98-.24,3.97-.32,5.96-.11,2.69-.2,5.39-.28,8.08-.09,3.11-.16,6.23-.21,9.34-.06,3.28-.11,6.56-.14,9.84-.03,3.18-.05,6.36-.05,9.55,0,2.82,.01,5.64,.05,8.46,.03,2.2,.08,4.4,.17,6.59,.02,.41,.04,.83,.06,1.24,.04,.65,.55,1.28,1.24,1.24,.64-.03,1.28-.55,1.24-1.24-.11-1.98-.16-3.97-.2-5.95-.05-2.66-.07-5.32-.08-7.98,0-3.07,0-6.14,.02-9.21,.02-3.25,.06-6.5,.11-9.75,.05-3.16,.11-6.32,.19-9.48,.07-2.81,.15-5.63,.26-8.44,.08-2.2,.17-4.41,.3-6.61,.05-.8,.1-1.6,.17-2.41,.03-.31,.05-.63,.09-.94,.01-.13,.03-.25,.04-.38,0-.06,.01-.12,.02-.18,.03-.25-.06,.38-.02,.14,.03-.17,.05-.35,.09-.52,.01-.06,.03-.11,.04-.17,.06-.25-.1,.21-.08,.17,.08-.14-.19,.24-.17,.21-.08,.08-.35,.25-.52,.3-.06,.02-.57,.04-.17,.05,.15,0,.3,0,.45,.01,.37,0,.74,.02,1.1,.03,1.28,.03,2.55,.07,3.83,.1,4.78,.13,9.56,.23,14.34,.18,1.3-.02,2.6-.04,3.9-.07l-1.24-1.24c.63,8.99,1.53,17.97,2.21,26.96,.34,4.49,.63,8.99,.8,13.49,.14,3.68,.24,7.37,.14,11.05-.03,1.18-.09,2.36-.18,3.54-.05,.62-.1,1.23-.17,1.85-.03,.3-.07,.61-.11,.91-.02,.18,.04-.05,.01-.08,.02,.02-.03,.22-.03,.25-.02,.17-.05,.33-.07,.5-.38,2.47-.97,4.9-1.91,7.22-.05,.13,.03,.07,.03-.07,0,.06-.07,.17-.1,.22-.05,.12-.11,.25-.17,.37-.13,.29-.28,.58-.42,.87-.27,.52-.56,1.03-.88,1.52-.16,.24-.32,.48-.49,.72-.05,.07-.23,.23-.24,.32,.03-.04,.07-.08,.1-.13-.03,.04-.06,.08-.1,.12-.07,.08-.13,.16-.2,.24-.37,.44-.76,.87-1.18,1.26-.21,.2-.43,.39-.65,.58-.04,.03-.3,.26-.31,.25,0,0,.23-.18,0,0-.06,.05-.13,.09-.19,.14-.51,.36-1.04,.69-1.6,.97-.25,.13-.5,.25-.76,.36-.09,.04-.27,.18-.02,0-.06,.04-.17,.07-.24,.1-.16,.06-.32,.12-.49,.18-.63,.22-1.27,.39-1.92,.53-.34,.07-.69,.13-1.03,.18-.33,.05,.28-.03-.06,0-.07,0-.13,.02-.2,.02-.23,.03-.47,.05-.7,.07-.86,.06-1.72,.05-2.57-.03-.12-.01-.23-.03-.35-.04,.23,.03,.02,0-.02,0-.23-.04-.46-.08-.69-.13-.42-.09-.83-.19-1.24-.32-.22-.07-.44-.15-.66-.23-.07-.03-.14-.06-.21-.08-.35-.14,.21,.11-.12-.05-.41-.2-.81-.4-1.2-.64-.16-.1-.31-.2-.47-.31-.02-.02-.32-.24-.11-.07-.06-.05-.12-.09-.17-.14-.34-.28-.66-.59-.95-.93-.08-.1-.17-.19-.24-.29,.11,.14-.02-.03-.03-.05-.14-.21-.28-.41-.41-.63-.11-.18-.21-.36-.3-.54-.06-.11-.11-.22-.16-.33-.01-.03-.15-.35-.07-.16-.37-.88-.62-1.81-.82-2.74-.09-.41-.16-.81-.23-1.22-.04-.24-.08-.49-.12-.73,0-.04-.04-.25,0-.02,.04,.25,0-.08-.01-.13-.09-.84-.14-1.69-.19-2.53-.04-.65-.55-1.28-1.24-1.24-.64,.03-1.29,.55-1.24,1.24Z"/></g></g></svg>
