<?xml version="1.0" encoding="utf-8"?>
<!-- Generator: Adobe Illustrator 26.4.1, SVG Export Plug-In . SVG Version: 6.00 Build 0)  -->
<svg version="1.1" id="_x32_" xmlns="http://www.w3.org/2000/svg" xmlns:xlink="http://www.w3.org/1999/xlink" x="0px" y="0px"
	 viewBox="0 0 120 120" style="enable-background:new 0 0 120 120;" xml:space="preserve">
<style type="text/css">
	.st0{fill:#FFFFFF;}
</style>
<g>
	<path class="st0" d="M0,11.2v97.5C0,115,5,120,11.2,120h97.5c6.2,0,11.2-5,11.2-11.2V11.2C120,5,115,0,108.8,0H11.2C5,0,0,5,0,11.2
		z M20.2,12.7c0,2.5-2,4.5-4.5,4.5s-4.5-2-4.5-4.5s2-4.5,4.5-4.5S20.2,10.2,20.2,12.7z M36.8,12.7c0,2.5-2,4.5-4.5,4.5
		s-4.5-2-4.5-4.5s2-4.5,4.5-4.5S36.8,10.2,36.8,12.7z M53.3,12.7c0,2.5-2,4.5-4.5,4.5s-4.5-2-4.5-4.5s2-4.5,4.5-4.5
		S53.3,10.2,53.3,12.7z M9.4,24.4h101.2v84.4c0,1-0.8,1.9-1.9,1.9H11.2c-1,0-1.9-0.8-1.9-1.9V24.4z"/>
	<rect x="61.9" y="45" class="st0" width="35.6" height="7.5"/>
	<rect x="20.6" y="82.5" class="st0" width="76.9" height="7.5"/>
	<rect x="20.6" y="45" class="st0" width="28.1" height="28.1"/>
	<polygon class="st0" points="66.3,71.2 61.9,71.2 61.9,63.8 97.5,63.8 97.5,71.2 70.1,71.2 	"/>
</g>
</svg>
