<?xml version="1.0" encoding="utf-8"?>
<!-- Generator: Adobe Illustrator 27.1.1, SVG Export Plug-In . SVG Version: 6.00 Build 0)  -->
<svg version="1.1" xmlns="http://www.w3.org/2000/svg" xmlns:xlink="http://www.w3.org/1999/xlink" x="0px" y="0px"
	 viewBox="0 0 32 32" style="enable-background:new 0 0 32 32;" xml:space="preserve">
<style type="text/css">
	.st0{display:none;}
	.st1{display:inline;fill:#00FFFF;}
	.st2{display:inline;}
	
		.st3{fill-rule:evenodd;clip-rule:evenodd;fill:#FFFFFF;stroke:#E50012;stroke-width:0.6089;stroke-linecap:round;stroke-linejoin:round;stroke-miterlimit:10;}
	.st4{fill:none;stroke:#E50012;stroke-width:0.8158;stroke-linecap:round;stroke-linejoin:round;stroke-miterlimit:10;}
	.st5{fill-rule:evenodd;clip-rule:evenodd;fill:#FFFFFF;stroke:#44BBFF;stroke-miterlimit:10;}
	.st6{fill:none;stroke:#44BBFF;stroke-miterlimit:10;}
	.st7{display:inline;fill:#44BBFF;}
	.st8{display:inline;fill:none;stroke:#FFFFFF;stroke-width:2;stroke-miterlimit:10;}
	.st9{fill:none;stroke:#888888;stroke-width:2;stroke-miterlimit:10;}
</style>
<g id="レイヤー_2" class="st0">
	<rect class="st1" width="32" height="32"/>
</g>
<g id="レイヤー_1" class="st0">
	<g class="st2">
		<g>
			<g>
				<path class="st3" d="M16.2,6.3c1.4,0.5,1.6,2,1.2,3.1l-2.3,6.3c0.7-0.2,1.4-0.2,1.8,0.3l5.4,7.1c0,0-0.4,4.4-4.2,5.3l-0.6,1.4
					c0,0-0.4,1-1.5,0.9c-1.5-0.1-3.8-0.6-6.1-2.3c-0.9-0.7-0.5-1.9-0.5-1.9l0.3-0.9c-0.8-1-1.9-3.1-1.1-5.3l4.7-12.6
					C13.6,6.7,14.8,5.7,16.2,6.3z"/>
				<path class="st3" d="M22.6,22.7c0,0-0.7,6-5.8,5.7"/>
			</g>
			<path class="st3" d="M13.8,21.3c0,0,2,1,1.5,3.6"/>
		</g>
		<path class="st3" d="M19.5,21.9c-0.3,0.8,0,1.7,1,2.1l0.3,0.1c1,0.4,2.1,0,2.6-1.2l1.2-3c0.5-1.2-0.3-2.4-1.4-2.8l0,0
			c-1-0.4-1.8,0-2.1,0.8L19.5,21.9z"/>
		<path class="st3" d="M16.8,21.1c-0.4,0.9,0.1,1.9,1.1,2.3l0.1,0.1c1,0.4,2.1,0,2.5-0.9l1.7-4.4c0.4-0.9-0.4-1.9-1.4-2.3l0,0
			c-1-0.4-1.9,0-2.3,0.9L16.8,21.1z"/>
		<path class="st3" d="M13.6,19.8c-0.4,0.9,0,2,1,2.4l0.2,0.1c1.1,0.4,2.1,0,2.6-1.5l1.6-4.2c0.4-0.9-0.3-1.9-1.4-2.4l0,0
			c-1.1-0.4-2,0-2.3,0.9L13.6,19.8z"/>
		<path class="st3" d="M10.8,26.5c0,0-5.1-3.4-1.4-7.6c0,0,4.6-5.3,5.9-3.3c1.2,1.8-1.3,4.3-3.6,6"/>
	</g>
	<g class="st2">
		<g>
			<g>
				<g>
					<line class="st4" x1="22.3" y1="4.9" x2="19.2" y2="6.7"/>
				</g>
				<g>
					<line class="st4" x1="19.4" y1="2" x2="17.6" y2="5.2"/>
				</g>
				<g>
					<line class="st4" x1="15.4" y1="1" x2="15.5" y2="4.6"/>
				</g>
				<g>
					<line class="st4" x1="11.5" y1="2.1" x2="13.3" y2="5.2"/>
				</g>
			</g>
		</g>
	</g>
</g>
<g id="ico_x5F_point" class="st0">
	<g class="st2">
		<g>
			<g>
				<path class="st5" d="M16.2,6.3c1.4,0.5,1.6,2,1.2,3.1l-2.3,6.3c0.7-0.2,1.4-0.2,1.8,0.3l5.4,7.1c0,0-0.4,4.4-4.2,5.3l-0.6,1.4
					c0,0-0.4,1-1.5,0.9c-1.5-0.1-3.8-0.6-6.1-2.3c-0.9-0.7-0.5-1.9-0.5-1.9l0.3-0.9c-0.8-1-1.9-3.1-1.1-5.3l4.7-12.6
					C13.6,6.7,14.8,5.7,16.2,6.3z"/>
				<path class="st5" d="M22.6,22.7c0,0-0.7,6-5.8,5.7"/>
			</g>
			<path class="st5" d="M13.8,21.3c0,0,2,1,1.5,3.6"/>
		</g>
		<path class="st5" d="M19.5,21.9c-0.3,0.8,0,1.7,1,2.1l0.3,0.1c1,0.4,2.1,0,2.6-1.2l1.2-3c0.5-1.2-0.3-2.4-1.4-2.8l0,0
			c-1-0.4-1.8,0-2.1,0.8L19.5,21.9z"/>
		<path class="st5" d="M16.8,21.1c-0.4,0.9,0.1,1.9,1.1,2.3l0.1,0.1c1,0.4,2.1,0,2.5-0.9l1.7-4.4c0.4-0.9-0.4-1.9-1.4-2.3l0,0
			c-1-0.4-1.9,0-2.3,0.9L16.8,21.1z"/>
		<path class="st5" d="M13.6,19.8c-0.4,0.9,0,2,1,2.4l0.2,0.1c1.1,0.4,2.1,0,2.6-1.5l1.6-4.2c0.4-0.9-0.3-1.9-1.4-2.4l0,0
			c-1.1-0.4-2,0-2.3,0.9L13.6,19.8z"/>
		<path class="st5" d="M10.8,26.5c0,0-5.1-3.4-1.4-7.6c0,0,4.6-5.3,5.9-3.3c1.2,1.8-1.3,4.3-3.6,6"/>
	</g>
	<g class="st2">
		<g>
			<g>
				<g>
					<line class="st6" x1="22.3" y1="4.9" x2="19.2" y2="6.7"/>
				</g>
				<g>
					<line class="st6" x1="19.4" y1="2" x2="17.6" y2="5.2"/>
				</g>
				<g>
					<line class="st6" x1="15.4" y1="1" x2="15.5" y2="4.6"/>
				</g>
				<g>
					<line class="st6" x1="11.5" y1="2.1" x2="13.3" y2="5.2"/>
				</g>
			</g>
		</g>
	</g>
</g>
<g id="ico_x5F_plus_x5F_minus" class="st0">
	<circle class="st7" cx="16" cy="16" r="15"/>
	<line class="st8" x1="4" y1="16" x2="28" y2="16"/>
	<line class="st8" x1="16" y1="28" x2="16" y2="4"/>
</g>
<g id="ico_x5F_plus_x5F_minus_x5F_gray">
	<line class="st9" x1="4" y1="16" x2="28" y2="16"/>
	<line class="st9" x1="16" y1="28" x2="16" y2="4"/>
</g>
</svg>
