<?xml version="1.0" encoding="UTF-8" standalone="no"?>
<svg
   id="ico_payment"
   viewBox="0 0 295.26624 204.01663"
   version="1.1"
   sodipodi:docname="ico_man_payment.svg"
   width="295.26624"
   height="204.01663"
   inkscape:version="1.2 (dc2aeda, 2022-05-15)"
   xmlns:inkscape="http://www.inkscape.org/namespaces/inkscape"
   xmlns:sodipodi="http://sodipodi.sourceforge.net/DTD/sodipodi-0.dtd"
   xmlns="http://www.w3.org/2000/svg"
   xmlns:svg="http://www.w3.org/2000/svg">
  <sodipodi:namedview
     id="namedview613"
     pagecolor="#ffffff"
     bordercolor="#000000"
     borderopacity="0.25"
     inkscape:showpageshadow="2"
     inkscape:pageopacity="0.0"
     inkscape:pagecheckerboard="0"
     inkscape:deskcolor="#d1d1d1"
     showgrid="false"
     inkscape:zoom="1.890307"
     inkscape:cx="148.12409"
     inkscape:cy="151.56268"
     inkscape:window-width="1390"
     inkscape:window-height="1027"
     inkscape:window-x="0"
     inkscape:window-y="25"
     inkscape:window-maximized="0"
     inkscape:current-layer="ico_payment" />
  <defs
     id="defs584">
    <style
       id="style582">.cls-1{fill:#c9d6dc;}.cls-2,.cls-3{fill:#1b1464;}.cls-4{fill:#269ac2;}.cls-3{stroke:#1b1464;stroke-miterlimit:10;stroke-width:.52px;}</style>
  </defs>
  <g
     id="g600"
     transform="translate(-2.3099384,-65.989947)">
    <g
       id="g590">
      <path
         class="cls-2"
         d="m 291.97,219.56 c -2.53,0.01 -5.06,0.02 -7.59,0.04 -6.82,0.03 -13.64,0.07 -20.46,0.1 -10.11,0.05 -20.22,0.1 -30.34,0.15 -12.34,0.06 -24.68,0.12 -37.02,0.18 l -40.55,0.2 c -13.64,0.07 -27.29,0.13 -40.93,0.2 -12.72,0.06 -25.44,0.12 -38.17,0.19 -10.75,0.05 -21.5,0.11 -32.26,0.16 -7.73,0.04 -15.46,0.08 -23.2,0.11 -3.66,0.02 -7.33,-0.06 -10.99,0.05 -0.16,0 -0.31,0 -0.47,0 1.86,2.75 3.73,5.5 5.59,8.25 -0.02,-5.08 -0.04,-10.15 -0.06,-15.23 -0.04,-12.25 -0.09,-24.5 -0.13,-36.76 -0.05,-14.77 -0.11,-29.54 -0.16,-44.31 -0.05,-12.77 -0.09,-25.54 -0.14,-38.32 -0.02,-6.21 0.18,-12.49 -0.07,-18.69 0,-0.09 0,-0.17 0,-0.26 -2.37,2.16 -4.75,4.32 -7.12,6.48 2.53,-0.01 5.06,-0.02 7.59,-0.04 6.82,-0.03 13.64,-0.07 20.46,-0.1 10.11,-0.05 20.22,-0.1 30.34,-0.15 12.34,-0.06 24.68,-0.12 37.02,-0.18 13.52,-0.07 27.03,-0.13 40.55,-0.2 13.64,-0.07 27.29,-0.13 40.93,-0.2 12.72,-0.06 25.44,-0.12 38.17,-0.19 10.75,-0.05 21.5,-0.11 32.26,-0.16 7.73,-0.04 15.46,-0.08 23.2,-0.11 3.66,-0.02 7.33,0.06 10.99,-0.05 0.16,0 0.31,0 0.47,0 -1.86,-2.75 -3.73,-5.5 -5.59,-8.25 0.02,5.08 0.04,10.15 0.06,15.23 0.04,12.25 0.09,24.5 0.13,36.76 0.05,14.77 0.11,29.54 0.16,44.31 0.05,12.77 0.09,25.54 0.14,38.32 0.02,6.23 0.04,12.46 0.07,18.69 0,0.09 0,0.17 0,0.26 0,2.06 0.18,3.78 1.32,5.47 0.97,1.43 2.68,2.64 4.27,2.78 3.11,0.27 7.14,-2.32 7.12,-6.48 -0.02,-5.08 -0.04,-10.15 -0.06,-15.23 -0.04,-12.25 -0.09,-24.5 -0.13,-36.76 -0.05,-14.77 -0.11,-29.54 -0.16,-44.31 -0.05,-12.77 -0.09,-25.54 -0.14,-38.32 -0.02,-6.23 -0.04,-12.46 -0.07,-18.69 0,-0.09 0,-0.17 0,-0.26 0,-1.96 -0.15,-3.89 -1.32,-5.47 -1.03,-1.39 -2.62,-2.79 -4.27,-2.78 -2.53,0.01 -5.06,0.02 -7.59,0.04 -6.82,0.03 -13.64,0.07 -20.46,0.1 -10.11,0.05 -20.22,0.1 -30.34,0.15 -12.34,0.06 -24.68,0.12 -37.02,0.18 -13.52,0.07 -27.03,0.13 -40.55,0.2 -13.64,0.07 -27.29,0.13 -40.93,0.2 -12.72,0.06 -25.44,0.12 -38.17,0.19 -10.75,0.05 -21.5,0.11 -32.26,0.16 -7.73,0.04 -15.46,0.08 -23.2,0.11 -3.66,0.02 -7.33,0.03 -10.99,0.05 -0.16,0 -0.31,0 -0.47,0 -1.7,0 -3.36,0.18 -4.72,1.53 -1.2,1.19 -2.41,3.03 -2.4,4.95 0.02,5.08 0.04,10.15 0.06,15.23 0.04,12.25 0.09,24.5 0.13,36.76 0.05,14.77 0.11,29.54 0.16,44.31 0.05,12.77 0.09,25.54 0.14,38.32 0.02,6.23 0.04,12.46 0.07,18.69 0,0.09 0,0.17 0,0.26 0,1.96 0.15,3.89 1.32,5.47 1.03,1.39 2.62,2.79 4.27,2.78 2.53,-0.01 5.06,-0.02 7.59,-0.04 6.82,-0.03 13.64,-0.07 20.46,-0.1 10.11,-0.05 20.22,-0.1 30.34,-0.15 12.34,-0.06 24.68,-0.12 37.02,-0.18 13.52,-0.07 27.03,-0.13 40.55,-0.2 13.64,-0.07 27.29,-0.13 40.93,-0.2 12.72,-0.06 25.44,-0.12 38.17,-0.19 10.75,-0.05 21.5,-0.11 32.26,-0.16 7.73,-0.04 15.46,-0.08 23.2,-0.11 3.66,-0.02 7.33,-0.03 10.99,-0.05 0.16,0 0.31,0 0.47,0 1.78,0 3.27,-0.21 4.72,-1.53 1.24,-1.12 2.28,-3.1 2.4,-4.95 0.23,-3.6 -2.01,-8.27 -5.59,-8.25 z"
         id="path586" />
      <polygon
         class="cls-1"
         points="8.69,74.74 290.65,73.37 291.21,226.92 9.25,228.3 "
         id="polygon588" />
    </g>
    <g
       id="g596">
      <polygon
         class="cls-4"
         points="24.79,93.32 274.67,92.1 275.1,208.35 25.21,209.57 "
         id="polygon592" />
      <path
         class="cls-2"
         d="m 275.46,204.85 c -2.24,0.01 -4.48,0.02 -6.72,0.03 -6.04,0.03 -12.08,0.06 -18.11,0.09 -8.99,0.04 -17.98,0.09 -26.97,0.13 -10.93,0.05 -21.86,0.11 -32.8,0.16 -11.97,0.06 -23.95,0.12 -35.92,0.18 -12.09,0.06 -24.17,0.12 -36.26,0.18 -11.27,0.06 -22.54,0.11 -33.81,0.17 -9.55,0.05 -19.11,0.09 -28.66,0.14 -6.82,0.03 -13.64,0.07 -20.47,0.1 -3.24,0.02 -6.52,-0.13 -9.76,0.05 -0.14,0 -0.27,0 -0.41,0 0.89,1.31 1.77,2.61 2.66,3.92 -0.01,-3.85 -0.03,-7.7 -0.04,-11.56 -0.03,-9.25 -0.07,-18.5 -0.1,-27.75 -0.04,-11.19 -0.08,-22.39 -0.12,-33.58 -0.04,-9.68 -0.07,-19.36 -0.11,-29.04 -0.01,-3.19 -0.02,-6.38 -0.03,-9.57 0,-1.49 0.1,-3.06 -0.02,-4.55 0,-0.07 0,-0.13 0,-0.2 -1.13,1.03 -2.26,2.05 -3.38,3.08 2.24,-0.01 4.48,-0.02 6.72,-0.03 6.04,-0.03 12.08,-0.06 18.11,-0.09 8.99,-0.04 17.98,-0.09 26.97,-0.13 10.93,-0.05 21.86,-0.11 32.8,-0.16 11.97,-0.06 23.95,-0.12 35.92,-0.18 12.09,-0.06 24.17,-0.12 36.26,-0.18 11.27,-0.06 22.54,-0.11 33.81,-0.17 9.55,-0.05 19.11,-0.09 28.66,-0.14 6.82,-0.03 13.64,-0.07 20.47,-0.1 3.24,-0.02 6.52,0.13 9.76,-0.05 0.14,0 0.27,0 0.41,0 -0.89,-1.31 -1.77,-2.61 -2.66,-3.92 0.01,3.85 0.03,7.7 0.04,11.56 0.03,9.25 0.07,18.5 0.1,27.75 0.04,11.19 0.08,22.39 0.12,33.58 0.04,9.68 0.07,19.36 0.11,29.04 0.02,4.71 0.02,9.42 0.05,14.12 0,0.07 0,0.13 0,0.2 0,1.9 0.88,3.67 2.66,3.92 1.48,0.21 3.39,-1.16 3.38,-3.08 -0.01,-3.85 -0.03,-7.7 -0.04,-11.56 -0.03,-9.25 -0.07,-18.5 -0.1,-27.75 -0.04,-11.19 -0.08,-22.39 -0.12,-33.58 -0.04,-9.68 -0.07,-19.36 -0.11,-29.04 -0.02,-4.71 -0.02,-9.42 -0.05,-14.12 0,-0.07 0,-0.13 0,-0.2 0,-1.72 -0.86,-3.93 -2.66,-3.92 -2.24,0.01 -4.48,0.02 -6.72,0.03 -6.04,0.03 -12.08,0.06 -18.11,0.09 -8.99,0.04 -17.98,0.09 -26.97,0.13 -10.93,0.05 -21.86,0.11 -32.8,0.16 l -35.92,0.18 c -12.09,0.06 -24.17,0.12 -36.26,0.18 -11.27,0.06 -22.54,0.11 -33.81,0.17 -9.55,0.05 -19.11,0.09 -28.66,0.14 -6.82,0.03 -13.64,0.07 -20.47,0.1 -3.25,0.02 -6.51,0.03 -9.76,0.05 -0.14,0 -0.27,0 -0.41,0 -1.48,0 -3.39,0.99 -3.38,3.08 0.01,3.85 0.03,7.7 0.04,11.56 0.03,9.25 0.07,18.5 0.1,27.75 0.04,11.19 0.08,22.39 0.12,33.58 0.04,9.68 0.07,19.36 0.11,29.04 0.02,4.71 0.02,9.42 0.05,14.12 0,0.07 0,0.13 0,0.2 0,1.72 0.86,3.93 2.66,3.92 2.24,-0.01 4.48,-0.02 6.72,-0.03 6.04,-0.03 12.08,-0.06 18.11,-0.09 8.99,-0.04 17.98,-0.09 26.97,-0.13 10.93,-0.05 21.86,-0.11 32.8,-0.16 11.97,-0.06 23.95,-0.12 35.92,-0.18 12.09,-0.06 24.17,-0.12 36.26,-0.18 11.27,-0.06 22.54,-0.11 33.81,-0.17 9.55,-0.05 19.11,-0.09 28.66,-0.14 6.82,-0.03 13.64,-0.07 20.47,-0.1 3.25,-0.02 6.51,-0.03 9.76,-0.05 0.14,0 0.27,0 0.41,0 1.64,0 3.17,-1.02 3.38,-3.08 0.18,-1.71 -1,-3.93 -2.66,-3.92 z"
         id="path594" />
    </g>
    <path
       class="cls-3"
       d="m 174.66,167.2 -21.37,0.09 0.06,13.36 c 0,1.63 -1.5,2.96 -3.23,2.97 -1.83,0 -3.24,-1.31 -3.25,-2.94 l -0.06,-13.36 -21.48,0.09 c -1.84,0 -3.24,-1.31 -3.25,-3.05 0,-1.63 1.39,-3.07 3.23,-3.07 l 21.48,-0.09 -0.04,-8.47 -21.48,0.09 c -1.84,0 -3.24,-1.31 -3.25,-2.94 0,-1.73 1.39,-3.07 3.23,-3.07 l 17.92,-0.08 -18.99,-23.58 c -0.33,-0.51 -0.54,-1.22 -0.55,-1.83 0,-1.73 1.39,-3.07 3.12,-3.07 0.97,0 1.95,0.4 2.6,1.21 l 20.51,25.62 20.4,-25.79 c 0.64,-0.82 1.61,-1.23 2.59,-1.23 1.84,0 3.24,1.31 3.25,3.05 0,0.61 -0.21,1.33 -0.64,1.84 l -18.79,23.74 17.92,-0.08 c 1.84,0 3.24,1.31 3.25,3.05 0,1.63 -1.39,2.96 -3.23,2.97 l -21.37,0.09 0.04,8.47 21.37,-0.09 c 1.84,0 3.24,1.41 3.25,3.05 0,1.73 -1.39,3.07 -3.23,3.07 z"
       id="path598" />
  </g>
  <g
     id="g610"
     transform="translate(-2.3099384,-65.989947)">
    <g
       id="g606">
      <path
         class="cls-2"
         d="m 270.44,210.56 c -0.02,1.34 -0.09,2.68 -0.2,4.01 0.06,-0.64 0.11,-1.28 0.17,-1.92 -0.41,4.54 -1.39,9.01 -2.92,13.3 0.21,-0.59 0.43,-1.19 0.64,-1.78 -1.53,4.22 -3.59,8.24 -6.12,11.95 0.36,-0.52 0.72,-1.04 1.07,-1.56 -2.62,3.8 -5.71,7.26 -9.21,10.28 0.49,-0.42 0.97,-0.84 1.46,-1.25 -3.56,3.05 -7.51,5.63 -11.73,7.66 0.6,-0.29 1.2,-0.57 1.8,-0.86 -4.26,2.03 -8.78,3.48 -13.43,4.32 0.65,-0.12 1.31,-0.23 1.96,-0.35 -4.64,0.82 -9.38,1.03 -14.08,0.62 0.64,0.06 1.28,0.11 1.92,0.17 -4.54,-0.41 -9.01,-1.39 -13.3,-2.92 0.59,0.21 1.19,0.43 1.78,0.64 -4.22,-1.53 -8.24,-3.59 -11.95,-6.12 0.52,0.36 1.04,0.72 1.56,1.07 -3.81,-2.62 -7.26,-5.71 -10.28,-9.21 0.42,0.49 0.84,0.97 1.25,1.46 -3.05,-3.56 -5.63,-7.51 -7.66,-11.73 0.29,0.6 0.57,1.2 0.86,1.8 -2.03,-4.26 -3.48,-8.78 -4.32,-13.43 0.12,0.65 0.23,1.31 0.35,1.96 -0.82,-4.64 -1.03,-9.38 -0.62,-14.08 -0.06,0.64 -0.11,1.28 -0.17,1.92 0.41,-4.54 1.38,-9.01 2.92,-13.3 -0.21,0.59 -0.43,1.19 -0.64,1.78 1.53,-4.22 3.59,-8.24 6.12,-11.95 -0.36,0.52 -0.72,1.04 -1.07,1.56 2.62,-3.8 5.71,-7.26 9.21,-10.28 l -1.46,1.25 c 3.56,-3.05 7.51,-5.63 11.73,-7.66 -0.6,0.29 -1.2,0.57 -1.8,0.86 4.26,-2.03 8.78,-3.48 13.43,-4.32 -0.65,0.12 -1.31,0.23 -1.96,0.35 4.64,-0.82 9.38,-1.03 14.08,-0.62 -0.64,-0.06 -1.28,-0.11 -1.92,-0.17 4.54,0.41 9.01,1.39 13.3,2.92 -0.59,-0.21 -1.19,-0.43 -1.78,-0.64 4.22,1.53 8.24,3.59 11.95,6.12 -0.52,-0.36 -1.04,-0.72 -1.56,-1.07 3.8,2.62 7.26,5.71 10.28,9.21 -0.42,-0.49 -0.84,-0.97 -1.25,-1.46 3.05,3.56 5.63,7.51 7.66,11.73 -0.29,-0.6 -0.57,-1.2 -0.86,-1.8 2.03,4.26 3.48,8.78 4.32,13.43 -0.12,-0.65 -0.23,-1.31 -0.35,-1.96 0.59,3.32 0.86,6.69 0.82,10.06 -0.02,1.86 1.1,4 2.46,5.21 1.33,1.19 3.46,2.05 5.26,1.89 1.94,-0.17 3.94,-0.91 5.21,-2.46 1.26,-1.54 1.87,-3.26 1.89,-5.26 0.13,-12.23 -3.68,-24.62 -10.66,-34.66 -3.37,-4.85 -7.47,-9.32 -12.12,-12.96 -4.74,-3.72 -9.97,-6.86 -15.61,-8.98 -3.12,-1.17 -6.27,-2.21 -9.54,-2.89 -3.32,-0.69 -6.73,-1.05 -10.11,-1.22 -6.21,-0.31 -12.51,0.49 -18.51,2.12 -5.81,1.57 -11.46,4.14 -16.52,7.39 -4.99,3.2 -9.59,7.22 -13.42,11.75 -7.77,9.21 -12.88,20.78 -13.98,32.81 -0.32,3.47 -0.49,6.91 -0.24,10.39 0.24,3.41 0.81,6.82 1.58,10.16 1.36,5.87 3.77,11.54 6.83,16.72 3,5.09 6.88,9.77 11.25,13.74 4.39,4 9.47,7.42 14.86,9.94 5.52,2.58 11.47,4.42 17.52,5.18 3.4,0.43 6.85,0.67 10.28,0.56 3.43,-0.11 6.8,-0.61 10.17,-1.25 5.98,-1.13 11.66,-3.37 17,-6.25 5.27,-2.84 10.07,-6.62 14.25,-10.89 4.13,-4.22 7.66,-9.18 10.35,-14.44 2.75,-5.36 4.75,-11.23 5.74,-17.18 0.55,-3.31 0.84,-6.68 0.89,-10.03 0.03,-1.86 -1.11,-4 -2.46,-5.21 -1.33,-1.19 -3.46,-2.05 -5.26,-1.89 -1.94,0.17 -3.94,0.91 -5.21,2.46 -1.27,1.54 -1.86,3.26 -1.89,5.26 z"
         id="path602" />
      <circle
         class="cls-1"
         cx="224.85001"
         cy="209.57001"
         r="52.509998"
         transform="rotate(-18.79,224.87015,209.57543)"
         id="circle604" />
    </g>
    <path
       class="cls-3"
       d="m 243.96,224.45 -16.99,-0.22 -0.14,11.24 c -0.02,1.37 -1.23,2.47 -2.61,2.46 -1.46,-0.02 -2.56,-1.15 -2.54,-2.52 l 0.14,-11.24 -17.07,-0.22 c -1.46,-0.02 -2.56,-1.15 -2.54,-2.61 0.02,-1.37 1.15,-2.56 2.61,-2.54 l 17.07,0.22 0.09,-7.12 -17.07,-0.22 c -1.46,-0.02 -2.56,-1.15 -2.54,-2.52 0.02,-1.46 1.15,-2.56 2.61,-2.54 l 14.24,0.18 -14.76,-20.1 c -0.25,-0.43 -0.42,-1.04 -0.41,-1.55 0.02,-1.46 1.15,-2.56 2.52,-2.54 0.77,0 1.54,0.36 2.05,1.06 l 15.94,21.83 16.58,-21.41 c 0.52,-0.68 1.3,-1.01 2.07,-1 1.46,0.02 2.56,1.15 2.54,2.61 0,0.51 -0.19,1.11 -0.53,1.54 l -15.27,19.72 14.24,0.18 c 1.46,0.02 2.56,1.15 2.54,2.61 -0.02,1.37 -1.15,2.47 -2.61,2.46 l -16.99,-0.22 -0.09,7.12 16.99,0.22 c 1.46,0.02 2.56,1.23 2.54,2.61 -0.02,1.46 -1.15,2.56 -2.61,2.54 z"
       id="path608" />
  </g>
</svg>
