<?xml version="1.0" encoding="utf-8"?>
<!-- Generator: Adobe Illustrator 26.4.1, SVG Export Plug-In . SVG Version: 6.00 Build 0)  -->
<svg version="1.1" id="_x32_" xmlns="http://www.w3.org/2000/svg" xmlns:xlink="http://www.w3.org/1999/xlink" x="0px" y="0px"
	 viewBox="0 0 32 32" style="enable-background:new 0 0 32 32;" xml:space="preserve">
<style type="text/css">
	.st0{fill:#44BBFF;}
</style>
<g>
	<path class="st0" d="M3.8,12.2V20h10.4v-8.9H4.9C4.3,11.2,3.8,11.6,3.8,12.2z"/>
	<path class="st0" d="M27.1,11.2h-9.3V20h10.4v-7.8C28.2,11.6,27.7,11.2,27.1,11.2z"/>
	<path class="st0" d="M3.8,30.9c0,0.6,0.5,1.1,1.1,1.1h9.3v-8.9H3.8V30.9z"/>
	<path class="st0" d="M17.8,32h9.3c0.6,0,1.1-0.5,1.1-1.1v-7.8H17.8V32z"/>
	<path class="st0" d="M24.5,7.1c0.4-0.5,0.8-1,1-1.6C25.8,5,26,4.4,26,3.8c0-0.4-0.1-0.8-0.2-1.2c-0.1-0.4-0.4-0.8-0.6-1.1
		c-0.4-0.5-0.9-0.9-1.5-1.1C23.1,0.1,22.5,0,21.9,0c-0.5,0-0.9,0.1-1.4,0.2c-0.7,0.2-1.3,0.6-1.9,1.2c-0.5,0.6-1,1.3-1.3,2.2
		c-0.4,1.2-1.5,3.8-1.6,3.9h-0.1c0-0.1-1.2-2.7-1.6-3.9C14,3,13.7,2.5,13.4,2c-0.5-0.7-1.1-1.2-1.7-1.5C11,0.2,10.3,0,9.7,0
		C8.8,0,8,0.2,7.3,0.7C7,0.9,6.7,1.2,6.4,1.5C6.2,1.9,5.9,2.2,5.8,2.7C5.7,3,5.6,3.4,5.6,3.8c0,0.4,0.1,0.8,0.2,1.2
		c0.2,0.7,0.6,1.3,1,1.9C7.5,7.7,8.5,8.5,9.7,9c1.2,0.5,2.6,0.9,4.2,0.9c0.9,0,1.9,0,1.9,0c0,0,1,0,1.9,0c1.2,0,2.3-0.2,3.3-0.5
		C22.4,8.9,23.7,8.1,24.5,7.1z M19.7,3.1c0.3-0.5,0.7-0.8,1.1-1c0.4-0.2,0.8-0.3,1.2-0.3c0.5,0,0.9,0.1,1.3,0.4
		c0.2,0.1,0.4,0.3,0.5,0.4S24,3,24,3.3c0.1,0.2,0.1,0.4,0.1,0.6c0,0.2,0,0.4-0.1,0.6c-0.1,0.4-0.3,0.8-0.7,1.2
		c-0.5,0.6-1.3,1.2-2.2,1.6C20.1,7.8,19,8,17.7,8c-0.1,0-0.1,0-0.2,0c0.5-0.8,1.1-2,1.6-3.8C19.3,3.7,19.4,3.4,19.7,3.1z M7.6,4.8
		c-0.2-0.4-0.2-0.7-0.2-1c0-0.2,0-0.4,0.1-0.6l0,0C7.6,3,7.7,2.8,7.8,2.7C8,2.4,8.3,2.2,8.6,2c0.3-0.1,0.7-0.2,1-0.2
		c0.3,0,0.5,0,0.8,0.1c0.4,0.1,0.8,0.4,1.1,0.7c0.3,0.4,0.6,0.9,0.9,1.5C13,6,13.6,7.2,14.1,8C14,8,14,8,13.9,8
		c-1,0-1.9-0.2-2.7-0.4C10,7.2,9,6.6,8.4,5.9C8,5.5,7.8,5.2,7.6,4.8z"/>
</g>
</svg>
