<?xml version="1.0" encoding="utf-8"?>
<!-- Generator: Adobe Illustrator 26.4.1, SVG Export Plug-In . SVG Version: 6.00 Build 0)  -->
<svg version="1.1" id="_x32_" xmlns="http://www.w3.org/2000/svg" xmlns:xlink="http://www.w3.org/1999/xlink" x="0px" y="0px"
	 viewBox="0 0 32 32" style="enable-background:new 0 0 32 32;" xml:space="preserve">
<style type="text/css">
	.st0{fill:#44BBEE;}
</style>
<g>
	<path class="st0" d="M27.3,4.7C24.4,1.8,20.4,0,16,0S7.6,1.8,4.7,4.7C1.8,7.6,0,11.6,0,16s1.8,8.4,4.7,11.3C7.6,30.2,11.6,32,16,32
		s8.4-1.8,11.3-4.7C30.2,24.4,32,20.4,32,16S30.2,7.6,27.3,4.7z M25.9,6.1c2.5,2.5,4.1,6,4.1,9.9s-1.6,7.3-4.1,9.9
		c-2.5,2.5-6,4.1-9.9,4.1s-7.3-1.6-9.9-4.1S2,19.9,2,16s1.6-7.3,4.1-9.9C8.7,3.6,12.1,2,16,2C19.9,2,23.3,3.6,25.9,6.1z"/>
	<path class="st0" d="M15.6,21.5c-1.1,0-1.9,0.9-1.9,1.9c0,1.1,0.9,1.9,1.9,1.9c1.1,0,1.9-0.9,1.9-1.9S16.6,21.5,15.6,21.5z"/>
	<path class="st0" d="M11.2,9.8l1.3,1.1c0.3,0.2,0.6,0.2,0.9,0c0,0,0.2-0.3,0.7-0.6c0.5-0.3,1.2-0.5,2.1-0.5c0.9,0,1.6,0.3,2.1,0.8
		c0.3,0.2,0.4,0.5,0.6,0.7c0.1,0.2,0.2,0.4,0.2,0.6c0,0.5-0.1,0.8-0.2,1.1c-0.1,0.2-0.2,0.4-0.4,0.6c-0.3,0.3-0.6,0.5-1,0.8
		c-0.4,0.2-0.9,0.4-1.3,0.7c-0.5,0.3-1.1,0.7-1.4,1.3c-0.2,0.3-0.4,0.6-0.5,1c-0.1,0.4-0.1,0.7-0.1,1.1c0,0.4,0,0.8,0,0.8
		c0,0.4,0.3,0.7,0.7,0.7h1.7c0.4,0,0.7-0.3,0.7-0.7c0,0,0-0.3,0-0.8c0-0.1,0-0.2,0-0.3c0-0.1,0-0.1,0.1-0.2c0-0.1,0.1-0.1,0.3-0.2
		c0.3-0.1,0.7-0.3,1.1-0.6c0.7-0.4,1.5-0.9,2.3-1.8c0.4-0.4,0.7-0.9,0.9-1.5c0.2-0.6,0.3-1.3,0.3-2c0-0.7-0.2-1.4-0.5-2
		c-0.5-0.9-1.2-1.7-2.2-2.2c-0.9-0.6-2.1-0.9-3.3-0.9c-1.5,0-2.8,0.4-3.7,0.9c-0.9,0.5-1.3,1.2-1.3,1.2c-0.2,0.1-0.2,0.3-0.2,0.6
		C10.9,9.5,11,9.7,11.2,9.8z"/>
</g>
</svg>
