<?xml version="1.0" encoding="UTF-8"?><svg id="_レイヤー_1" xmlns="http://www.w3.org/2000/svg" viewBox="0 0 292.13 259.23"><defs><style>.cls-1{fill:#fff;}.cls-2{fill:#1b1464;}.cls-3{fill:#269ac2;}</style></defs><g><circle class="cls-3" cx="169.11" cy="136.21" r="119.11"/><path class="cls-2" d="M53.91,136.21c0,3.17,.12,6.34,.37,9.5,.12,1.53,.27,3.07,.45,4.6,.04,.38,.09,.76,.14,1.14,0,.08,.08,.62,.02,.13-.07-.53,.02,.17,.04,.29,.11,.76,.22,1.51,.34,2.26,.97,6.05,2.41,12.03,4.3,17.86,.92,2.83,1.94,5.62,3.07,8.36,.11,.28,.46,1.09,.15,.38,.15,.34,.29,.68,.44,1.02,.32,.72,.64,1.45,.97,2.17,.62,1.34,1.26,2.67,1.92,3.98,2.67,5.28,5.73,10.35,9.15,15.18,.87,1.23,1.78,2.45,2.69,3.65-.41-.54-.04-.05,.16,.2,.23,.29,.45,.57,.68,.86,.49,.61,.98,1.22,1.48,1.82,1.86,2.24,3.81,4.41,5.83,6.51,2.06,2.13,4.2,4.19,6.41,6.17,1.09,.97,2.19,1.92,3.31,2.85,.56,.47,1.13,.93,1.7,1.38,.28,.23,.57,.45,.86,.68,.12,.1,.25,.19,.37,.29,.46,.37-.73-.56,.07,.06,4.71,3.57,9.64,6.82,14.82,9.67,2.62,1.45,5.3,2.79,8.03,4.04,.62,.28,1.25,.56,1.88,.84,.34,.15,.68,.29,1.02,.44-.76-.32,.25,.1,.53,.22,1.37,.56,2.76,1.1,4.15,1.61,5.68,2.08,11.52,3.72,17.45,4.9,1.54,.31,3.09,.59,4.64,.83,.7,.11,1.4,.22,2.1,.31,.13,.02,.82,.11,.29,.04-.49-.06,.06,0,.13,.02,.43,.05,.87,.11,1.3,.16,3.13,.36,6.27,.6,9.41,.72,6.27,.23,12.56-.02,18.79-.76,.38-.05,.76-.1,1.14-.14,.46-.06-.19,.03-.23,.03,.22-.03,.43-.06,.65-.09,.75-.11,1.51-.22,2.26-.34,1.5-.24,2.99-.51,4.48-.81,3-.6,5.98-1.32,8.93-2.16,2.92-.83,5.81-1.77,8.66-2.82,1.39-.51,2.77-1.05,4.14-1.62,.2-.08,.39-.16,.59-.24-.04,.02-.62,.27-.2,.09,.34-.15,.68-.29,1.02-.44,.68-.3,1.35-.6,2.02-.91,5.43-2.5,10.67-5.4,15.66-8.69,2.44-1.61,4.81-3.31,7.14-5.08-.71,.54,.16-.12,.32-.25,.29-.23,.57-.45,.86-.68,.61-.49,1.21-.98,1.81-1.48,1.12-.93,2.22-1.89,3.3-2.86,4.37-3.93,8.46-8.18,12.21-12.71,.46-.56,.92-1.13,1.38-1.7,.23-.29,.45-.57,.68-.86,.1-.12,.19-.25,.29-.37-.2,.26-.29,.38-.04,.05,.91-1.2,1.81-2.42,2.68-3.66,1.72-2.43,3.34-4.93,4.87-7.48,1.51-2.52,2.92-5.09,4.24-7.72,.66-1.32,1.3-2.65,1.91-3.99,.31-.67,.61-1.35,.9-2.02,.06-.15,.13-.29,.19-.44,.05-.11,.31-.74,.11-.26-.19,.44,.02-.05,.05-.12,.1-.24,.2-.49,.3-.73,2.27-5.58,4.12-11.33,5.51-17.18,.71-3,1.31-6.03,1.79-9.07,.11-.7,.21-1.4,.31-2.1,.02-.18,.09-.77,0,.07,.02-.16,.04-.33,.06-.49,.05-.43,.11-.87,.16-1.3,.18-1.53,.32-3.06,.44-4.6,.48-6.27,.46-12.58-.04-18.84-.13-1.59-.29-3.17-.48-4.76-.05-.38-.1-.76-.14-1.14,.09,.71,0,.07-.04-.26-.11-.81-.24-1.62-.37-2.42-.5-3.04-1.11-6.06-1.84-9.05-1.43-5.85-3.33-11.57-5.6-17.14-.06-.15-.12-.29-.18-.44,.31,.75,.09,.22,.02,.06-.13-.29-.25-.58-.38-.87-.32-.72-.64-1.45-.97-2.16-.64-1.39-1.3-2.76-2-4.12-1.33-2.62-2.76-5.18-4.28-7.69-1.54-2.55-3.18-5.03-4.91-7.46-.39-.55-.79-1.1-1.2-1.65-.22-.29-.44-.59-.65-.88-.13-.17-.25-.33-.38-.5-.05-.07-.47-.61-.17-.22,.26,.33-.34-.43-.46-.59-.23-.29-.45-.57-.68-.86-.49-.61-.98-1.21-1.49-1.81-3.77-4.51-7.88-8.74-12.27-12.65-1.09-.97-2.2-1.92-3.32-2.84-.56-.46-1.13-.92-1.7-1.38-.24-.19-.49-.39-.74-.58-.1-.07-.62-.48-.22-.17,.39,.3-.16-.12-.22-.17-2.37-1.8-4.8-3.52-7.29-5.14-4.97-3.23-10.18-6.09-15.57-8.54-.67-.31-1.35-.61-2.02-.9-.19-.08-1.21-.51-.38-.16-.39-.16-.78-.32-1.17-.48-1.37-.56-2.76-1.09-4.15-1.59-2.8-1.02-5.65-1.93-8.52-2.73-2.95-.82-5.94-1.53-8.95-2.12-1.49-.29-2.99-.56-4.49-.79-.75-.12-1.51-.23-2.26-.33-.46-.07,.19,.03,.23,.03-.22-.03-.43-.06-.65-.08-.43-.05-.87-.11-1.31-.16-6.24-.71-12.53-.93-18.8-.66-3.14,.13-6.28,.39-9.4,.77-.33,.04-.65,.08-.98,.12,.92-.11-.21,.03-.42,.06-.81,.12-1.62,.24-2.42,.37-1.5,.25-2.99,.52-4.48,.82-5.97,1.22-11.85,2.9-17.57,5.02-1.39,.52-2.77,1.06-4.14,1.63-.07,.03-.56,.23-.12,.05,.48-.2-.15,.06-.26,.11-.29,.13-.58,.25-.87,.38-.72,.32-1.44,.64-2.16,.97-2.72,1.26-5.39,2.62-8,4.08-2.56,1.43-5.06,2.95-7.51,4.56-1.26,.83-2.51,1.69-3.74,2.57-.55,.39-1.1,.79-1.64,1.2-.29,.22-.59,.44-.88,.66-.23,.18-1.09,.84-.45,.34-4.64,3.62-9.02,7.55-13.09,11.81-2.05,2.14-4.02,4.36-5.91,6.65-.46,.56-.92,1.13-1.37,1.7-.19,.24-.39,.49-.58,.74-.1,.13-.45,.59,.04-.05-.13,.17-.25,.33-.38,.5-.88,1.16-1.75,2.34-2.59,3.53-3.43,4.88-6.5,10.02-9.16,15.36-.66,1.32-1.29,2.65-1.9,3.99-.3,.67-.6,1.35-.9,2.03-.12,.29-.36,.87-.1,.23-.16,.39-.32,.78-.48,1.17-1.14,2.8-2.17,5.65-3.09,8.53-1.85,5.79-3.25,11.73-4.18,17.74-.12,.75-.23,1.51-.33,2.27,.11-.79-.01,.12-.05,.42-.05,.38-.09,.76-.14,1.14-.17,1.48-.31,2.95-.42,4.44-.23,3.05-.34,6.11-.35,9.17,0,2.05-1.8,4.01-3.91,3.91-2.12-.09-3.92-1.72-3.91-3.91,.02-12.81,1.98-25.68,5.94-37.87,3.82-11.77,9.41-23,16.58-33.08,7.3-10.26,16.04-19.28,26.03-26.94,9.82-7.53,20.77-13.46,32.38-17.73,11.97-4.39,24.66-6.82,37.39-7.31,12.87-.5,25.88,1.04,38.27,4.55,11.93,3.38,23.39,8.6,33.75,15.41,10.28,6.76,19.59,15.03,27.42,24.53,8.02,9.74,14.47,20.54,19.26,32.21,4.82,11.75,7.67,24.24,8.65,36.89,1,12.9-.08,26-3.13,38.56-2.93,12.08-7.77,23.76-14.21,34.39-6.37,10.52-14.35,20.13-23.55,28.29-9.21,8.16-19.6,15.01-30.82,20.08-11.77,5.32-24.18,8.73-37.01,10.23-12.9,1.5-26.02,.87-38.74-1.7-12.23-2.48-24.11-6.92-35.01-12.99-10.75-5.98-20.64-13.64-29.13-22.54-8.47-8.88-15.67-19.05-21.14-30.04-5.59-11.25-9.51-23.32-11.41-35.74-.97-6.36-1.51-12.77-1.52-19.2,0-2.05,1.8-4.01,3.91-3.91,2.12,.1,3.91,1.72,3.91,3.91Z"/></g><g><circle class="cls-1" cx="169.11" cy="136.21" r="91.08"/><path class="cls-2" d="M81.94,136.21c0,2.44,.1,4.87,.29,7.3,.09,1.15,.2,2.3,.34,3.45,.03,.29,.07,.57,.1,.86,.12,.99-.13-.89,.01,.1,.1,.66,.19,1.32,.3,1.98,.74,4.55,1.83,9.05,3.25,13.43,.72,2.21,1.52,4.39,2.4,6.53,.08,.19,.39,1.08,.03,.09,.09,.26,.22,.51,.33,.76,.22,.51,.45,1.01,.68,1.52,.5,1.09,1.02,2.17,1.56,3.23,2.03,4,4.36,7.85,6.97,11.51,.63,.88,1.24,1.82,1.95,2.64-.68-.79-.07-.09,.06,.07,.17,.22,.34,.43,.51,.64,.4,.5,.8,.99,1.21,1.48,1.4,1.68,2.86,3.31,4.38,4.88,1.58,1.64,3.22,3.22,4.92,4.73,.82,.73,1.64,1.44,2.49,2.14,.42,.35,.84,.69,1.27,1.04,.21,.17,.43,.34,.64,.51,.14,.11,.29,.22,.43,.34-.43-.33-.48-.37-.14-.11,3.59,2.7,7.32,5.17,11.25,7.33,2.01,1.11,4.07,2.14,6.16,3.1,.5,.23,1.01,.45,1.52,.68,.18,.08,1.05,.48,.09,.04,.25,.11,.51,.21,.77,.32,1.12,.46,2.24,.89,3.37,1.3,4.32,1.57,8.75,2.8,13.26,3.69,1.12,.22,2.24,.42,3.36,.6,.57,.09,1.13,.17,1.7,.25,.98,.14-.89-.11,.1,.01,.38,.05,.76,.09,1.14,.14,2.3,.26,4.62,.44,6.94,.53,4.86,.18,9.73-.01,14.55-.59,.28-.03,.58-.05,.86-.11-1.07,.21-.12,.01,.1-.02,.57-.08,1.13-.17,1.7-.26,1.12-.18,2.24-.39,3.36-.61,2.31-.46,4.59-1.02,6.86-1.66,2.24-.64,4.46-1.36,6.64-2.17,1.04-.39,2.08-.79,3.11-1.21,.19-.08,1.08-.39,.09-.03,.26-.09,.51-.22,.76-.33,.59-.26,1.18-.52,1.77-.8,4.08-1.89,8.02-4.08,11.77-6.56,.92-.6,1.82-1.22,2.71-1.86,.45-.32,.89-.64,1.33-.96,.22-.16,.44-.33,.66-.49,.17-.13,1.19-.87,.3-.22,1.76-1.28,3.42-2.75,5.03-4.21,3.39-3.04,6.55-6.34,9.45-9.85,.35-.42,.69-.85,1.03-1.27,.17-.21,.34-.43,.51-.64,.59-.74-.51,.68,.06-.07,.66-.88,1.31-1.75,1.94-2.65,1.32-1.87,2.57-3.78,3.74-5.74,1.18-1.97,2.28-3.98,3.31-6.03,.49-.99,.97-1.99,1.43-2.99,.23-.5,.45-1.01,.68-1.52,.08-.18,.48-1.05,.04-.09,.15-.34,.28-.68,.42-1.03,1.72-4.24,3.11-8.6,4.17-13.05,.55-2.3,1-4.63,1.37-6.97,.09-.56,.19-1.13,.25-1.7-.12,1.13,.05-.41,.08-.67,.15-1.24,.27-2.49,.36-3.74,.37-4.86,.35-9.74-.05-14.59-.09-1.15-.21-2.3-.35-3.44-.02-.19-.05-.38-.07-.57-.12-.99,.13,.89-.01-.1-.1-.66-.19-1.32-.3-1.98-.38-2.33-.85-4.65-1.41-6.95-1.08-4.44-2.5-8.79-4.24-13.02-.08-.19-.39-1.08-.03-.09-.09-.26-.22-.51-.33-.76-.22-.51-.45-1.01-.68-1.52-.5-1.09-1.02-2.17-1.56-3.23-1.04-2.04-2.16-4.05-3.35-6.01-1.19-1.95-2.45-3.86-3.78-5.72-.58-.81-1.14-1.66-1.79-2.42,.68,.79,.07,.09-.06-.07-.17-.22-.34-.43-.51-.64-.4-.5-.8-.99-1.21-1.48-2.92-3.49-6.1-6.77-9.51-9.79-.75-.67-1.51-1.32-2.28-1.96-.42-.35-.84-.69-1.27-1.04-.21-.17-.43-.34-.64-.51-.14-.11-.29-.22-.43-.34,.43,.33,.48,.37,.14,.11-1.83-1.37-3.68-2.7-5.6-3.94-3.77-2.45-7.73-4.62-11.82-6.49-.5-.23-1.01-.45-1.52-.68-.18-.08-1.05-.48-.09-.04-.25-.11-.51-.21-.77-.32-1.12-.46-2.24-.89-3.37-1.3-2.19-.79-4.41-1.5-6.66-2.13-2.18-.6-4.38-1.13-6.59-1.57-1.12-.22-2.24-.42-3.36-.6-.57-.09-1.13-.17-1.7-.25-.98-.14,.89,.11-.1-.01-.38-.05-.76-.09-1.14-.14-4.83-.55-9.71-.72-14.56-.5-2.31,.1-4.63,.29-6.93,.57-.28,.03-.58,.05-.86,.11,1.07-.21,.12-.01-.1,.02-.57,.08-1.13,.17-1.7,.26-1.22,.2-2.43,.42-3.64,.67-4.49,.92-8.92,2.18-13.22,3.77-1.04,.39-2.08,.79-3.11,1.21-.19,.08-1.08,.39-.09,.03-.26,.09-.51,.22-.76,.33-.59,.26-1.18,.52-1.77,.8-2.09,.97-4.13,2.01-6.14,3.13-1.92,1.07-3.8,2.21-5.63,3.42-.92,.6-1.82,1.22-2.71,1.86-.45,.32-.89,.64-1.33,.96-.22,.16-.44,.33-.66,.49-.17,.13-1.19,.87-.3,.22-3.66,2.66-7.02,5.89-10.13,9.15-1.51,1.58-2.96,3.22-4.35,4.9-.35,.42-.69,.85-1.03,1.27-.17,.21-.34,.43-.51,.64-.59,.74,.51-.68-.06,.07-.71,.95-1.42,1.9-2.1,2.87-2.58,3.67-4.89,7.54-6.9,11.55-.49,.99-.97,1.99-1.43,2.99-.23,.5-.45,1.01-.68,1.52-.08,.18-.48,1.05-.04,.09-.15,.34-.28,.68-.42,1.03-.87,2.15-1.66,4.34-2.36,6.55-1.4,4.4-2.46,8.91-3.17,13.47-.09,.56-.19,1.13-.25,1.7,.11-1.1,.02-.11,0,.1-.04,.29-.07,.57-.1,.86-.13,1.15-.24,2.3-.33,3.45-.18,2.33-.26,4.67-.27,7.01,0,2.05-1.8,4.01-3.91,3.91-2.12-.09-3.92-1.72-3.91-3.91,.02-9.87,1.52-19.8,4.57-29.19,2.96-9.11,7.28-17.82,12.84-25.62,5.66-7.93,12.4-14.88,20.13-20.81,7.57-5.81,16.01-10.37,24.96-13.66,9.22-3.39,19.01-5.25,28.82-5.64,9.96-.39,20.05,.8,29.64,3.52,9.19,2.61,18.04,6.64,26.01,11.89,7.89,5.19,15.05,11.53,21.06,18.81,6.27,7.6,11.28,16,15.02,25.11,3.72,9.06,5.89,18.69,6.65,28.45,.77,9.94-.08,20.04-2.42,29.72-2.27,9.35-6.02,18.41-11.02,26.63-4.9,8.06-11.02,15.45-18.08,21.71-7.09,6.29-15.09,11.59-23.74,15.5-9.15,4.14-18.75,6.78-28.71,7.95-9.99,1.17-20.15,.66-30-1.33-9.42-1.91-18.58-5.35-26.98-10.03-8.24-4.59-15.85-10.48-22.37-17.3-6.57-6.87-12.16-14.74-16.39-23.25-4.31-8.67-7.35-17.97-8.81-27.54-.75-4.94-1.18-9.91-1.19-14.91,0-2.05,1.8-4.01,3.91-3.91,2.12,.1,3.91,1.72,3.91,3.91Z"/></g><path class="cls-2" d="M172.81,67.17v69.25c0,2.05-1.8,4.01-3.91,3.91-2.12-.09-3.91-1.72-3.91-3.91V67.17c0-2.05,1.8-4.01,3.91-3.91,2.12,.09,3.91,1.72,3.91,3.91h0Z"/><path class="cls-2" d="M113,135.01h55.9c2.05,0,4.01,1.8,3.91,3.91-.09,2.12-1.72,3.91-3.91,3.91h-55.9c-2.05,0-4.01-1.8-3.91-3.91,.09-2.12,1.72-3.91,3.91-3.91h0Z"/><g><path class="cls-2" d="M59.66,2.46c3.57,9.37,7.14,18.75,10.71,28.12,.63,1.66-.7,3.78-2.36,4.16-1.93,.44-3.48-.59-4.16-2.36-3.57-9.37-7.14-18.75-10.71-28.12-.63-1.66,.7-3.78,2.36-4.16,1.93-.44,3.48,.59,4.16,2.36h0Z"/><path class="cls-2" d="M42.26,54.47c-2.16-1.24-4.37-2.41-6.61-3.49-1.12-.54-2.26-1.06-3.4-1.55-.18-.08-.68-.29-.24-.11-.3-.13-.6-.25-.9-.37-.6-.25-1.21-.49-1.81-.72-4.66-1.79-9.45-3.22-14.32-4.3-1.73-.38-2.9-2.48-2.36-4.16,.59-1.82,2.31-2.77,4.16-2.36,10.13,2.23,19.92,6.05,28.91,11.22,1.53,.88,2.2,3.1,1.21,4.63-1,1.55-2.99,2.16-4.63,1.21h0Z"/><path class="cls-2" d="M29.88,97.21c-8.83,1.01-17.66,2.03-26.5,3.04-1.76,.2-3.46-1.7-3.38-3.38,.09-2.01,1.49-3.17,3.38-3.38,8.83-1.01,17.66-2.03,26.5-3.04,1.76-.2,3.46,1.7,3.38,3.38-.09,2.01-1.49,3.17-3.38,3.38h0Z"/></g></svg>