<?xml version="1.0" encoding="UTF-8" standalone="no"?>
<svg
   id="_レイヤー_7"
   viewBox="0 0 289.02026 294.82442"
   version="1.1"
   sodipodi:docname="ico_man03.svg"
   width="289.02026"
   height="294.82443"
   inkscape:version="1.2 (dc2aeda, 2022-05-15)"
   xmlns:inkscape="http://www.inkscape.org/namespaces/inkscape"
   xmlns:sodipodi="http://sodipodi.sourceforge.net/DTD/sodipodi-0.dtd"
   xmlns="http://www.w3.org/2000/svg"
   xmlns:svg="http://www.w3.org/2000/svg">
  <sodipodi:namedview
     id="namedview477"
     pagecolor="#ffffff"
     bordercolor="#000000"
     borderopacity="0.25"
     inkscape:showpageshadow="2"
     inkscape:pageopacity="0.0"
     inkscape:pagecheckerboard="0"
     inkscape:deskcolor="#d1d1d1"
     showgrid="false"
     inkscape:zoom="1.867333"
     inkscape:cx="145.66229"
     inkscape:cy="209.65731"
     inkscape:window-width="1390"
     inkscape:window-height="1027"
     inkscape:window-x="0"
     inkscape:window-y="25"
     inkscape:window-maximized="0"
     inkscape:current-layer="_レイヤー_7" />
  <defs
     id="defs406">
    <style
       id="style401">.cls-1{fill:none;}.cls-2{clip-path:url(#clippath);}.cls-3{fill:#fff;}.cls-4{fill:#fcec74;}.cls-5{fill:#269ac2;}.cls-6{fill:#2d75a5;}</style>
    <clipPath
       id="clippath">
      <rect
         class="cls-1"
         x="1.47"
         y="5.3499999"
         width="300"
         height="300"
         id="rect403" />
    </clipPath>
  </defs>
  <g
     class="cls-2"
     clip-path="url(#clippath)"
     id="g474"
     transform="translate(-6.6047478,-10.525563)">
    <g
       id="g472">
      <path
         class="cls-3"
         d="m 254.33,249.47 c -2.8,-0.76 -5.89,-0.48 -8.77,-0.51 -0.04,0 -0.08,0 -0.12,0 -0.67,-0.85 -1.5,-1.55 -2.49,-1.99 -6.51,-2.94 -12.17,-6.52 -17.53,-10.49 -3.21,-0.81 -6.28,-2.22 -9.11,-4.07 -4.17,-2.74 -8.55,-5.14 -12.67,-7.96 -1.14,-0.78 -2.23,-1.59 -3.29,-2.44 -2.2,-0.8 -4.28,-1.9 -6.24,-3.31 -1.58,-1.49 -3.16,-2.98 -4.73,-4.46 -2.36,-2.9 -3.98,-6.13 -4.91,-9.67 -0.29,-0.12 -0.59,-0.22 -0.9,-0.3 0.11,-1.48 0.21,-2.96 0.31,-4.44 -0.04,-1.51 -0.07,-3.03 -0.11,-4.54 0.1,-1.33 0.33,-2.62 0.68,-3.86 0.25,-5.16 0.04,-10.25 -2.04,-14.85 -0.04,-1 -0.14,-1.99 -0.3,-2.94 2.15,-2.5 4.11,-5.16 5.86,-7.96 2.76,-4.41 4.95,-9.29 6.56,-14.24 0.84,-2.57 1.71,-5.49 2.15,-8.44 1.28,-0.84 2.51,-1.77 3.7,-2.73 3.56,-2.87 7.37,-4.97 11.14,-8.65 2.06,-2.02 3.79,-4.5 4.91,-7.21 -1.37,-3.81 -1.8,-7.99 -1.53,-11.99 0.06,-0.92 0.21,-1.85 0.42,-2.79 -1.37,-2.13 -3.23,-3.84 -5.43,-5.02 0.14,-4.63 -0.17,-9.28 -0.83,-13.7 -1.28,-8.67 -5.73,-17.82 -13.93,-21.57 -6.61,-6.04 -14.2,-11.69 -22.68,-14.44 -0.55,-0.18 -1.11,-0.33 -1.66,-0.48 -4.76,-5.48 -11.37,-8.99 -18.84,-9.35 -1.34,-0.07 -2.61,0.23 -3.78,0.78 -6.33,-3.45 -13.67,-4.82 -21.4,-2.91 -9.1,2.25 -16.93,9.08 -21.54,17.1 -5.23,9.1 -6.74,19.66 -7.22,29.99 -0.03,0.69 0,1.34 0.11,1.96 -0.93,3.99 -1.17,8.14 -0.62,12.26 -2.08,0.14 -4.13,0.85 -5.95,2.19 -7.29,5.35 -6.14,16.75 -2.1,23.71 2.94,5.06 8.07,9.76 13.88,11.23 0.02,0.03 0.05,0.05 0.07,0.08 -0.07,0.46 -0.11,0.92 -0.11,1.39 0.19,12.59 6.15,22.26 14.5,30.03 -1.09,12.59 -3.58,25.06 -4.64,37.66 -6.5,2.79 -12.31,7.78 -17.82,11.86 -9.29,6.88 -18.58,13.75 -27.87,20.63 -1.19,0.88 -2.21,1.92 -2.99,3.08 -6.91,2.4 -13.73,5.04 -20.49,7.86 -0.08,0.03 -0.16,0.06 -0.24,0.09 0,0 0,0 0,0 -0.74,0.31 -1.47,0.61 -2.21,0.92 -4.17,1.77 -5.42,7.78 -3.77,11.51 1.67,3.8 6.56,7.09 10.88,5.34 0.55,-0.22 1.1,-0.43 1.64,-0.64 26.47,-1.26 52.95,-2.21 79.45,-2.86 1.77,3.89 4.03,7.57 6.7,10.94 -0.69,4.41 2.44,8.98 6.71,10.16 1.02,0.28 2.02,0.37 2.99,0.31 0.98,2.29 2.86,4.23 5.05,5.12 2,0.8 4.21,0.9 6.23,0.33 4.59,0.86 9.1,-1.64 10.68,-6.49 0.34,-1.03 0.69,-2.05 1.04,-3.07 0.35,-0.43 0.65,-0.92 0.88,-1.45 2.48,-5.56 4.96,-11.11 7.43,-16.67 8.21,-0.09 16.42,-0.16 24.63,-0.18 5.73,0.24 11.45,0.47 17.18,0.71 5.91,0.24 11.82,0.49 17.74,0.74 l 8.87,0.37 c 3.7,0.15 8.29,1.04 11.62,-0.97 7.94,-4.8 5.35,-16.36 -3.18,-18.66 z"
         id="path408" />
      <path
         class="cls-5"
         d="m 175.38,224.79 c -4.4,-3.4 -8.75,-5.04 -14.26,-3.27 -0.09,0.03 -0.17,0.06 -0.26,0.09 -0.52,0 -1.05,0 -1.57,0.01 -1.53,-0.8 -3.28,-1.29 -5.18,-1.37 -2.2,-0.09 -4.39,-0.23 -6.58,-0.4 -0.59,-0.28 -1.22,-0.53 -1.9,-0.73 -3.74,-1.07 -8.04,-0.65 -11.32,1.55 -4.04,2.71 -6.81,7.85 -5.21,12.79 0.44,1.35 1.05,2.52 1.79,3.53 -1.62,2.62 -2.19,5.9 -1.51,9.13 6.71,31.93 -5.36,64.55 -1.78,96.75 0.34,3.08 1.56,5.95 3.53,8.03 -1.31,6.72 4.88,12.64 11.3,12.93 10.05,0.46 28.34,4.61 31.42,-9.02 1.14,-5.07 -0.22,-10.76 -0.61,-15.88 -0.42,-5.47 -0.74,-10.95 -0.95,-16.43 -0.82,-21.39 0.01,-42.82 2.37,-64.1 0.24,-2.2 -0.44,-4.28 -1.66,-6.05 0.17,-2.34 0.3,-4.68 0.34,-7.03 0.02,-1 0.02,-2.01 0,-3.01 1.92,-1.2 3.48,-2.95 4.37,-5.17 1.52,-3.78 1.23,-9.61 -2.34,-12.37 z"
         id="path410" />
      <path
         class="cls-6"
         d="m 213.08,124.11 c 0.08,-0.1 0.16,-0.2 0.23,-0.29 0.26,-0.57 0.64,-1.35 0.71,-1.51 0.55,-1.33 1.03,-2.69 1.48,-4.05 0.21,-0.64 0.41,-1.28 0.6,-1.93 -0.67,-1.27 -1.21,-2.62 -1.59,-4.01 -2.85,-10.48 -0.93,-21.29 4.07,-30.52 -2.75,-10.93 -8.38,-21.59 -13.84,-30.62 -1.12,-1.86 -2.29,-3.7 -3.49,-5.54 -0.55,-1.58 -1.15,-3.13 -1.85,-4.64 -3.38,-7.34 -8.61,-13.48 -15.27,-17.31 -8.17,-8.32 -19.27,-13.08 -30.46,-8.63 -11.62,-1.37 -23.55,0.88 -33.59,7.63 -2.24,1.51 -3.79,3.78 -4.31,6.25 -2.19,2.68 -4.18,5.55 -6.14,8.43 -0.21,0.16 -0.42,0.32 -0.63,0.48 -0.48,0.04 -0.95,0.1 -1.43,0.2 -10.16,2.22 -16.18,12.92 -19.86,21.77 -0.47,1.13 -0.89,2.29 -1.29,3.45 -0.81,0.7 -1.51,1.52 -2.04,2.42 -0.4,0.49 -0.74,1.07 -0.99,1.75 -2.56,6.8 -4.85,13.7 -4.6,21.06 0,0.23 0.03,0.46 0.05,0.67 -0.4,3.55 -0.63,7.12 -0.7,10.7 0.07,0.15 0.16,0.3 0.22,0.45 0.16,0.37 0.33,0.73 0.5,1.09 0.18,0.23 0.37,0.46 0.56,0.68 0.23,0.18 0.47,0.35 0.71,0.51 0.05,0.02 0.1,0.05 0.16,0.07 4.11,1.72 6.98,4.92 8.33,8.71 0.72,-0.89 1.14,-2.08 1.07,-3.59 -0.08,-1.62 -0.12,-3.25 -0.13,-4.86 2.42,0 4.53,-1.01 6.17,-2.64 0.63,-0.29 1.22,-0.67 1.75,-1.14 1.87,-1.66 2.74,-3.93 3.79,-6.14 1.21,-2.53 2.41,-5.06 3.62,-7.59 1.35,-2.83 3.12,-5.74 3.69,-8.84 0.23,-1.27 0.11,-2.43 -0.27,-3.42 0.68,-1.37 1.36,-2.73 2.04,-4.1 0.21,-0.75 0.44,-1.5 0.68,-2.24 -0.05,-0.59 -0.08,-1.18 -0.05,-1.78 0.45,-8.63 7.3,-16.48 15.77,-17.34 0.41,-0.27 0.81,-0.54 1.22,-0.81 0.22,-0.15 0.43,-0.3 0.64,-0.46 0.17,-0.08 0.34,-0.15 0.51,-0.23 0.62,-0.33 0.72,-0.43 0.71,-0.45 0.08,0 0.26,-0.04 0.67,-0.15 0.14,-0.03 2.11,-0.47 1.76,-0.47 0.83,-0.08 1.69,-0.08 2.51,-0.06 0.08,0 2.84,0.37 1.47,0.11 4.14,0.8 6.19,1.72 9.72,4.29 3.09,2.25 6,5.4 8.74,8.74 1.64,3.38 3.85,6.42 5.44,9.85 0.66,1.43 1.21,2.93 1.7,4.46 0.45,2.43 1.15,4.83 2.05,7.15 0.17,0.59 0.34,1.18 0.51,1.77 1.53,5.08 3.05,10.17 4.58,15.25 0.73,2.43 2.52,3.66 4.47,3.94 0.85,1.3 1.95,2.46 3.43,3.51 0.35,0.25 0.73,0.43 1.12,0.56 5.49,7.73 12.78,15.12 21.54,18.9 1.93,2.08 4.29,3.68 7.23,4.41 1.76,-1.76 3.93,-3.11 6.3,-3.9 z"
         id="path412" />
      <path
         class="cls-4"
         d="m 127.78,236.6 c 0.39,-0.71 0.78,-1.42 1.17,-2.13 3.98,-7.21 -0.93,-17.42 -9.78,-17.04 -1.78,0.08 -3.57,0.22 -5.35,0.43 -0.24,0.03 -0.48,0.05 -0.73,0.09 -2.87,0.37 -5.73,0.93 -8.51,1.69 -2.61,0.72 -4.87,2.47 -6.38,4.72 -22.34,10.39 -44.56,20.98 -66.67,31.82 -0.54,0.27 -1.04,0.59 -1.5,0.95 -1.65,0.39 -3.17,1.18 -4.26,2.45 -4.53,5.32 -8.62,10.9 -11.79,17.07 -3.56,6.92 -7.22,14.75 -6.21,22.64 0.43,3.4 1.94,6.2 2.88,9.45 0.78,2.7 0.8,6.43 1.35,9.88 0.06,0.34 0.12,0.69 0.19,1.03 -0.51,5.81 -0.67,11.64 -0.44,17.47 0.36,9.16 0.12,21.71 11.12,25.19 4.27,1.35 8.69,0.77 12.96,-0.3 4.61,-1.16 9.22,-2.19 13.92,-2.93 7.68,-1.2 16.31,-1.62 24.47,-1.71 18.73,-0.21 37.49,1.25 56.18,2.25 l 0.53,0.03 c -2.02,-40.99 -3.06,-82.02 -3.16,-123.06 z"
         id="path414" />
      <path
         class="cls-4"
         d="m 292.85,337.31 c 0.02,-9.01 -0.33,-18.02 -1.03,-27 -0.79,-10.07 -1.96,-20.16 -3.71,-30.14 -1.63,-9.29 -5.76,-17.82 -14.72,-23.28 -1.19,-0.72 -2.45,-1.36 -3.74,-1.96 -6.84,-1.59 -13.58,-3.79 -19.88,-6.52 -5.43,-2.35 -11.03,-5.18 -15.56,-9.04 -3.1,-2.65 -6.06,-5.48 -7.49,-9.26 -4.45,-1.01 -9.08,-1.24 -13.46,-0.17 -1.21,-0.33 -2.52,-0.52 -3.96,-0.51 -2.02,0.01 -3.86,0.45 -5.55,1.18 -1.54,-0.78 -3.31,-1.15 -5.07,-0.91 1.19,-9.58 -13.88,-14.37 -20.01,-5.74 -2,2.81 -3.34,5.76 -4.23,8.81 -0.02,0.01 -0.05,0.03 -0.07,0.04 0.04,33.19 0.81,66.71 -2.74,99.8 0.7,1.36 1.14,2.83 1.22,4.37 0.39,7.1 0.17,14.06 -0.67,21.01 0.37,1.34 0.75,2.68 1.11,4.02 0.1,0.37 0.16,0.62 0.2,0.8 18.16,0.9 36.32,1.79 54.47,2.69 10.36,0.51 20.72,1.02 31.08,1.53 9.25,0.46 19.41,1.17 26.87,-4.75 7.91,-6.27 6.94,-16.38 6.96,-24.96 z"
         id="path416" />
      <g
         id="g470">
        <g
           id="g440">
          <g
             id="g434">
            <g
               id="g424">
              <path
                 d="m 101.28,141.13 c -10.88,0 -17.56,-10.21 -17.56,-17.54 v -10.16 c 0,-9.04 4.43,-13.44 13.54,-13.44 1.38,0 2.5,1.12 2.5,2.5 0,1.38 -1.12,2.5 -2.5,2.5 -7.18,0 -8.54,2.97 -8.54,8.44 v 10.16 c 0,4.99 5.01,12.54 12.56,12.54 1.38,0 2.5,1.12 2.5,2.5 0,1.38 -1.12,2.5 -2.5,2.5 z"
                 id="path418" />
              <path
                 d="m 201.67,139.47 c -1.39,0 -2.51,-1.12 -2.51,-2.51 0,-1.39 1.12,-2.51 2.51,-2.52 5.59,0 10,-4.39 10.5,-10.43 0.11,-1.38 1.32,-2.42 2.71,-2.3 1.38,0.11 2.41,1.33 2.3,2.71 -0.71,8.71 -7.24,15.04 -15.5,15.04 v 0 z"
                 id="path420" />
              <path
                 d="m 150.7,193.23 c -15.66,0 -31.27,-8.12 -40.97,-22.47 -7.94,-11.74 -10.54,-25.65 -12.05,-37.71 -0.18,-1.47 0.86,-2.82 2.34,-3 1.47,-0.18 2.82,0.86 3,2.34 1.42,11.42 3.87,24.56 11.17,35.36 11.91,17.63 33.7,24.76 51.81,16.98 10.64,-4.58 17.52,-13.1 21.42,-19.45 6.04,-9.83 8.07,-21.1 9.26,-30.82 0.18,-1.48 1.53,-2.53 3,-2.34 1.48,0.18 2.52,1.52 2.34,3 -1.26,10.3 -3.43,22.27 -10.01,32.98 -6.17,10.05 -14.43,17.52 -23.88,21.58 -5.61,2.41 -11.52,3.57 -17.43,3.57 z"
                 id="path422" />
            </g>
            <path
               d="m 130.19,115.77 h -0.36 c -0.4,-0.01 -0.77,0.07 -1.11,0.25 -0.36,0.12 -0.67,0.31 -0.93,0.6 -0.28,0.26 -0.48,0.57 -0.6,0.93 -0.18,0.34 -0.26,0.71 -0.25,1.11 0.03,0.26 0.07,0.51 0.1,0.77 0.14,0.49 0.38,0.91 0.74,1.27 0.19,0.15 0.39,0.3 0.58,0.45 0.45,0.26 0.93,0.39 1.45,0.39 h 0.36 c 0.4,0.01 0.77,-0.07 1.11,-0.25 0.36,-0.12 0.67,-0.31 0.93,-0.6 0.28,-0.26 0.48,-0.57 0.6,-0.93 0.18,-0.34 0.26,-0.71 0.25,-1.11 -0.03,-0.26 -0.07,-0.51 -0.1,-0.77 -0.14,-0.49 -0.38,-0.91 -0.74,-1.27 -0.19,-0.15 -0.39,-0.3 -0.58,-0.45 -0.45,-0.26 -0.93,-0.39 -1.45,-0.39 z"
               id="path426" />
            <path
               d="m 169.58,121.17 c 3.71,0 3.72,-5.77 0,-5.77 -3.72,0 -3.72,5.77 0,5.77 z"
               id="path428" />
            <path
               d="m 146.73,116.69 c 1.82,0.91 3.18,2.22 3.36,4.33 0.19,2.2 -0.61,4.43 -1.41,6.44 -0.9,2.27 -2.06,4.43 -3.09,6.64 -0.86,1.83 -1.79,3.74 -1.99,5.78 -0.36,3.7 2.08,7.03 5.45,8.3 2.08,0.79 2.99,-2.55 0.92,-3.34 -1.69,-0.64 -2.88,-2.37 -2.95,-4.15 -0.04,-0.93 0.37,-2.14 0.84,-3.26 1.13,-2.73 2.58,-5.31 3.73,-8.02 1.14,-2.69 2.21,-5.67 1.94,-8.64 -0.29,-3.21 -2.21,-5.65 -5.05,-7.07 -1.99,-0.99 -3.74,1.99 -1.75,2.99 z"
               id="path430" />
            <path
               d="m 135.45,158.12 c 3.96,5.02 10.75,6.49 16.85,6.35 5.87,-0.14 11.99,-1.97 15.93,-6.55 1.45,-1.68 -0.99,-4.14 -2.45,-2.45 -3.37,3.91 -8.47,5.41 -13.48,5.53 -5.27,0.13 -10.97,-0.98 -14.4,-5.33 -1.38,-1.75 -3.81,0.72 -2.45,2.45 z"
               id="path432" />
          </g>
          <path
             d="m 182.72,174.45 c -0.23,4.93 -1.21,9.83 -1.67,14.75 -0.49,5.32 -0.94,11.35 1.32,16.34 1.21,2.67 3.38,3.85 5.81,5.27 3.59,2.09 7.13,4.28 10.62,6.54 6.99,4.52 13.82,9.3 20.72,13.96 6.86,4.64 13.8,9.16 21.02,13.22 7.25,4.07 14.8,7.29 22.4,10.62 6.83,2.99 13.71,6.45 18.54,12.31 4.67,5.66 6.65,13.23 7.49,20.38 1,8.49 0.88,17.13 0.86,25.66 -0.03,9.52 -0.3,19.04 -0.82,28.55 -0.13,2.42 -0.28,4.84 -0.44,7.26 -0.1,1.56 1.4,2.88 2.88,2.88 1.65,0 2.78,-1.32 2.88,-2.88 0.63,-9.5 1.03,-19.02 1.18,-28.54 0.15,-9.06 0.24,-18.17 -0.3,-27.21 -0.47,-7.88 -1.65,-15.81 -5.06,-23 -3.43,-7.21 -9.33,-12.58 -16.23,-16.44 -6.91,-3.87 -14.45,-6.42 -21.56,-9.88 -7.57,-3.68 -14.82,-7.99 -21.88,-12.56 -6.93,-4.48 -13.69,-9.21 -20.52,-13.83 -3.42,-2.32 -6.87,-4.61 -10.36,-6.83 -3.58,-2.28 -7.28,-4.35 -10.9,-6.56 -0.16,-0.1 -0.31,-0.2 -0.47,-0.3 0.46,0.3 0.18,0.13 -0.05,-0.11 -0.16,-0.17 -0.47,-0.69 -0.1,-0.09 -0.12,-0.2 -0.26,-0.39 -0.37,-0.6 -0.12,-0.21 -0.22,-0.43 -0.33,-0.65 0.22,0.45 0.05,0.14 -0.04,-0.13 -0.19,-0.56 -0.35,-1.13 -0.47,-1.71 -0.06,-0.29 -0.11,-0.58 -0.16,-0.87 -0.1,-0.55 0.02,0.29 -0.04,-0.28 -0.07,-0.64 -0.13,-1.29 -0.16,-1.94 -0.07,-1.4 -0.06,-2.8 0,-4.19 0.21,-5.45 1.11,-10.84 1.72,-16.25 0.11,-0.96 0.2,-1.93 0.25,-2.9 0.17,-3.71 -5.59,-3.7 -5.77,0 v 0 z"
             id="path436" />
          <path
             d="m 113.77,176.3 c 0.32,6.03 1.18,12.09 0.61,18.14 -0.23,2.39 -0.93,5.34 -2.07,7.5 -1.41,2.66 -3.43,4.49 -5.94,6.24 -12.89,8.93 -25.48,18.32 -38.88,26.48 -6.82,4.15 -13.85,7.96 -21.12,11.24 -6.6,2.97 -13.48,5.41 -19.69,9.17 -6.22,3.76 -11.47,8.88 -14.62,15.5 -3.17,6.67 -4.41,13.98 -4.95,21.3 -0.6,8.13 -0.53,16.35 -0.46,24.5 0.07,8.83 0.35,17.66 0.84,26.47 0.12,2.16 0.25,4.32 0.4,6.48 0.1,1.55 1.25,2.88 2.88,2.88 1.48,0 2.99,-1.32 2.88,-2.88 -1.15,-17.33 -1.66,-34.78 -1.06,-52.15 0.24,-7.02 0.88,-14.11 3.25,-20.77 2.25,-6.34 6.41,-11.53 12,-15.24 5.96,-3.96 12.71,-6.48 19.24,-9.31 7.35,-3.18 14.45,-6.92 21.33,-11.01 13.55,-8.06 26.22,-17.46 39.14,-26.47 3.02,-2.11 5.95,-4.08 8.19,-7.07 1.8,-2.4 3.02,-5.26 3.69,-8.18 1.41,-6.04 0.87,-12.3 0.41,-18.42 -0.11,-1.46 -0.22,-2.92 -0.29,-4.38 -0.08,-1.55 -1.27,-2.88 -2.88,-2.88 -1.5,0 -2.97,1.32 -2.88,2.88 v 0 z"
             id="path438" />
        </g>
        <path
           d="m 114.67,59.52 c 0.51,-3.87 3.16,-6.59 6.58,-8.35 3.54,-1.82 7.83,-2.54 11.81,-2.64 4.2,-0.11 8.25,0.6 11.8,2.79 3.97,2.44 6.67,6.52 8.66,10.74 4.66,9.85 5.69,21 10.64,30.76 4.88,9.63 12.68,17.51 21.4,23.74 10.45,7.47 22.79,11.98 35.57,13.09 1.55,0.14 2.88,-1.42 2.88,-2.88 0,-1.67 -1.33,-2.75 -2.88,-2.88 -11.4,-0.99 -22.38,-5.17 -31.76,-11.68 -8.76,-6.08 -16.44,-14.08 -20.97,-23.82 -4.72,-10.16 -5.62,-21.68 -11.08,-31.56 -2.48,-4.48 -5.9,-8.53 -10.44,-11.01 -4.22,-2.3 -9.05,-3.18 -13.82,-3.06 -5.24,0.14 -10.69,1.17 -15.31,3.74 -5.01,2.79 -8.1,7.34 -8.85,13.01 -0.2,1.55 1.47,2.88 2.88,2.88 1.73,0 2.68,-1.33 2.88,-2.88 v 0 z"
           id="path442" />
        <path
           d="m 167.01,52.6 c 8.7,5.39 13.27,14.68 16.87,23.91 3.86,9.88 7.2,20.23 14.22,28.42 4.71,5.48 11.27,9.45 18.46,10.51 1.54,0.23 3.1,-0.38 3.55,-2.01 0.37,-1.36 -0.46,-3.32 -2.01,-3.55 -6.09,-0.9 -11.39,-3.93 -15.47,-8.51 -3.21,-3.6 -5.69,-8.11 -7.74,-12.64 -4.13,-9.15 -6.84,-19.49 -12.3,-28.23 -3.24,-5.19 -7.45,-9.64 -12.67,-12.87 -3.16,-1.96 -6.06,3.03 -2.91,4.98 v 0 z"
           id="path444" />
        <path
           d="M 218.17,103.66 C 220.59,79.95 215.77,54.92 201.5,35.45 194.65,26.1 185.65,18.49 174.77,14.29 162.92,9.73 149.38,9.61 137.09,12.34 c -11.42,2.54 -22.94,8.54 -28.32,19.43 -0.69,1.4 -0.37,3.12 1.03,3.94 1.27,0.74 3.25,0.37 3.94,-1.03 4.31,-8.72 13.03,-13.62 22.12,-16.1 11.06,-3.01 23.31,-3.21 34.3,0.21 20.95,6.52 34.15,27.16 39.57,47.4 3.27,12.2 3.95,24.93 2.67,37.47 -0.16,1.55 1.44,2.88 2.88,2.88 1.69,0 2.72,-1.33 2.88,-2.88 v 0 z"
           id="path446" />
        <path
           d="m 103.71,37.55 c -10.25,3.49 -17.43,11.64 -21.85,21.3 -2.16,4.72 -3.8,9.65 -5.11,14.67 -0.66,2.53 -1.25,5.09 -1.79,7.65 -0.74,3.49 -1.4,7.12 -1.08,10.7 0.62,6.97 5.24,14 12.83,14.27 3.71,0.13 3.71,-5.63 0,-5.77 -4.49,-0.16 -6.97,-5.33 -7.13,-9.47 -0.21,-5.31 1.4,-10.75 2.73,-15.85 2.22,-8.48 5.3,-17.24 11.07,-23.81 3.26,-3.72 7.19,-6.53 11.87,-8.13 1.47,-0.5 2.44,-1.98 2.01,-3.55 -0.39,-1.44 -2.07,-2.52 -3.55,-2.01 z"
           id="path448" />
        <path
           d="m 110.41,67.62 c -4.67,4.97 -6.33,11.64 -7.93,18.07 -0.38,1.52 -0.76,3.04 -1.21,4.54 -0.23,0.79 -0.48,1.57 -0.75,2.34 -0.24,0.68 -0.54,1.47 -0.71,1.84 -1.22,2.72 -2.75,4.94 -4.92,6.43 -1.28,0.88 -1.86,2.53 -1.03,3.94 0.74,1.27 2.66,1.92 3.94,1.03 5.78,-3.99 8.14,-10.43 9.82,-16.97 1.57,-6.08 2.7,-12.73 6.86,-17.16 2.54,-2.7 -1.53,-6.79 -4.08,-4.08 v 0 z"
           id="path450" />
        <path
           d="m 174.57,353.88 c -1.49,0 -2.69,-1.2 -2.69,-2.69 V 221.14 c 0,-1.49 1.2,-2.69 2.69,-2.69 1.49,0 2.69,1.2 2.69,2.69 v 130.05 c 0,1.49 -1.2,2.69 -2.69,2.69 z"
           id="path452" />
        <path
           d="m 130.94,353.88 c -1.49,0 -2.69,-1.2 -2.69,-2.69 V 221.98 c 0,-1.49 1.2,-2.69 2.69,-2.69 1.49,0 2.69,1.2 2.69,2.69 v 129.21 c 0,1.49 -1.2,2.69 -2.69,2.69 z"
           id="path454" />
        <path
           d="m 105.95,217.7 c 22.49,7.81 47.7,8.72 70.94,3.94 6.3,-1.29 12.49,-3.08 18.48,-5.42 1.26,-0.49 2.13,-1.68 1.75,-3.08 -0.33,-1.2 -1.81,-2.24 -3.08,-1.75 -21.39,8.38 -45.73,10.09 -68.29,6.2 -6.27,-1.08 -12.46,-2.63 -18.47,-4.72 -3.05,-1.06 -4.36,3.77 -1.33,4.82 v 0 z"
           id="path456" />
        <g
           id="g462">
          <path
             class="cls-4"
             d="m 207.36,202.98 c -10.82,7.67 -22.65,14.7 -35.82,16.49 6.85,-0.93 20.42,26.97 22.85,31.89 12.72,-5.89 24.6,-16.5 36.18,-24.65 -7.07,-8.29 -14.14,-16.57 -21.22,-24.86 z"
             id="path458" />
          <path
             d="m 205.91,200.49 c -10.6,7.51 -22.05,14.36 -35.13,16.2 -3.18,0.45 -2.47,6.02 0.77,5.66 0.06,0 0.45,0 0.47,-0.02 0.04,0 0.08,0 0.12,0 -0.17,-0.02 -0.35,-0.05 -0.52,-0.07 0.01,0 0.22,0.04 0.25,0.05 0.12,0.05 0.82,0.28 0.3,0.07 -0.5,-0.2 0.19,0.11 0.32,0.19 0.19,0.11 0.37,0.23 0.55,0.35 0.27,0.18 0.58,0.47 0.12,0.08 0.45,0.39 0.9,0.77 1.32,1.19 0.94,0.93 1.79,1.94 2.61,2.97 0.06,0.08 0.33,0.43 0.02,0.02 0.11,0.14 0.21,0.28 0.31,0.42 0.21,0.29 0.42,0.57 0.63,0.86 0.49,0.67 0.96,1.36 1.42,2.04 3.52,5.24 6.57,10.8 9.46,16.4 1.01,1.95 1.99,3.92 2.96,5.89 0.73,1.48 2.62,1.65 3.94,1.03 13.3,-6.21 24.28,-16.25 36.18,-24.65 1.6,-1.13 1.86,-3.03 0.58,-4.53 -7.07,-8.29 -14.14,-16.57 -21.22,-24.86 -0.83,-0.97 -2.44,-1.05 -3.49,-0.45 -0.66,0.38 -1.32,0.75 -1.99,1.13 -3.23,1.83 -0.32,6.81 2.91,4.98 0.66,-0.38 1.32,-0.75 1.99,-1.13 -1.16,-0.15 -2.33,-0.3 -3.49,-0.45 7.07,8.29 14.14,16.57 21.22,24.86 0.19,-1.51 0.39,-3.02 0.58,-4.53 -11.89,8.4 -22.88,18.44 -36.18,24.65 l 3.94,1.03 c -2.26,-4.58 -4.58,-9.12 -7.09,-13.57 -3.18,-5.64 -6.6,-11.62 -11.23,-16.21 -1.77,-1.76 -4.33,-3.84 -7.02,-3.53 0.26,1.89 0.51,3.78 0.77,5.66 13.51,-1.9 25.55,-9.03 36.51,-16.78 1.27,-0.9 1.87,-2.52 1.03,-3.94 -0.73,-1.25 -2.67,-1.94 -3.94,-1.03 z"
             id="path460" />
        </g>
        <g
           id="g468">
          <path
             class="cls-4"
             d="m 94.77,202.92 c 10.82,7.67 22.65,14.7 35.82,16.49 -6.85,-0.93 -20.42,26.97 -22.85,31.89 -12.72,-5.89 -24.6,-16.5 -36.18,-24.65 7.07,-8.29 14.14,-16.57 21.22,-24.86 z"
             id="path464" />
          <path
             d="m 93.32,205.41 c 10.96,7.76 23,14.88 36.51,16.78 0.26,-1.89 0.51,-3.78 0.77,-5.66 -2.4,-0.27 -4.68,1.39 -6.35,2.9 -2.23,2.01 -4.06,4.51 -5.77,6.96 -3.81,5.46 -7.03,11.33 -10.09,17.24 -1.06,2.06 -2.1,4.13 -3.12,6.21 l 3.94,-1.03 c -13.3,-6.21 -24.28,-16.25 -36.18,-24.65 0.19,1.51 0.39,3.02 0.58,4.53 7.07,-8.29 14.14,-16.57 21.22,-24.86 l -3.49,0.45 c 0.66,0.38 1.32,0.75 1.99,1.13 3.23,1.83 6.14,-3.15 2.91,-4.98 -0.66,-0.38 -1.32,-0.75 -1.99,-1.13 -1.04,-0.59 -2.67,-0.52 -3.49,0.45 -7.07,8.29 -14.14,16.57 -21.22,24.86 -1.28,1.5 -1.01,3.4 0.58,4.53 11.89,8.4 22.88,18.44 36.18,24.65 1.33,0.62 3.21,0.46 3.94,-1.03 2.13,-4.32 4.32,-8.61 6.67,-12.81 1.62,-2.9 3.31,-5.76 5.12,-8.53 0.83,-1.27 1.7,-2.53 2.6,-3.75 0.13,-0.17 0.26,-0.35 0.39,-0.52 -0.07,0.09 -0.32,0.41 0.02,-0.02 0.21,-0.26 0.41,-0.52 0.62,-0.77 0.42,-0.51 0.86,-1.01 1.31,-1.5 0.45,-0.49 0.92,-0.96 1.42,-1.4 0.17,-0.15 0.98,-0.76 0.28,-0.27 0.21,-0.15 0.41,-0.3 0.63,-0.44 0.2,-0.13 0.41,-0.23 0.61,-0.36 0.63,-0.4 -0.53,0.25 0.1,-0.04 0.08,-0.04 0.17,-0.04 0.25,-0.07 0.61,-0.24 -0.38,0.26 -0.27,0.02 0.03,-0.06 0.54,0 0.59,0.01 3.2,0.36 3.98,-5.21 0.77,-5.66 -13.08,-1.84 -24.53,-8.7 -35.13,-16.2 -1.27,-0.9 -3.21,-0.23 -3.94,1.03 -0.84,1.44 -0.24,3.04 1.03,3.94 z"
             id="path466" />
        </g>
      </g>
    </g>
  </g>
</svg>
