<?xml version="1.0" encoding="utf-8"?>
<!-- Generator: Adobe Illustrator 26.4.1, SVG Export Plug-In . SVG Version: 6.00 Build 0)  -->
<svg version="1.1" id="_x32_" xmlns="http://www.w3.org/2000/svg" xmlns:xlink="http://www.w3.org/1999/xlink" x="0px" y="0px"
	 viewBox="0 0 120 120" style="enable-background:new 0 0 120 120;" xml:space="preserve">
<style type="text/css">
	.st0{fill:#FFFFFF;}
</style>
<g>
	<g>
		<path class="st0" d="M113,39.6v-17c-2.9-0.6-5.2-2.8-5.9-5.6H58.4c-0.7,2.8-3,5-5.9,5.6v4.3h19.3c1.7-4.4,5.9-7.5,10.9-7.5
			c5,0,9.3,3.1,10.9,7.5h9v1.4c0.1,0,0.1,0,0.2,0c1.5,0,2.8,1.2,2.8,2.8c0,1.5-1.2,2.8-2.8,2.8c-0.1,0-0.1,0-0.2,0v11.3h4.5
			C107.8,42.3,110.1,40.1,113,39.6z"/>
		<polygon class="st0" points="45.5,10 45.5,11.6 45.5,26.9 49.4,26.9 49.4,13.9 116.1,13.9 116.1,48.3 102.6,48.3 102.6,52.2 
			120,52.2 120,49.4 120,10 		"/>
	</g>
	<path class="st0" d="M82.8,87.3c-2.6,2.2-15.9,11-15.9,11H45l-0.1,0c-1.2,0-2.1-1-2-2.2c0-1.2,1-2.1,2.2-2h16
		c3.2,0,5.9-2.7,5.9-5.9c0-3.2-2.6-5.9-5.9-5.9c-2.9,0-8.8,0-23.4,0c-14.6,0-17.7,6.2-20.2,10.4V117l27.4,2.8
		c10.3,0.6,15.3,0,22.6-6.2c0,0,22-16,24.6-18.2c2.5-2.3,2.5-5.7,0.2-8.2C89.9,84.7,85.6,85.2,82.8,87.3z"/>
	<rect y="87.1" class="st0" width="12.7" height="31"/>
	<polygon class="st0" points="60.6,58.1 63.2,58.1 63.2,55.1 67.3,55.1 67.3,54.8 67.3,52.8 67.3,52.8 63.2,52.8 63.2,51.9 
		63.8,50.7 67.3,50.7 67.3,50.3 67.3,48.9 67.3,48.5 65,48.5 66.9,44.6 66.6,44.6 64.7,44.6 64.4,44.6 61.9,49.5 59.3,44.6 59,44.6 
		57.1,44.6 56.8,44.6 58.7,48.5 56.5,48.5 56.5,48.9 56.5,50.3 56.5,50.7 59.9,50.7 60.6,51.9 60.6,52.8 56.5,52.8 56.5,52.8 
		56.5,54.8 56.5,55.1 60.6,55.1 	"/>
	<path class="st0" d="M37.5,65.7h48.7c0.7-2.8,3-5,5.9-5.6v-17c-2.9-0.6-5.2-2.8-5.9-5.6H37.5c-0.7,2.8-3,5-5.9,5.6v17
		C34.5,60.7,36.8,62.9,37.5,65.7z M81.9,48.8c1.5,0,2.8,1.2,2.8,2.8c0,1.5-1.2,2.8-2.8,2.8c-1.5,0-2.8-1.2-2.8-2.8
		C79.1,50.1,80.4,48.8,81.9,48.8z M61.9,39.9c6.5,0,11.7,5.2,11.7,11.7c0,6.5-5.2,11.7-11.7,11.7c-6.5,0-11.7-5.2-11.7-11.7
		C50.2,45.1,55.4,39.9,61.9,39.9z M41.8,48.8c1.5,0,2.8,1.2,2.8,2.8c0,1.5-1.2,2.8-2.8,2.8c-1.5,0-2.8-1.2-2.8-2.8
		C39,50.1,40.3,48.8,41.8,48.8z"/>
	<path class="st0" d="M24.6,30.5v1.7v40.6h74.5v-2.8V30.5H24.6z M95.2,68.8H28.5V34.4h66.7V68.8z"/>
</g>
</svg>
