<?xml version="1.0" encoding="UTF-8"?><svg id="ico_question" xmlns="http://www.w3.org/2000/svg" xmlns:xlink="http://www.w3.org/1999/xlink" viewBox="0 0 304.47 440.2"><defs><style>.cls-1{clip-path:url(#clippath);}.cls-2{fill:#fff;}.cls-3{fill:#fc0;}.cls-4{fill:#c8e5f0;}.cls-5{fill:#1b1464;}.cls-6{fill:#269ac2;}</style><clipPath id="clippath"><circle class="cls-4" cx="152.47" cy="155.35" r="149"/></clipPath></defs><circle class="cls-4" cx="152.47" cy="155.35" r="149"/><g class="cls-1"><g><path class="cls-6" d="M223.78,64.36c-.2-.19-.41-.38-.64-.54-4.15-16.62-16.31-31.43-31.99-38.39-1.1-.49-2.31-.78-3.51-.84-4.52-3.57-9.81-6.15-15.54-7.27-9.78-1.92-19.08,.36-28.21,3.59-1.85-.98-3.77-1.82-5.82-2.44-6.78-2.04-13.19-.53-19.44,2.3-8.89,4.01-17.05,9.94-23.87,16.89-6.82,6.94-12.58,15.13-16.56,24.02-4.12,9.19-6.97,19.05-6.86,29.2,.06,5.27,.84,10.74,2.82,15.65,2.44,6.04,6.03,10.8,11.22,14.74,.77,.59,1.9,.88,3.03,.97,3.42,11.8,7.82,23.29,13.06,34.4,1.56,3.32,6.11,4.34,9.22,3.02,2.58-1.09,4.21-3.45,4.47-6.1,.58-1.02,.88-2.17,.76-3.36-.93-9.05-1.85-18.1-2.78-27.15-.22-2.15-.44-4.31-.66-6.46-.08-.8-.18-1.61-.25-2.41,.65-.3,1.3-.57,1.95-.86,1.63-.72,3.24-1.49,4.82-2.3,12.89-6.58,24.57-15.99,33.78-27.16,1.93-2.34,3.77-4.74,5.51-7.21,2.06,3.28,6.61,4.39,9.97,2.43,10.06-5.88,19.26-13.31,27.08-21.96,.41,.59,.82,1.18,1.24,1.77,1.86,6.78,7.02,12.83,13.38,16.04,2.56,2.06,5.44,3.77,8.75,4.96,.05,.02,.1,.03,.16,.05,.46-.91,.89-1.85,1.28-2.79,.24-.61,.47-1.21,.71-1.82,1.29-3.52,2.18-7.21,2.92-10.94Z"/><path class="cls-2" d="M30.66,303.61h249.69c.42-.9,.64-1.91,.59-2.99-.05-1.13-.36-2.26-.87-3.28,.19-.65,.29-1.33,.26-2.01-.07-1.47-.5-2.79-1.2-3.9,0-.65-.06-1.32-.18-2.02-.71-4.28-1.67-8.51-2.88-12.66-.55-2.84-1.58-5.65-2.71-8.32,.39-1.71,.17-3.56-.8-5.23-5.71-9.92-11.65-20.1-20.08-28-8.26-7.74-18.83-13.31-30.28-13.71-2.58-2.08-5.18-4.13-7.81-6.15-.02-.26-.05-.52-.07-.78-.32-3.47-.49-7.08-3.1-9.72-2.15-2.18-4.87-3.04-7.81-3.47-2.81-.41-5.63-.7-8.47-.64-2.4,.05-4.82,.28-7.2,.68-.24-.52-.7-1.5-.09-.22-1.26-2.65-2.27-5.47-3.18-8.31,.04-.11,.08-.22,.13-.33,.29-.72,.2-.74,.08-.39,.41-1.4,1.48-2.94,2.13-4.15,.82-1.51,1.7-2.99,2.65-4.43,.14-.21,.28-.42,.42-.62,.41-.25,.81-.53,1.19-.86l6.69-5.61c2-1.68,4.14-3.28,5.85-5.28,2.44-2.86,4.09-6.15,4.21-9.97,.03-.99-.06-2-.26-2.98,1.25-1.75,2.38-3.56,3.37-5.41,9.01-16.7,8.75-36.41,7.17-54.8-.63-7.25-1.58-14.64-4.06-21.52-.05-.05-.11-.09-.16-.14-1.57-1.1-3.06-2.33-4.45-3.68-1.04-.79-2.03-1.63-2.97-2.54-2.17-1.85-4.1-3.97-5.68-6.43-1.8-2.28-3.33-4.82-4.64-7.46-3.04-.47-5.98,.58-8.16,2.77-1.62,1.63-2.61,3.68-3.81,5.61-.24,.38-.49,.76-.75,1.13-.12,.17-.24,.33-.36,.5-.05,.06-.12,.14-.21,.26-.6,.67-1.19,1.35-1.83,1.98-.32,.32-.65,.62-.99,.92-.11,.1-1.05,.87-.98,.83-.75,.56-1.54,1.09-2.35,1.57-.78,.47-1.57,.9-2.39,1.29-.3,.15-.61,.29-.92,.43,.07-.04-1.07,.4-1.21,.45-.93,.32-1.87,.6-2.82,.83-.37,.09-.73,.17-1.1,.25-.17,.03-1.42,.24-1.27,.23-1.81,.21-3.65,.24-5.46,.1-.11,0-.81-.09-.9-.1-.44-.07-.88-.15-1.31-.25-1.03-.22-2.04-.52-3.04-.86-1.97-.67-4.82,.41-5.75,2.34-.86,1.78-1.83,3.5-2.92,5.15-.5,.76-1.03,1.49-1.57,2.23-.07,.09-.12,.16-.15,.2-.04,.04-.09,.11-.17,.21-.34,.41-.67,.83-1.01,1.23-2.53,3-5.34,5.75-8.21,8.42-1.79,1.67-3.62,3.31-5.44,4.95-6.64,1.69-13.07,4.35-17.61,9.68-3.38,3.97-5.52,8.48-5.86,13.74-.18,2.7,.48,5.35,1.63,7.77,.08,.18,.17,.35,.26,.52-.25,.79-.47,1.59-.69,2.39-.04,.51-.08,1.01-.11,1.52,.73,1.34,1.57,2.62,2.53,3.82,.84-.33,2.13,.52,1.83,1.73-.02,.09-.05,.19-.07,.28,.27,.44,.15,1.02-.09,1.44-.19,.33-.37,.67-.54,1-1,3.77-2.06,7.52-2.96,11.31-.46,3.24-.91,6.48-1.21,9.73-.03,.37-.19,.64-.41,.83,.22,1.41,.47,2.8,.75,4.19-.05,.29-.1,.59-.15,.88-.43,1.82-.85,3.64-1.28,5.46-1.12,2.17-2.25,4.33-3.39,6.49-.22,.24-.43,.5-.64,.77-8.17,10.86-16.04,21.94-23.6,33.23-4.29,3.47-8.61,6.89-12.76,10.52-6.27,5.49-11.94,11.6-17.18,18.08-6.45,7.99-12.35,16.39-18.2,24.81-.97,1.39-1.21,3.08-.93,4.7-1.04,.92-1.86,2.15-2.39,3.58-1.55,4.16-2.42,8.59-2.69,13.03-.16,2.58,.44,5.07,1.68,7.14,.1,2.43,1.59,4.7,3.67,5.98Z"/></g><rect class="cls-3" x="32" y="289.41" width="246.29" height="14.59"/><path class="cls-3" d="M151.23,285.42c-.72,4.03-2.61,4.27-4.44,10.54-1.26,4.34-.82,5.96-2.22,6.93-2.83,1.97-8.48-1.94-11.37-3.6-11.64-6.69-19-.1-46.31-.83-19.67-.53-21.68-6.03-30.22-2.5-2.51,1.04-11.53,5.25-21.07,7.65,0,0-7.3,1.83-8.04-.46-.13-.39,.05-1.32-.55-2.48-.13-.24-.25-.4-.27-.44-.4-.99,.2-2.68,1.1-11.48,.81-7.9,.52-8.87,1.39-12.76,.93-4.18,2.16-7.12,3.6-10.54,1.35-3.19,3.89-9.09,8.32-15.25,3.31-4.61,6.41-7.48,12.48-13.03,12.26-11.23,14.21-10.58,21.61-18.65,4.94-5.4,9.34-11.45,10.76-13.39,4.06-5.59,6.1-8.38,7.63-10.96,4.15-6.99,4.68-10.05,7.6-10.79,2.28-.58,3.48,.9,9.25,3.5,3.64,1.64,6.67,2.56,12.72,4.38,7.96,2.4,7.9,1.55,15.29,3.78,9.6,2.9,12.9,5.29,14.31,6.4,2.44,1.93,4.98,3.93,6.21,7.47,1.29,3.69,.43,7.01-.92,12.21-1.4,5.4-2.45,5.81-3.79,11.08-.95,3.72-.63,4.31-1.57,10.89-1.21,8.48-1.87,8.41-2.86,15.72-.94,6.92-1.4,10.39-.89,14.41,.89,6.87,3.07,7.7,2.27,12.22Z"/><path class="cls-3" d="M266.03,253.26c2.86,4.03,5.8,8.23,8.6,14.42,.5,1.12,2.26,5.09,3.8,10.63,.95,3.43,.61,3.94,1.75,14.33,.93,8.5,1.29,10.01,.18,10.97-2.16,1.89-6.18-1.5-13.49-3.77-11.04-3.42-13.77,1.29-31.06-1.66-11.55-1.97-10.2-2.49-14.87-2.72-10.17-.5-20.03,1.79-21.45-1.44-.53-1.21,.43-2.52-.55-3.6-1.34-1.48-4.01-.01-4.99-1.11-1.15-1.28,1.05-4.87,3.33-8.87,4.58-8.04,6.87-12.06,7.76-15.53,1.8-6.95-.29-10.32,1.94-11.65,3.37-2,8.98,5.15,16.08,3.05,.78-.23,2.43-.74,2.77-1.94,.38-1.34-1.08-2.77-5.27-6.93-4.24-4.21-5.87-5.87-5.55-6.38,.5-.78,4.98,2.07,6.1,.83,.5-.56,.14-1.72-2.22-6.38-1.44-2.83-3.38-6.49-4.99-9.98-.58-1.26-1.38-3.33-1.66-6.1-.21-2-.38-3.7,.55-4.44,1.07-.85,2.87,.14,7.02,1.76,5.03,1.96,4.56,1.35,7.68,2.68,2.14,.91,5.16,2.39,10.81,6.38,4.25,3,9.59,6.77,15.81,13.03,5.88,5.93,9.56,11.08,11.92,14.42Z"/><g><path class="cls-5" d="M207.5,74.45c-6.3,4.87-8.93,13.67-7.18,21.32,.99,4.32,3.56,7.98,6.69,11.04,1.62,1.58,3.38,3.01,5.12,4.45,.79,.65,1.56,1.32,2.22,2.1,.02,.02,.22,.29,.24,.29l-.16-.2c.05,.07,.1,.13,.15,.2,.14,.2,.27,.41,.39,.62,.06,.11,.11,.22,.17,.32,.2,.38-.14-.43,0-.02,.09,.27,.16,.54,.23,.82,.1,.43-.02-.49,0-.02,0,.18,.02,.36,.01,.55,0,.09-.01,.18-.02,.27-.02,.22-.02,.18,.02-.12-.02,.09-.03,.18-.05,.27-.07,.31-.17,.61-.28,.91-.15,.44,.2-.38-.02,.04-.09,.16-.16,.33-.25,.5-.16,.29-.33,.57-.51,.84-.08,.12-.16,.23-.24,.35-.06,.08-.11,.15-.17,.23,.17-.21,.18-.23,.05-.07-.41,.51-.84,1-1.29,1.48-.87,.92-1.8,1.79-2.78,2.58-.11,.09-.21,.19-.33,.26,.45-.29-.07,.05-.16,.12-.26,.2-.53,.39-.8,.57-.54,.37-1.09,.72-1.66,1.06-.89,.53-1.29,1.8-.71,2.69,.58,.89,1.75,1.27,2.69,.71,2.11-1.25,4.09-2.78,5.84-4.51,1.77-1.76,3.51-3.78,4.27-6.19,.41-1.29,.45-2.74,.07-4.04-.36-1.21-1.03-2.24-1.83-3.2-1.38-1.65-3.21-2.91-4.84-4.31-1.76-1.5-3.46-3.09-4.92-4.88-.09-.11-.17-.22-.26-.32-.29-.36,.19,.25,.01,.02-.15-.2-.3-.41-.45-.61-.34-.49-.67-.99-.97-1.51-.23-.4-.44-.8-.64-1.22-.07-.15-.35-.87-.12-.25-.09-.24-.2-.48-.29-.73-.31-.84-.55-1.7-.73-2.58-.04-.22-.08-.44-.12-.66-.02-.11-.03-.22-.05-.33-.07-.41,.06,.5,.01,.08-.05-.48-.1-.96-.12-1.45-.04-.93-.02-1.87,.07-2.8,.02-.22,.06-.45,.07-.67-.05,.68,0,0,.03-.14,.08-.48,.17-.96,.29-1.43,.24-1.02,.57-2.02,.96-2.99,.15-.39-.19,.44-.02,.06,.06-.14,.12-.27,.18-.41,.11-.24,.22-.47,.34-.7,.22-.43,.46-.85,.71-1.27,.27-.44,.56-.88,.87-1.3,.07-.09,.14-.18,.2-.27-.36,.51-.05,.07,.04-.04,.17-.2,.33-.4,.51-.59,.7-.78,1.47-1.49,2.29-2.13,.37-.29,.58-.95,.58-1.39,0-.48-.21-1.06-.58-1.39-.38-.34-.87-.6-1.39-.58-.56,.02-.96,.24-1.39,.58h0Z"/><path class="cls-5" d="M191.39,45.77c-.55,2.83-1.4,5.6-2.52,8.26,.08-.2,.17-.39,.25-.59-1.48,3.49-3.4,6.78-5.69,9.8-.06,.07-.11,.15-.17,.22,.43-.57,.21-.28,.11-.14-.12,.15-.24,.3-.36,.45-.29,.35-.58,.7-.87,1.04-.56,.64-1.13,1.27-1.73,1.87-.61,.62-1.25,1.22-1.91,1.79-.33,.29-.66,.57-1,.84-.07,.05-.14,.11-.2,.16-.37,.3,.4-.3,.14-.1-.19,.14-.38,.29-.58,.43-1.58,1.15-3.27,2.13-5.07,2.9,.2-.08,.39-.17,.59-.25-1.7,.71-3.47,1.22-5.29,1.47,.22-.03,.44-.06,.65-.09-1.66,.21-3.34,.21-5,0,.22,.03,.44,.06,.65,.09-1.26-.17-2.5-.47-3.7-.88-1.22-.42-2.75,.48-3.03,1.72-.31,1.37,.41,2.58,1.72,3.03,3.81,1.3,7.98,1.47,11.89,.54,3.22-.76,6.29-2.27,8.97-4.19,5.55-4,9.94-9.6,12.98-15.69,1.79-3.6,3.17-7.42,3.93-11.37,.13-.66,.1-1.3-.25-1.9-.3-.51-.88-1-1.47-1.13-1.22-.28-2.77,.37-3.03,1.72h0Z"/><path class="cls-5" d="M154.3,56.34c-.96,4.49-2.35,8.88-4.13,13.11l.25-.59c-1.18,2.78-2.53,5.49-4.05,8.11-.75,1.29-1.55,2.56-2.39,3.8-.42,.62-.85,1.23-1.29,1.83-.21,.29-.43,.58-.65,.87-.1,.14-.21,.27-.31,.41-.27,.35,.33-.43,.14-.18-.08,.11-.16,.21-.25,.32-1.83,2.33-3.83,4.53-5.98,6.56-1.07,1.01-2.18,1.98-3.33,2.91-.26,.21-.53,.42-.8,.63,.69-.55,.11-.09-.04,.03-.17,.13-.33,.25-.5,.37-.59,.44-1.19,.86-1.8,1.28-2.76,1.87-5.7,3.48-8.78,4.77l.59-.25c-3.85,1.62-7.9,2.74-12.03,3.35-.57,.08-1.2,.66-1.47,1.13-.31,.53-.44,1.31-.25,1.9,.19,.6,.56,1.17,1.13,1.47,.62,.33,1.2,.35,1.9,.25,4.94-.72,9.71-2.21,14.24-4.31,4.4-2.04,8.46-4.74,12.17-7.86,3.73-3.14,6.99-6.75,9.89-10.66,2.83-3.81,5.24-7.92,7.21-12.23,2.06-4.49,3.72-9.16,4.87-13.96,.14-.58,.27-1.16,.4-1.74,.27-1.26-.37-2.72-1.72-3.03-1.24-.28-2.74,.37-3.03,1.72h0Z"/><path class="cls-5" d="M190.18,23.24c-4.09-3.17-8.8-5.44-13.88-6.53-5.08-1.1-10.34-1.12-15.42-.03-2.82,.61-5.55,1.61-8.12,2.92-1.15,.59-1.57,2.3-.88,3.37,.76,1.17,2.14,1.51,3.37,.88,.67-.34,1.35-.66,2.05-.95l-.59,.25c2.54-1.06,5.22-1.77,7.95-2.15l-.65,.09c2.98-.4,6.01-.4,9,0l-.65-.09c2.94,.4,5.82,1.18,8.55,2.33-.2-.08-.39-.17-.59-.25,1.21,.52,2.39,1.1,3.52,1.76,.56,.32,1.11,.67,1.64,1.03,.28,.19,.55,.38,.82,.57,.14,.1,.27,.2,.4,.3,.14,.11,.65,.5,0,0,.54,.42,1.03,.72,1.74,.72,.6,0,1.33-.27,1.74-.72,.43-.47,.75-1.09,.72-1.74-.03-.6-.22-1.35-.72-1.74h0Z"/><path class="cls-5" d="M143.81,17.51c-3.62-1.69-7.53-2.52-11.53-2.53-3.85,0-7.73,.7-11.35,1.97-7.31,2.57-13.68,7.08-19.59,12-5.58,4.63-10.73,9.77-15.38,15.33-4.71,5.64-9.06,11.69-12.62,18.13-1.8,3.26-3.37,6.74-4.2,10.38-.83,3.61-1.01,7.53,.26,11.06,.34,.95,.75,1.88,1.26,2.75,.64,1.12,2.26,1.6,3.37,.88,1.13-.73,1.57-2.17,.88-3.37-.29-.5-.55-1.02-.77-1.55l.25,.59c-.46-1.13-.77-2.3-.94-3.51l.09,.65c-.2-1.57-.16-3.15,.04-4.72l-.09,.65c.35-2.56,1.14-5.03,2.14-7.4l-.25,.59c1.69-3.99,3.99-7.71,6.38-11.32,1.22-1.84,2.48-3.65,3.8-5.41,.31-.41,.62-.83,.93-1.24,.1-.13,.63-.8,.13-.17,.2-.26,.4-.52,.61-.78,.67-.85,1.35-1.69,2.04-2.52,2.79-3.35,5.76-6.55,8.9-9.58,1.55-1.5,3.14-2.96,4.78-4.37,.82-.71,1.64-1.4,2.48-2.09,.42-.34,.84-.68,1.26-1.02,.21-.16,.41-.33,.62-.49,.11-.09,.23-.18,.34-.27,.08-.06,.15-.12,.23-.18-.31,.24-.36,.28-.16,.12,3.97-3.03,8.17-5.78,12.78-7.75l-.59,.25c2.86-1.21,5.84-2.09,8.92-2.51l-.65,.09c2.54-.34,5.11-.38,7.65-.04l-.65-.09c2.05,.28,4.06,.81,5.98,1.61-.2-.08-.39-.17-.59-.25,.26,.11,.52,.23,.78,.35,.61,.29,1.22,.43,1.9,.25,.57-.16,1.19-.6,1.47-1.13,.57-1.09,.36-2.79-.88-3.37h0Z"/><path class="cls-5" d="M71.33,105.01c-.41,4.94,1.44,9.91,4.67,13.61,3.34,3.83,8.35,5.94,13.4,6.01,2.94,.04,5.84-.65,8.47-1.95,1.16-.57,1.57-2.31,.88-3.37-.76-1.19-2.13-1.49-3.37-.88-.27,.13-.54,.26-.82,.38,.2-.08,.39-.17,.59-.25-1.27,.53-2.6,.89-3.96,1.09l.65-.09c-1.45,.19-2.92,.2-4.37,.01,.22,.03,.44,.06,.65,.09-1.45-.2-2.87-.57-4.22-1.14,.2,.08,.39,.17,.59,.25-.93-.4-1.82-.88-2.65-1.45-.1-.07-.2-.14-.3-.21-.08-.06-.46-.35-.1-.07,.34,.27,.03,.02-.04-.04-.1-.08-.19-.16-.29-.24-.38-.32-.74-.66-1.08-1.02-.33-.34-.64-.7-.94-1.07-.33-.41,.23,.31,.08,.11-.06-.08-.12-.17-.18-.25-.15-.2-.29-.41-.42-.61-.55-.83-1.01-1.71-1.41-2.62l.25,.59c-.56-1.34-.95-2.74-1.15-4.18l.09,.65c-.14-1.11-.18-2.23-.08-3.34,.11-1.29-1.21-2.52-2.46-2.46-1.43,.06-2.35,1.08-2.46,2.46h0Z"/><path class="cls-5" d="M85.67,130.04c2.04,5.17,4.24,10.28,6.6,15.32,2.3,4.89,4.75,9.7,7.35,14.43,1.46,2.66,2.97,5.29,4.53,7.89,.63,1.06,1.95,1.48,3.07,1.01,.47-.2,.93-.54,1.18-1.01,.33-.63,.34-1.2,.25-1.9,0-.05-.01-.1-.02-.15l.09,.65c-.42-3.16-.41-6.36,0-9.52l-.09,.65c.43-3.16,1.26-6.25,2.49-9.19,.23-.55,.04-1.41-.25-1.9-.3-.51-.88-1-1.47-1.13-.63-.14-1.34-.11-1.9,.25-.58,.37-.87,.84-1.13,1.47-2.02,4.83-2.99,10.13-2.89,15.36,.03,1.62,.2,3.22,.42,4.82,1.5-.63,3-1.26,4.5-1.9-4.72-7.9-9.02-16.06-12.85-24.43-1.07-2.34-2.11-4.69-3.11-7.06,.08,.2,.17,.39,.25,.59-.78-1.85-1.54-3.7-2.27-5.57-.24-.62-.54-1.12-1.13-1.47-.53-.31-1.31-.44-1.9-.25-.6,.19-1.17,.56-1.47,1.13-.29,.55-.49,1.29-.25,1.9h0Z"/><path class="cls-5" d="M123.35,111.51c-.46-2.31-2.34-3.94-4.45-4.75-2.13-.83-4.46-.49-6.47,.49-1.97,.96-3.52,2.66-4.73,4.44-1.18,1.73-2.04,3.73-2.6,5.75-1.1,4.02-1.02,8.48,.36,12.43,1.42,4.08,4.05,7.46,7.54,9.98,3.61,2.61,8.18,4.03,12.63,3.88,1.29-.04,2.52-1.1,2.46-2.46-.06-1.3-1.08-2.51-2.46-2.46-.99,.03-1.97-.02-2.95-.15l.65,.09c-1.63-.23-3.22-.67-4.74-1.31,.2,.08,.39,.17,.59,.25-1.06-.45-2.08-1-3.04-1.63-.22-.15-.44-.3-.66-.46-.12-.08-.23-.18-.35-.26,.62,.43,.25,.2,.11,.08-.45-.36-.88-.74-1.3-1.14-.4-.38-.78-.79-1.14-1.21-.17-.2-.33-.42-.51-.62,.53,.61,.13,.16,.01,0-.07-.1-.14-.2-.21-.3-.68-.97-1.25-2.02-1.72-3.11,.08,.2,.17,.39,.25,.59-.64-1.52-1.06-3.11-1.28-4.74l.09,.65c-.21-1.68-.21-3.37,.01-5.05l-.09,.65c.22-1.59,.64-3.14,1.25-4.62-.08,.2-.17,.39-.25,.59,.29-.68,.61-1.34,.98-1.97,.18-.32,.37-.62,.58-.93,.11-.16,.22-.31,.33-.47,.02-.03,.12-.2,.15-.2-.06,0-.4,.51-.11,.15,.45-.56,.95-1.08,1.51-1.54,.4-.33-.42,.3,0,0,.15-.11,.31-.21,.47-.31,.32-.2,.65-.36,.99-.51-.2,.08-.39,.17-.59,.25,.48-.2,.98-.35,1.5-.43l-.65,.09c.46-.06,.92-.06,1.39,0l-.65-.09c.5,.07,.98,.2,1.45,.39-.2-.08-.39-.17-.59-.25,.26,.11,.51,.24,.75,.39,.12,.07,.23,.16,.35,.24-.66-.43-.3-.23-.14-.09,.09,.08,.17,.17,.25,.26,.39,.43-.28-.43-.07-.1,.15,.23,.28,.46,.39,.71-.08-.2-.17-.39-.25-.59,.09,.23,.16,.46,.21,.7,.25,1.26,1.82,2.11,3.03,1.72,1.34-.43,1.99-1.67,1.72-3.03h0Z"/><path class="cls-5" d="M198.97,33.66c.18,.14,.37,.28,.55,.42,.41,.31-.46-.36-.06-.04,.07,.06,.15,.11,.22,.17,.4,.31,.81,.63,1.21,.95,.73,.58,1.45,1.17,2.17,1.77,1.48,1.24,2.93,2.52,4.32,3.87,1.37,1.32,2.68,2.7,3.91,4.15,.28,.33,.56,.67,.84,1.02,.14,.18,.28,.37,.43,.54-.53-.64,.09,.12,.2,.27,.56,.76,1.1,1.54,1.61,2.33,1.01,1.57,1.89,3.21,2.62,4.93-.08-.2-.17-.39-.25-.59,1.08,2.58,1.83,5.29,2.21,8.06-.03-.22-.06-.44-.09-.65,.31,2.35,.34,4.73,.04,7.08,.03-.22,.06-.44,.09-.65-.26,1.9-.74,3.76-1.48,5.53,.08-.2,.17-.39,.25-.59-.47,1.11-1.04,2.17-1.71,3.17-.17,.25-.35,.5-.53,.74-.25,.34,.42-.53,.03-.04-.1,.12-.19,.24-.29,.36-.4,.48-.83,.93-1.28,1.37-.93,.9-.97,2.59,0,3.48,1,.91,2.49,.96,3.48,0,2.76-2.67,4.71-6.12,5.71-9.82,1.01-3.76,1.04-7.65,.5-11.49-.51-3.64-1.7-7.19-3.37-10.46-1.95-3.82-4.66-7.28-7.61-10.37-3.42-3.59-7.29-6.72-11.22-9.73-.47-.36-1.36-.4-1.9-.25-.57,.16-1.19,.6-1.47,1.13-.3,.57-.45,1.26-.25,1.9,.21,.65,.59,1.06,1.13,1.47h0Z"/><path class="cls-5" d="M213.07,80.64c.25,6.17,.5,12.33,.75,18.5,.07,1.75,.14,3.49,.21,5.24,.05,1.29,1.1,2.52,2.46,2.46,1.29-.06,2.52-1.08,2.46-2.46-.25-6.17-.5-12.33-.75-18.5-.07-1.75-.14-3.49-.21-5.24-.05-1.29-1.09-2.52-2.46-2.46-1.29,.06-2.52,1.08-2.46,2.46h0Z"/><path class="cls-5" d="M213.87,128.03c-1.2,8.88-3.28,17.64-6.21,26.11-.83,2.38-1.72,4.74-2.68,7.08-.23,.55-.04,1.41,.25,1.9,.3,.51,.88,1,1.47,1.13,.63,.14,1.34,.11,1.9-.25,.57-.37,.87-.84,1.13-1.47,3.4-8.29,5.97-16.92,7.67-25.72,.48-2.48,.88-4.97,1.22-7.47,.09-.69,.12-1.27-.25-1.9-.3-.51-.88-1-1.47-1.13-.63-.14-1.34-.11-1.9,.25-.5,.32-1.05,.86-1.13,1.47h0Z"/><path class="cls-5" d="M169.06,200.31c2.34-6.17,4.71-12.33,7.08-18.48,.64-1.66,1.25-3.33,1.94-4.97-.08,.2-.17,.39-.25,.59,.19-.44,.39-.88,.62-1.31,.11-.21,.24-.41,.37-.61,.06-.09,.12-.18,.18-.27,.26-.4-.39,.44-.07,.09,.15-.16,.29-.32,.44-.47,.05-.05,.23-.25,.3-.26-.09,.07-.19,.14-.28,.22,.07-.05,.15-.11,.22-.16,.42-.28,.87-.51,1.33-.71-.2,.08-.39,.17-.59,.25,1.45-.61,2.99-1.06,4.48-1.56,1.63-.55,3.25-1.1,4.88-1.64,3.2-1.08,6.41-2.15,9.61-3.22,.9-.3,1.81-.6,2.71-.91,.89-.3,1.78-.64,2.72-.77-.22,.03-.44,.06-.65,.09,.3-.03,.6-.04,.9,0l-.65-.09c.22,.04,.44,.09,.65,.17-.2-.08-.39-.17-.59-.25,.17,.07,.32,.16,.47,.25,.32,.19-.37-.36-.2-.15,.05,.06,.13,.13,.19,.19,.25,.23-.2-.25-.18-.25,.03,0,.13,.19,.15,.23,.11,.17,.2,.35,.27,.54-.08-.2-.17-.39-.25-.59,.12,.31,.21,.63,.25,.97l-.09-.65c.04,.33,.04,.66,0,1,.03-.22,.06-.44,.09-.65-.06,.39-.17,.76-.32,1.13,.08-.2,.17-.39,.25-.59-.12,.28-.26,.55-.42,.82-.09,.15-.19,.29-.29,.44-.05,.07-.2,.26,.03-.04,.27-.35-.02,.01-.06,.06-.42,.5-.9,.94-1.4,1.36-.12,.1-.25,.2-.37,.3,.59-.49,.09-.08-.05,.03-.28,.2-.56,.39-.85,.58-.56,.36-1.13,.7-1.71,1.02-2.35,1.3-4.83,2.38-7.04,3.92-4.52,3.13-7.9,7.51-9.96,12.59-1.11,2.73-1.71,5.65-1.85,8.58-.06,1.29,1.18,2.52,2.46,2.46,1.39-.06,2.39-1.08,2.46-2.46,.03-.66,.09-1.33,.18-1.99l-.09,.65c.29-2.14,.87-4.23,1.7-6.23l-.25,.59c.53-1.26,1.17-2.48,1.89-3.65,.35-.56,.73-1.11,1.12-1.65,.11-.15,.51-.62,0,0,.11-.13,.21-.26,.31-.39,.21-.26,.42-.51,.64-.76,.91-1.03,1.9-1.98,2.96-2.84,.15-.12,.63-.46,0,0,.13-.1,.26-.2,.4-.3,.27-.2,.54-.39,.82-.57,.61-.41,1.25-.79,1.89-1.15,2.61-1.46,5.4-2.63,7.79-4.45,1.42-1.08,2.78-2.28,3.66-3.86,.9-1.61,1.29-3.59,.68-5.37-.61-1.8-2.01-3.41-3.96-3.77-2.08-.38-4,.43-5.93,1.07-3.36,1.12-6.72,2.25-10.08,3.38-3.32,1.12-6.68,2.16-9.97,3.37-1.69,.62-3.33,1.44-4.48,2.88-1.12,1.41-1.78,2.99-2.43,4.66-2.56,6.61-5.1,13.22-7.62,19.84-.31,.81-.62,1.62-.93,2.44-.21,.56-.05,1.4,.25,1.9,.3,.51,.88,1,1.47,1.13,.63,.14,1.34,.11,1.9-.25,.57-.37,.89-.84,1.13-1.47h0Z"/><path class="cls-5" d="M173.5,210.61c.26-.25,.53-.5,.81-.73,.07-.06,.14-.12,.21-.17-.32,.24-.38,.29-.17,.14,.15-.1,.3-.21,.45-.31,.6-.4,1.24-.74,1.91-1.03-.2,.08-.39,.17-.59,.25,.78-.32,1.59-.55,2.43-.66-.22,.03-.44,.06-.65,.09,.4-.05,.81-.05,1.21-.09,.54-.05,1.07-.12,1.61-.17,.99-.09,1.97-.15,2.96-.18,1.95-.07,3.9-.05,5.85,.04,3.88,.17,7.74,.58,11.61,.92,1.92,.17,3.85-.08,5.78,.16l-.65-.09c.74,.1,1.47,.27,2.17,.55-.2-.08-.39-.17-.59-.25,.41,.17,.77,.38,1.14,.63,.24,.16-.48-.4-.19-.15,.07,.06,.14,.12,.21,.18,.14,.13,.28,.27,.42,.41,.06,.06,.11,.13,.17,.19,.28,.31-.17-.16-.16-.22,0,.08,.24,.34,.29,.42,.2,.31,.36,.64,.51,.98-.08-.2-.17-.39-.25-.59,.3,.73,.48,1.49,.59,2.27-.03-.22-.06-.44-.09-.65,.31,2.39-.06,4.79-.32,7.17-.06,.59,.32,1.34,.72,1.74,.43,.43,1.13,.75,1.74,.72,.64-.03,1.3-.24,1.74-.72,.47-.51,.65-1.06,.72-1.74,.32-2.94,.74-5.91,.05-8.84-.39-1.64-1.21-3.21-2.42-4.4-1.59-1.58-3.61-2.27-5.79-2.54-.88-.11-1.76-.13-2.64-.12-.89,0-1.79,.09-2.67,0-2.05-.18-4.09-.38-6.14-.56-4.11-.36-8.23-.61-12.35-.42-1.18,.05-2.36,.14-3.53,.28-1.2,.13-2.41,.16-3.58,.48-2.26,.62-4.32,1.91-6,3.54-.92,.9-.97,2.59,0,3.48,.99,.91,2.5,.96,3.48,0h0Z"/><path class="cls-5" d="M186.66,220.64c6.25,1.31,12.5,2.63,18.75,3.94,1.57,.33,3.23,.56,4.72,1.17-.2-.08-.39-.17-.59-.25,.29,.13,.57,.26,.84,.43,.11,.07,.22,.16,.34,.23-.58-.37-.22-.17-.08-.03,.13,.12,.26,.25,.38,.39,.12,.14,.36,.51-.04-.08,.15,.23,.32,.45,.47,.68,.74,1.15,1.39,2.36,2.08,3.54,1.43,2.46,2.86,4.91,4.3,7.37,.65,1.11,2.25,1.6,3.37,.88,1.12-.72,1.58-2.18,.88-3.37-1.38-2.36-2.76-4.73-4.13-7.09-.67-1.16-1.33-2.32-2.03-3.47-.78-1.29-1.71-2.45-2.98-3.27-1.09-.7-2.39-1.08-3.65-1.35-1.33-.29-2.66-.56-4-.84-2.7-.57-5.4-1.13-8.09-1.7-3.07-.65-6.14-1.29-9.22-1.94-1.26-.26-2.72,.37-3.03,1.72-.28,1.23,.37,2.75,1.72,3.03h0Z"/><path class="cls-5" d="M193.24,234.66c2.51,.52,5.02,1.04,7.53,1.56,2.32,.48,4.76,.8,6.96,1.7-.2-.08-.39-.17-.59-.25,.33,.14,.65,.29,.96,.47,.14,.08,.29,.17,.43,.26,.08,.05,.15,.1,.23,.16,.08,.05,.42,.31,.09,.05-.34-.27,.11,.09,.18,.16,.14,.12,.28,.25,.41,.37,.27,.26,.53,.53,.78,.8,1.06,1.15,2.03,2.38,3.03,3.58,2.16,2.58,4.32,5.16,6.47,7.74,.6,.71,1.19,1.43,1.79,2.14,.32,.38,.63,.75,.95,1.13,.04,.05,.16,.16,.17,.21-.02-.06-.33-.46-.14-.18,.13,.19,.24,.37,.33,.58l-.25-.59c.06,.16,.11,.32,.14,.5l-.09-.65c.01,.15,.01,.3,0,.45l.09-.65c-.03,.15-.06,.29-.12,.43l.25-.59c-.06,.13-.17,.27-.21,.4,.27-.34,.33-.41,.17-.22-.05,.06-.11,.12-.17,.17-.19,.16-.11,.11,.22-.16-.06,.05-.13,.09-.2,.13-.14,.08-.28,.15-.43,.21,.2-.08,.39-.17,.59-.25-.26,.1-.52,.15-.79,.19l.65-.09c-.41,.04-.81,.03-1.21-.02,.22,.03,.44,.06,.65,.09-1.24-.17-2.44-.59-3.64-.94-1.22-.36-2.43-.74-3.64-1.12-2.42-.78-4.82-1.61-7.21-2.5-.57-.21-1.39-.05-1.9,.25-.51,.3-1,.88-1.13,1.47-.32,1.4,.42,2.55,1.72,3.03,3.97,1.48,8,2.8,12.07,3.98,2.25,.65,4.85,1.27,6.94-.18,1.25-.87,2.07-2.11,2.21-3.64,.13-1.45-.65-2.63-1.52-3.7-2.74-3.33-5.53-6.61-8.3-9.92-1.33-1.6-2.63-3.24-4.03-4.78-.74-.81-1.56-1.53-2.46-2.16-.91-.63-1.96-1.08-3.01-1.43-2.11-.71-4.38-1.03-6.56-1.48-2.38-.49-4.75-.98-7.13-1.47-1.26-.26-2.72,.37-3.03,1.72-.28,1.23,.37,2.75,1.72,3.03h0Z"/><path class="cls-5" d="M203.53,250.43c.35,.51,.65,1.05,.89,1.62-.08-.2-.17-.39-.25-.59,.36,.87,.59,1.78,.71,2.72-.03-.22-.06-.44-.09-.65,.19,1.47,.13,2.96-.07,4.43l.09-.65c-.45,3.26-1.53,6.41-2.8,9.43l.25-.59c-2.44,5.77-5.66,11.2-9.07,16.44-.69,1.05-1.38,2.1-2.09,3.15-.72,1.07-.24,2.77,.88,3.37,1.24,.66,2.6,.26,3.37-.88,2.96-4.42,5.83-8.91,8.31-13.62,1.54-2.92,2.94-5.93,4.07-9.04,1.05-2.87,1.82-5.85,2.04-8.9,.21-2.98-.27-6.21-2.01-8.7-.37-.53-.83-.95-1.47-1.13-.59-.16-1.37-.09-1.9,.25-1.05,.68-1.67,2.24-.88,3.37h0Z"/><path class="cls-5" d="M161.44,204.07c-2.3,5.01-4.33,10.15-6.06,15.38-1.67,5.04-3.05,10.18-4.15,15.38-1.14,5.36-1.97,10.78-2.52,16.23-.54,5.31-.79,10.64-.75,15.97,.04,5.31,.36,10.62,.98,15.9,.08,.66,.16,1.33,.25,1.99,.09,.68,.22,1.24,.72,1.74,.43,.43,1.13,.75,1.74,.72,.64-.03,1.3-.24,1.74-.72,.41-.45,.8-1.11,.72-1.74-.65-5-1.04-10.03-1.18-15.07-.13-5.01,0-10.03,.37-15.03,.21-2.83,.51-5.65,.89-8.47l-.09,.65c.67-4.94,1.58-9.85,2.75-14.7,1.17-4.85,2.58-9.65,4.25-14.36,.94-2.66,1.96-5.3,3.06-7.9-.08,.2-.17,.39-.25,.59,.58-1.37,1.18-2.73,1.8-4.09,.28-.62,.44-1.22,.25-1.9-.16-.57-.6-1.19-1.13-1.47-1.08-.57-2.8-.37-3.37,.88h0Z"/><path class="cls-5" d="M105.3,150.69c-.34,6.49-.95,12.97-1.82,19.42l.09-.65c-.43,3.2-.92,6.38-1.48,9.56-.12,.67-.11,1.29,.25,1.9,.3,.51,.88,1,1.47,1.13,1.2,.27,2.79-.36,3.03-1.72,1.35-7.68,2.34-15.42,2.96-23.19,.17-2.14,.31-4.29,.43-6.43,.07-1.29-1.18-2.52-2.46-2.46-1.39,.06-2.39,1.08-2.46,2.46h0Z"/><path class="cls-5" d="M100.2,183.54c7.02,2.92,14.08,5.74,21.23,8.35,7.06,2.58,14.19,4.95,21.4,7.04,4.11,1.19,8.25,2.28,12.42,3.27,1.25,.3,2.73-.39,3.03-1.72,.29-1.26-.38-2.71-1.72-3.03-7.37-1.75-14.67-3.83-21.87-6.17-7.15-2.33-14.22-4.91-21.22-7.64-4-1.57-7.99-3.18-11.96-4.83-.55-.23-1.41-.04-1.9,.25-.51,.3-1,.88-1.13,1.47-.14,.63-.11,1.34,.25,1.9,.37,.58,.84,.87,1.47,1.13h0Z"/><path class="cls-5" d="M222.72,221.55c1.35,.49,2.68,1.02,4,1.57-.2-.08-.39-.17-.59-.25,4.01,1.7,7.89,3.69,11.6,5.97,1.84,1.13,3.65,2.34,5.4,3.6,.45,.32,.89,.65,1.33,.98,.2,.15,.41,.31,.61,.46,.15,.11,.55,.43-.08-.06,.11,.08,.22,.17,.33,.25,.85,.66,1.69,1.34,2.51,2.04,3.29,2.77,6.37,5.79,9.22,9.01,.71,.8,1.4,1.62,2.08,2.45,.35,.42,.69,.85,1.02,1.28,.08,.11,.17,.21,.25,.32,.04,.05,.07,.09,.11,.14,.16,.2-.24-.31-.21-.27,.16,.22,.33,.43,.5,.65,1.29,1.71,2.52,3.46,3.68,5.26,2.33,3.61,4.38,7.4,6.13,11.33,.21,.48,.42,.96,.63,1.45l-.25-.59c2.12,5.04,3.75,10.29,4.81,15.66,.3,1.55,.56,3.1,.77,4.66-.03-.22-.06-.44-.09-.65,.3,2.2,.5,4.42,.61,6.64,.06,1.28,1.09,2.52,2.46,2.46,1.28-.06,2.53-1.08,2.46-2.46-.33-6.67-1.46-13.31-3.41-19.7-1.91-6.27-4.57-12.33-7.86-17.99-3.32-5.7-7.3-11.03-11.8-15.85-4.49-4.83-9.54-9.14-14.98-12.87-5.53-3.8-11.48-6.92-17.72-9.39-.74-.29-1.49-.58-2.24-.85-.57-.21-1.39-.05-1.9,.25-.51,.3-1,.88-1.13,1.47-.32,1.39,.42,2.56,1.72,3.03h0Z"/><path class="cls-5" d="M181.54,147.78c5.55,4.26,14.05,4,19.72,.11,1.78-1.22,3.28-2.71,4.46-4.51,.71-1.08,.25-2.77-.88-3.37-1.23-.65-2.61-.27-3.37,.88-.1,.15-.2,.29-.3,.44-.07,.1-.42,.56-.12,.17,.29-.38-.05,.06-.14,.16-.1,.12-.21,.24-.31,.35-.45,.49-.93,.93-1.44,1.36-.07,.06-.3,.23,.04-.03,.36-.28,.08-.07,0,0-.13,.09-.25,.18-.38,.27-.27,.19-.55,.37-.84,.54-.57,.34-1.17,.64-1.78,.9,.2-.08,.39-.17,.59-.25-1.3,.55-2.66,.92-4.05,1.11,.22-.03,.44-.06,.65-.09-1.39,.18-2.8,.19-4.2,0l.65,.09c-1.24-.17-2.46-.5-3.62-.99l.59,.25c-1-.43-1.94-.98-2.8-1.64-.47-.36-1.36-.4-1.9-.25-.57,.16-1.19,.6-1.47,1.13-.3,.57-.45,1.26-.25,1.9,.21,.65,.59,1.06,1.13,1.47h0Z"/><path class="cls-5" d="M130.7,155.14c3.78,4.65,8.31,8.66,13.39,11.85,4.87,3.06,10.22,5.32,15.67,7.09,3.15,1.02,6.35,1.89,9.56,2.67,1.25,.3,2.73-.4,3.03-1.72,.29-1.27-.38-2.7-1.72-3.03-4.27-1.04-8.51-2.22-12.63-3.73-1.14-.42-2.26-.86-3.38-1.33,.2,.08,.39,.17,.59,.25-3.14-1.33-6.18-2.88-9.05-4.71-.72-.46-1.44-.95-2.14-1.45-.33-.23-.65-.47-.98-.71-.16-.12-.32-.24-.48-.37-.38-.29,.49,.38,.11,.09-.1-.08-.19-.15-.29-.23-1.39-1.11-2.73-2.29-4-3.53-1.49-1.46-2.89-3.01-4.21-4.63-.37-.46-1.17-.72-1.74-.72-.6,0-1.33,.27-1.74,.72-.43,.47-.75,1.09-.72,1.74,.03,.69,.29,1.21,.72,1.74h0Z"/><path class="cls-5" d="M181.39,103.88c3.17,0,3.17-4.92,0-4.92s-3.17,4.92,0,4.92h0Z"/><path class="cls-5" d="M210.46,97.95c3.17,0,3.17-4.92,0-4.92s-3.17,4.92,0,4.92h0Z"/><path class="cls-5" d="M150.82,291.97c6.15,.07,12.3,.14,18.46,.22,6.12,.07,12.25,.14,18.37,.21,1.72,.02,3.45,.04,5.17,.06,.87,.01,1.75,.02,2.62,.03,.8,0,1.61-.03,2.4,.05l-.65-.09c.2,.03,.38,.07,.56,.15l-.59-.25c.34,.18-.37-.37-.17-.16,.17,.18-.34-.54-.16-.17-.08-.2-.17-.39-.25-.59,.06,.15,.09,.29,.11,.45-.03-.22-.06-.44-.09-.65,.06,.71-.09,1.44-.16,2.15-.08,.78-.17,1.56-.25,2.35l-.51,4.78c-.06,.59,.32,1.34,.72,1.74,.43,.43,1.13,.75,1.74,.72,.64-.03,1.3-.24,1.74-.72,.47-.51,.65-1.06,.72-1.74,.21-1.94,.41-3.89,.62-5.83,.1-.94,.23-1.89,.3-2.83,.11-1.44-.46-2.83-1.69-3.63-.97-.63-2.14-.63-3.25-.64-.98-.01-1.97-.02-2.95-.03-1.97-.02-3.94-.05-5.91-.07-7.87-.09-15.75-.18-23.62-.28-4.43-.05-8.86-.1-13.29-.16-1.29-.02-2.52,1.14-2.46,2.46,.06,1.35,1.08,2.45,2.46,2.46h0Z"/><path class="cls-5" d="M147.04,289.24c-1.4,4.5-2.8,8.99-4.19,13.49-.38,1.23,.45,2.74,1.72,3.03,1.34,.3,2.62-.4,3.03-1.72,1.4-4.5,2.8-8.99,4.19-13.49,.38-1.23-.45-2.74-1.72-3.03-1.34-.3-2.62,.4-3.03,1.72h0Z"/><path class="cls-5" d="M96.97,180.89c-1.98,3.48-4.1,6.87-6.37,10.16-1.13,1.64-2.29,3.25-3.48,4.84-.28,.38-.57,.75-.86,1.13-.04,.05-.34,.44-.08,.1s-.04,.06-.08,.1c-.17,.22-.34,.43-.51,.65-.63,.8-1.27,1.59-1.92,2.38-1.42,1.73-2.88,3.42-4.39,5.07-.68,.74-.91,1.75-.51,2.69,.4,.96,1.24,1.42,2.25,1.51,2.19,.2,4.38,.45,6.56,.74l-.65-.09c5.33,.72,10.62,1.71,15.85,2.98,5.23,1.26,10.39,2.8,15.46,4.59,2.88,1.02,5.72,2.12,8.53,3.31l-.59-.25c2.33,.98,4.63,2.02,6.91,3.11,.56,.27,1.13,.54,1.69,.82,.77,.38,1.51,.79,2.37,.9,1.13,.15,2.29-.31,3.04-1.18,.52-.6,.98-1.27,1.46-1.9,3.33-4.38,6.66-8.75,9.99-13.13,1.88-2.47,3.76-4.94,5.64-7.41-1.5-.2-3-.39-4.5-.59,1.09,3.26,2.17,6.51,3.26,9.77,.41,1.22,1.72,2.14,3.03,1.72,1.21-.39,2.16-1.72,1.72-3.03-1.09-3.26-2.17-6.51-3.26-9.77-.31-.94-1.04-1.63-2.05-1.76-.45-.06-.86,0-1.28,.17-.53,.22-.83,.55-1.18,1.01-4.47,5.87-8.93,11.74-13.4,17.62-.63,.82-1.25,1.65-1.88,2.47-.31,.41-.63,.82-.94,1.24-.07,.09-.13,.17-.2,.26-.35,.46,.39-.4,.06-.09-.02,.02-.16,.16-.16,.17,0-.12,.59-.35,.11-.14l.59-.25s-.07,.02-.11,.03l.65-.09c-.09,.02-.18,.02-.27,.01l.65,.09c-.19-.03-.35-.08-.53-.15,.2,.08,.39,.17,.59,.25-1.74-.81-3.45-1.69-5.19-2.49-1.9-.87-3.82-1.7-5.75-2.5-3.51-1.46-7.08-2.78-10.68-3.98-7.26-2.41-14.71-4.28-22.24-5.61-4.4-.77-8.84-1.36-13.29-1.77,.58,1.4,1.16,2.8,1.74,4.2,5.51-6.08,10.52-12.63,14.91-19.55,1.22-1.93,2.4-3.89,3.53-5.87,.64-1.12,.3-2.74-.88-3.37-1.17-.62-2.69-.31-3.37,.88h0Z"/><path class="cls-5" d="M30.02,300.69c-.63-4.84-.82-9.75-.46-14.62,.1-1.32,.23-2.64,.41-3.96l-.09,.65c.6-4.4,1.64-8.73,3.13-12.91,.42-1.19,.88-2.36,1.37-3.52l-.25,.59c1.46-3.46,3.22-6.79,5.22-9.97,1-1.58,2.05-3.13,3.16-4.63,.28-.38,.56-.76,.85-1.13,.07-.09,.14-.19,.22-.28,.28-.37-.38,.49-.1,.12,.15-.19,.29-.37,.44-.56,.62-.78,1.25-1.55,1.89-2.31,2.56-3.02,5.33-5.87,8.24-8.56,3.13-2.9,6.45-5.55,9.79-8.2,4.12-3.26,8.08-6.66,11.15-10.97,.35-.49,.4-1.34,.25-1.9-.16-.57-.6-1.19-1.13-1.47-1.27-.67-2.57-.24-3.37,.88-.13,.19-.27,.38-.41,.56-.06,.07-.11,.15-.17,.22-.31,.41,.37-.46,.04-.06-.29,.36-.58,.72-.88,1.07-.57,.67-1.17,1.31-1.79,1.94-1.27,1.29-2.63,2.5-4.02,3.67-2.74,2.31-5.62,4.45-8.38,6.75-4.94,4.12-9.57,8.62-13.65,13.59-3.96,4.81-7.46,10.01-10.18,15.63-2.68,5.54-4.67,11.41-5.74,17.48-1.14,6.42-1.38,12.97-.74,19.46,.08,.82,.17,1.63,.28,2.44,.09,.68,.22,1.24,.72,1.74,.43,.43,1.13,.75,1.74,.72,.64-.03,1.3-.24,1.74-.72,.41-.44,.8-1.11,.72-1.74h0Z"/></g></g></svg>