<?xml version="1.0" encoding="utf-8"?>
<!-- Generator: Adobe Illustrator 27.1.1, SVG Export Plug-In . SVG Version: 6.00 Build 0)  -->
<svg version="1.1" id="_x32_" xmlns="http://www.w3.org/2000/svg" xmlns:xlink="http://www.w3.org/1999/xlink" x="0px" y="0px"
	 viewBox="0 0 24 24" style="enable-background:new 0 0 24 24;" xml:space="preserve">
<style type="text/css">
	.st0{fill:#0099CC;}
</style>
<path class="st0" d="M14,12l9.6-9.6c0.5-0.5,0.5-1.2,0-1.7l-0.3-0.3c-0.5-0.5-1.2-0.5-1.7,0L12,10L2.4,0.3c-0.5-0.5-1.2-0.5-1.7,0
	L0.3,0.7c-0.5,0.5-0.5,1.2,0,1.7L10,12l-9.6,9.6c-0.5,0.5-0.5,1.2,0,1.7l0.3,0.3c0.5,0.5,1.2,0.5,1.7,0L12,14l9.6,9.6
	c0.5,0.5,1.2,0.5,1.7,0l0.3-0.3c0.5-0.5,0.5-1.2,0-1.7L14,12z"/>
</svg>
