<?xml version="1.0" encoding="UTF-8"?><svg id="ico_point" xmlns="http://www.w3.org/2000/svg" viewBox="0 0 32 32"><defs><style>.cls-1{fill:#fff;fill-rule:evenodd;}.cls-1,.cls-2{stroke:#4bf;stroke-miterlimit:10;}.cls-2{fill:none;}</style></defs><g><g><g><path class="cls-1" d="M16.23,6.28c1.39,.54,1.64,1.97,1.23,3.07l-2.34,6.32c.72-.21,1.35-.16,1.76,.33l5.42,7.09s-.37,4.4-4.24,5.32l-.57,1.45s-.41,.99-1.51,.89c-1.47-.13-3.81-.61-6.13-2.3-.94-.68-.47-1.93-.47-1.93l.32-.9c-.79-1.03-1.85-3.11-1.14-5.3L13.23,7.77c.41-1.1,1.61-2.03,3-1.49Z"/><path class="cls-1" d="M22.59,22.71s-.67,6.02-5.82,5.73"/></g><path class="cls-1" d="M13.83,21.31s2,1.03,1.49,3.63"/></g><path class="cls-1" d="M19.5,21.94c-.32,.81-.03,1.68,.98,2.07l.28,.11c1.01,.39,2.12-.04,2.56-1.17l1.17-3c.47-1.2-.34-2.38-1.35-2.77h0c-1.01-.39-1.76-.04-2.08,.77l-1.55,3.99Z"/><path class="cls-1" d="M16.83,21.15c-.35,.9,.05,1.9,1.06,2.29l.13,.05c1.01,.39,2.11-.02,2.46-.92l1.72-4.42c.35-.9-.36-1.89-1.37-2.28h0c-1.01-.39-1.94-.04-2.29,.86l-1.72,4.42Z"/><path class="cls-1" d="M13.56,19.77c-.37,.94-.01,1.95,1.04,2.36l.21,.08c1.05,.41,2.06-.03,2.62-1.46l1.62-4.17c.37-.94-.32-1.95-1.37-2.36h0c-1.05-.41-1.95-.02-2.32,.92l-1.8,4.62Z"/><path class="cls-1" d="M10.8,26.54s-5.06-3.44-1.37-7.61c0,0,4.64-5.3,5.93-3.31,1.16,1.79-1.26,4.29-3.63,5.97"/></g><g><line class="cls-2" x1="22.3" y1="4.89" x2="19.18" y2="6.73"/><line class="cls-2" x1="19.38" y1="2.02" x2="17.6" y2="5.17"/><line class="cls-2" x1="15.42" y1="1" x2="15.45" y2="4.62"/><line class="cls-2" x1="11.48" y1="2.09" x2="13.32" y2="5.21"/></g></svg>