<?xml version="1.0" encoding="utf-8"?>
<!-- Generator: Adobe Illustrator 26.4.1, SVG Export Plug-In . SVG Version: 6.00 Build 0)  -->
<svg version="1.1" id="_x32_" xmlns="http://www.w3.org/2000/svg" xmlns:xlink="http://www.w3.org/1999/xlink" x="0px" y="0px"
	 viewBox="0 0 120 120" style="enable-background:new 0 0 120 120;" xml:space="preserve">
<style type="text/css">
	.st0{fill:#FFFFFF;}
</style>
<g>
	<path class="st0" d="M51.7,74.2c4.8,0,19.6,0,19.6,0c3.9,0,7.1-3.2,7.1-7.1c0-3.9-3.2-7.1-7.1-7.1c-3.6,0-10.7,0-28.5,0
		c-17.8,0-23.5,7.4-29.7,13.7L1.8,83.5C1,84.1,0.6,85.1,0.6,86v32.8c0,0.4,0.3,0.8,0.7,1c0.4,0.2,0.9,0.1,1.2-0.2L24.3,101
		c0.8-0.7,1.8-0.9,2.8-0.8l34.1,6.2c2.4,0.4,4.8-0.1,6.8-1.5c0,0,43.5-30.2,46.7-32.9l0,0c3.1-2.8,3-6.9,0.2-9.9
		c-2.8-3.1-8.1-2.4-11.6,0.2c-3.2,2.7-25.1,17.1-25.1,17.1H51.7l-0.1,0c-1.4,0-2.5-1.2-2.5-2.6C49.2,75.3,50.4,74.2,51.7,74.2
		L51.7,74.2z"/>
	<path class="st0" d="M83.8,0c-6.5,0-12.1,3.5-15.3,8.6c10,3.7,17.2,13.3,17.2,24.5c0,0.8,0,1.7-0.1,2.5c9-0.9,16.1-8.5,16.1-17.8
		C101.7,8,93.7,0,83.8,0z"/>
	<path class="st0" d="M59.6,12.8c-11.3,0-20.4,9.1-20.4,20.4c0,11.3,9.1,20.4,20.4,20.4S80,44.5,80,33.2
		C80,21.9,70.8,12.8,59.6,12.8z M67.7,31.5h-5.6l-0.6,0.9v2.2h6.2v0v2.7v0.5h-6.2v4.8h-3.8v-4.8h-6.2v-0.5v-2.7v0h6.2v-2.2L57,31.5
		h-5.6v-2.7h3.8L52,23.7h3.3l4.3,6.7l4.3-6.7h3.3l-3.3,5.1h3.8L67.7,31.5L67.7,31.5z"/>
</g>
</svg>
