<?xml version="1.0" encoding="utf-8"?>
<!-- Generator: Adobe Illustrator 27.1.1, SVG Export Plug-In . SVG Version: 6.00 Build 0)  -->
<svg version="1.1" id="_x32_" xmlns="http://www.w3.org/2000/svg" xmlns:xlink="http://www.w3.org/1999/xlink" x="0px" y="0px"
	 viewBox="0 0 273 75" style="enable-background:new 0 0 273 75;" xml:space="preserve">
<style type="text/css">
	.st0{fill:#CBEFFF;}
</style>
<g>
	<path class="st0" d="M218.2,45.6c-1.2,1.8-2.1,3.9-2.1,6.3c0,5.6,4.4,10.2,9.9,10.2c5.4,0,9.7-3.4,10-9.3c0.1-2.3-0.5-4.9-2.1-7
		c-1.9-2.6-4.3-3.5-5.2-7C224.8,23.1,215.8,0.9,210.3,0c1.9,2.4,8.6,25.7,10.1,39.9C220.7,43.1,219.6,43.6,218.2,45.6z"/>
	<path class="st0" d="M233,29.5c-1.6,0-0.9,3,1.3,6.4c0.7,1.1,1.2,1.5,2.6,2.8c0.8,0.8,1.9,1.8,2.8,3.1c2.3,3,3.4,6.8,3.2,10.6
		c-0.4,8.9-7.3,15.1-16.9,15.1c-9.2,0-16.8-7.3-16.8-16.3c0-3.3,1.1-6.5,3.2-9.6c0.4-0.5,0.7-1,1-1.4c0.2-0.3,0.5-0.7,0.6-0.8
		c0,0,0.3-0.8,0.7-1.6c2-4,1.7-8.5-3.8-8.5H0V75h273V29.5H233z"/>
</g>
</svg>
