<?xml version="1.0" encoding="utf-8"?>
<!-- Generator: Adobe Illustrator 27.1.1, SVG Export Plug-In . SVG Version: 6.00 Build 0)  -->
<svg version="1.1" id="_x32_" xmlns="http://www.w3.org/2000/svg" xmlns:xlink="http://www.w3.org/1999/xlink" x="0px" y="0px"
	 viewBox="0 0 273 75" style="enable-background:new 0 0 273 75;" xml:space="preserve">
<style type="text/css">
	.st0{fill:#CBEFFF;}
</style>
<g>
	<path class="st0" d="M246.2,16.1l7.1,1.9c0.2,0,0.3,0.2,0.4,0.4l1.9,7.1c0.1,0.2,0.2,0.4,0.5,0.4c0.2,0,0.4-0.1,0.4-0.4l1.9-7.1
		c0-0.2,0.2-0.3,0.4-0.4l7.1-1.9c0.2,0,0.4-0.2,0.4-0.4s-0.1-0.4-0.4-0.4l-7.1-1.9c-0.2,0-0.3-0.2-0.4-0.4l-1.9-7.1
		c0-0.2-0.2-0.4-0.4-0.4c-0.2,0-0.4,0.2-0.5,0.4l-1.9,7.1c0,0.2-0.2,0.3-0.4,0.4l-7.1,1.9c-0.2,0-0.4,0.2-0.4,0.4
		C245.9,15.8,246,16,246.2,16.1z"/>
	<path class="st0" d="M221.1,25.6l1.3,5.1c0,0.2,0.2,0.3,0.3,0.3c0.2,0,0.3-0.1,0.3-0.3l1.3-5.1c0-0.1,0.1-0.2,0.3-0.3l5.1-1.4
		c0.1,0,0.3-0.2,0.3-0.3s-0.1-0.3-0.3-0.3l-5.1-1.4c-0.1,0-0.2-0.1-0.3-0.3l-1.3-5.1c0-0.1-0.2-0.3-0.3-0.3c-0.2,0-0.3,0.1-0.3,0.3
		l-1.3,5.1c0,0.1-0.1,0.2-0.3,0.3l-5.1,1.4c-0.2,0-0.3,0.2-0.3,0.3c0,0.2,0.1,0.3,0.3,0.3l5.1,1.4C221,25.3,221.1,25.4,221.1,25.6z"
		/>
</g>
<path class="st0" d="M241.6,29.3c-49.2,0-52.9,25.7-118.1,25.7C73.2,55,0.2,55,0.1,55v20h273V29.3C273.1,29.3,272.8,29.3,241.6,29.3
	z M218.6,62.2c-0.3-0.3-0.5-0.6-0.8-0.9c-0.6-0.7-1-1.4-1.3-2.1s-0.4-1.5-0.4-2.2v-4.5c0.6,0.7,1.2,1.4,1.9,2.1
	c0.2,0.1,0.4,0.3,0.6,0.4V62.2z M224.2,65.6c-0.4-0.2-0.7-0.3-1.1-0.5c-0.8-0.4-1.6-0.8-2.3-1.3l0,0v-7.4c1,0.6,2.2,1.1,3.4,1.6
	L224.2,65.6L224.2,65.6z M231,67.8c-1.7-0.4-3.3-0.9-4.8-1.4h0.1v-7.7c0.5,0.2,1,0.3,1.5,0.5c1,0.3,2.1,0.6,3.2,0.8V67.8z
	 M239.9,68.7c-2.4,0-4.6-0.3-6.8-0.6v-7.9c2.2,0.4,4.4,0.6,6.8,0.6V68.7z M249.1,68c-2.3,0.4-4.6,0.7-7.1,0.7v-7.9
	c2.5,0,4.9-0.2,7.1-0.6V68z M255.8,66.4c-0.7,0.2-1.5,0.5-2.3,0.7s-1.6,0.4-2.4,0.6V60c1.6-0.4,3.2-0.8,4.7-1.3V66.4z M261.3,63.6
	c-1,0.7-2.1,1.3-3.4,1.9v-7.7c0.6-0.2,1.2-0.5,1.8-0.8c0.5-0.3,1.1-0.6,1.6-0.9V63.6z M265.7,57c0,0.8-0.1,1.5-0.4,2.2
	c-0.4,0.9-1,1.8-1.9,2.7v-7.1h-0.1c0.9-0.6,1.6-1.3,2.2-2.1c0.1,0,0.1-0.1,0.2-0.2L265.7,57L265.7,57z M265.3,47.9
	c-0.5,1.2-1.5,2.5-2.9,3.7c-2.1,1.8-5.2,3.3-8.9,4.3c-3.7,1.1-8,1.7-12.6,1.7c-7,0-13.3-1.4-17.8-3.6c-2.2-1.1-4-2.4-5.2-3.8
	c-0.6-0.7-1-1.4-1.3-2.1c-0.3-0.7-0.4-1.5-0.4-2.2c0-0.8,0.1-1.5,0.4-2.2c0.5-1.3,1.5-2.5,2.9-3.7c2.1-1.8,5.2-3.3,8.9-4.3
	c3.7-1.1,8-1.7,12.6-1.7c7,0,13.3,1.4,17.8,3.6c2.2,1.1,4,2.4,5.2,3.8c0.6,0.7,1,1.4,1.3,2.1s0.4,1.5,0.4,2.2
	C265.7,46.5,265.6,47.2,265.3,47.9z M248.1,47l-4.8-0.1l-0.1-1.8l4.8,0.1l-0.3-2.3l-3.4-0.1l3.3-5.6l-3.8-0.1l-2.9,4.6l-2.9-4.6
	l-3.8,0.1l3.3,5.6l-3.4,0.1l-0.3,2.3l4.8-0.1l-0.1,1.8l-4.8,0.1l-0.3,2.5h4.9l-0.3,3.4h0.4h2.4h0.2h2.4h0.4l-0.3-3.4h4.9L248.1,47z
	 M261.7,46.5l-3.3-0.9c-0.1,0-0.2-0.1-0.2-0.2l-0.9-3.3c0-0.1-0.1-0.2-0.2-0.2s-0.2,0.1-0.2,0.2l-0.9,3.3c0,0.1-0.1,0.2-0.2,0.2
	l-3.3,0.9c-0.1,0-0.2,0.1-0.2,0.2c0,0.1,0.1,0.2,0.2,0.2l3.3,0.9c0.1,0,0.2,0.1,0.2,0.2l0.8,3.3c0,0.1,0.1,0.2,0.2,0.2
	s0.2-0.1,0.2-0.2l0.9-3.3c0-0.1,0.1-0.2,0.2-0.2l3.3-0.9c0.1,0,0.1-0.1,0.3-0.2C261.9,46.6,261.8,46.5,261.7,46.5z"/>
</svg>
