<?xml version="1.0" encoding="utf-8"?>
<!-- Generator: Adobe Illustrator 27.1.1, SVG Export Plug-In . SVG Version: 6.00 Build 0)  -->
<svg version="1.1" id="_x32_" xmlns="http://www.w3.org/2000/svg" xmlns:xlink="http://www.w3.org/1999/xlink" x="0px" y="0px"
	 viewBox="0 0 273 75" style="enable-background:new 0 0 273 75;" xml:space="preserve">
<style type="text/css">
	.st0{fill:#CBEFFF;}
</style>
<path class="st0" d="M174.1,55c-50.3,0-20-25.7-73.8-25.7c-53.9,0-100.2,0-100.2,0V75h273V55C273,55,224.4,55,174.1,55z"/>
<g>
	<path class="st0" d="M228.3,5.1c0-2.8-2.3-5.1-5.1-5.1s-5.1,2.3-5.1,5.1s2.3,5.1,5.1,5.1S228.3,7.9,228.3,5.1z"/>
	<path class="st0" d="M208.5,27.9L208.5,27.9c0.2,0.5,0.6,0.9,1.1,1.1s1,0.2,1.5,0l6.5-2.9c0.5-0.2,0.8-0.5,1.2-0.9l2.5-3.1l1.9,10
		L218,39c-0.9,1.1-1.5,2.3-2,3.6l-3.2,9.3c-0.2,0.6-0.2,1.3,0.2,1.9c0.3,0.6,0.9,1,1.5,1.2l0,0c1.1,0.3,2.3-0.3,2.8-1.3l4.4-9.3
		l5.9-6.5l3.2,6.4l5.5,9.4c0.6,1,1.7,1.4,2.7,1.1l0.2-0.1c0.7-0.2,1.2-0.6,1.5-1.3c0.3-0.6,0.3-1.3,0.1-2L236.1,40l-4.7-21l4.8,1.5
		l3,6.5c0.4,1,1.6,1.4,2.5,1h0.1c0.5-0.2,0.9-0.6,1.1-1.1c0.2-0.5,0.2-1,0-1.5l-3.3-7.7c-0.4-0.8-1-1.5-1.8-1.9l-7.4-3.5
		c-1.2-0.6-2.5-0.7-3.8-0.5l-2.5,0.5c-2.8,0.5-5.2,2.3-6.4,4.9l-2.5,5.1l-5.8,3.1C208.5,25.9,208.1,26.9,208.5,27.9z"/>
</g>
</svg>
