<?xml version="1.0" encoding="utf-8"?>
<!-- Generator: Adobe Illustrator 27.0.1, SVG Export Plug-In . SVG Version: 6.00 Build 0)  -->
<svg version="1.1" id="レイヤー_1" xmlns="http://www.w3.org/2000/svg" xmlns:xlink="http://www.w3.org/1999/xlink" x="0px"
	 y="0px" viewBox="0 0 240 60" style="enable-background:new 0 0 240 60;" xml:space="preserve">
<style type="text/css">
	.st0{fill:#CCFFFF;}
</style>
<g>
	<path class="st0" d="M161.7,59.8c5-5.1,9.7-14.2,8.6-28.9c-0.9-12.5,3.5-27.2,6.6-30.5l-0.5-0.3c0,0-10.3,13.2-8.9,32.4
		c1.1,14.4-5.2,24.6-6.7,27L161.7,59.8z"/>
	<g>
		<path class="st0" d="M120.1,21.8v1.6h-8.4v14c2.7-0.8,5.7-1.7,8-2.5v1.7c-4,1.5-7.4,2.8-13.7,4.9c-0.5,0.5-0.6,0.5-0.7,0.5
			s-0.3-0.1-0.3-0.2l-1.1-2.6c1.8-0.2,3.3-0.6,4.4-0.9V13.1c0-0.5-0.1-1.3-0.2-2.3h3.6c0.2,0,0.4,0.1,0.4,0.3s-0.2,0.8-0.2,1v9.7
			H120.1z M136.1,21.1c0.1,0.2,0.2,0.2,0.2,0.3c0,0.3-0.4,0.3-1,0.4c-3.9,1.7-7.4,2.8-10.2,3.4V38c0,1.1,0,2.1,2.1,2.1h3
			c1,0,2.8,0,3.3-5.5c1.1,0.6,2.1,1,3.2,1.2c-0.8,4.1-1.9,5.8-5.4,5.8h-6c-3.8,0-3.9-1.7-3.9-3.9V13.4c0-1.2-0.1-1.9-0.2-2.6
			l3.6,0.1c0.4,0,0.4,0.1,0.4,0.3s-0.2,0.9-0.3,1.1v11.3c4.7-1.7,7.5-3.7,8.8-4.9L136.1,21.1z"/>
		<path class="st0" d="M144.8,12.4c0-0.5-0.1-1.2-0.1-1.7h3.3c0.1,0,0.3,0.1,0.3,0.2s-0.1,0.4-0.3,0.8v2.8h5.7V16H148v2.8h5.4v12.3
			H148v3.1h6v1.5h-6v6.4h-3.2v-6.4h-6.2v-1.5h6.2v-3.1h-5.1V18.8h5.1V16h-5.6v-1.5h5.6V12.4z M144.8,24.1v-3.8h-2.3v3.8H144.8z
			 M142.5,25.7v3.9h2.3v-3.9H142.5z M150.6,24.1v-3.8H148v3.8H150.6z M148,25.7v3.9h2.6v-3.9H148z M167.2,25.4
			c0.2,0.1,0.3,0.1,0.3,0.3c0,0.1-0.1,0.4-0.4,0.7c-0.9,3.5-1.6,6-4,8.9c1,1.2,3.3,3.3,7.4,4.8l-1.1,1.6c-4-1.5-6.5-3.2-8.1-4.7
			c-2.6,2.4-5.6,4-8.9,5.1l-1-1.5c4.4-1.5,7.4-4.5,8.2-5.4c-1.5-1.9-2.8-4.1-3.9-9.8l3.4-0.8c0.6,4.9,1.4,6.9,2.3,8.3
			c1.9-3.3,2.2-6.3,2.3-8.6L167.2,25.4z M160.8,19.7c0.1,0,0.2,0.1,0.2,0.2c0,0.2-0.2,0.3-0.7,0.6c-1.3,1.5-3.4,3.6-5.5,5.2
			l-1.3-1.2c2.1-2.2,3.9-5,4.1-6.4L160.8,19.7z M170,15.9v1.5h-15.6v-1.5h5.8v-3.5c0-0.4,0-1-0.2-1.7l3.5,0.1c0.1,0,0.3,0.1,0.3,0.2
			c0,0.1-0.1,0.5-0.3,0.8v4.1H170z M167.9,25.3c-1.7-2.6-2.7-3.9-4.9-5.9l1.2-1.2c1.4,0.7,3.8,2,6.1,4.6L167.9,25.3z"/>
	</g>
	<g>
		<path class="st0" d="M183.7,20.9v1.6H169v-1.6H183.7z M182.4,36.8v10.6h-8.9v1.5h-3.4V36.8H182.4z M182.2,15.6v1.6h-11.9v-1.6
			H182.2z M182.2,26.2v1.7h-11.9v-1.7H182.2z M182.2,31.5v1.6h-11.9v-1.6C170.3,31.5,182.2,31.5,182.2,31.5z M173.5,38.4v7.3h5.5
			v-7.3H173.5z M195.8,14.6c1.8,5.5,4.7,8.9,8.5,11.9l-1.2,1.4c-4-2.5-7.5-5.8-9.9-9.8c-1.6,2.6-5.3,6.7-9.6,9.5l-1.3-1.4
			c3.4-2.7,6.7-6.5,8.3-11.6C190.6,14.6,195.8,14.6,195.8,14.6z M183.6,47.4c11.8-2.2,16.1-9.7,17-12.3l3.3,2.2
			c0.1,0.1,0.3,0.2,0.3,0.3c0,0.3-0.5,0.6-0.9,0.8c-4.4,6.6-11.6,9.5-18.6,10.5L183.6,47.4z M196.5,26.7c0.1,0,0.2,0.1,0.2,0.3
			c0,0.2-0.2,0.3-0.7,0.6c-3.3,3.4-7.1,5.8-10.7,7.4l-1.3-1.5c7-3.6,9-8.3,9.2-8.8L196.5,26.7z M184.2,40.6
			c8.7-3.7,12.7-9.4,13.1-11.2l3.4,2.2c0.1,0.1,0.2,0.2,0.2,0.3c0,0.3-0.3,0.5-0.9,0.7c-5,5.1-9.3,7.6-14.6,9.5L184.2,40.6z"/>
		<path class="st0" d="M211.4,27.6V26h5.2v-3.2l-2.6,1.8c-0.4-2.1-1.3-4.6-2.4-6.7l1.5-0.9c1.5,2.1,3,4.7,3.6,5.8v-6
			c0-0.4-0.1-1.9-0.1-2.2l3.3,0.1c0.2,0,0.4,0.1,0.4,0.3c0,0.1-0.1,0.7-0.2,0.8V26h5.1v1.7h-4.5c0.7,2.7,2.3,5.6,4.1,8l-1.5,1.5
			c-0.5-0.6-1.9-2.2-3.3-4.3v10.4h-3.4v-9.7c-0.3,0.6-1.9,3.3-4.4,5.9l-1.5-1.2v6.2h12.2v1.7h-12.2v2.1h-3.6V18.4c0-1,0-1.8-0.1-2.7
			l3.4,0.1c0.2,0,0.5,0,0.5,0.3c0,0.1-0.2,0.7-0.2,0.9v21c2.2-2.4,4.5-7.5,5-10.4H211.4z M229.9,31.3c0,9.1-2.5,13.3-5.7,17l-1.8-1
			c1.2-1.3,3.9-4.3,3.9-13.5V18.5c-0.1,0.1-0.6,0.7-0.6,0.8c-1.8,3-2.9,4.4-3.5,5.1l-1.6-0.9c0.7-1.1,2.1-3.6,2.7-6.8l2.7,1.1
			c0.1,0,0.2,0.1,0.3,0.2v-2.4l3.2,0.5c0.9,0,5.6-0.9,7.6-2.4l1.9,2.4c0,0.1,0.1,0.1,0.1,0.3c0,0.3-0.3,0.4-1,0.3
			c-2.5,0.6-6.4,1.1-8.2,1.2v7.5H240v1.7h-3.3v21.5H233V27.2h-3.1V31.3z"/>
	</g>
	<g>
		<path class="st0" d="M102.2,33.1l-2.7-7.5l0,0c1.8,0,2.3-0.9,2.5-1.3c0.3-0.4-0.3-0.9-0.7-0.6c-0.3,0.3-1.3,1-3.3,0.1
			c-1.7-0.7-4.7-2.1-6.4-2.4v-1.8c0-0.4-0.3-0.7-0.7-0.7c-0.4,0-0.7,0.3-0.7,0.7v1.8c-1.7,0.2-4.7,1.6-6.4,2.4
			c-1.9,0.9-3,0.2-3.3-0.1c-0.4-0.3-1,0.1-0.7,0.7c0.2,0.3,0.7,1.3,2.5,1.3l0,0l-2.7,7.5H79c0.5,1.7,2.1,3,4.1,3s3.5-1.3,4.1-3h-0.5
			l-2.7-8c1.7-0.5,4.1-1.4,6.2-1.6v1.1h-0.4v12.4h-0.6v1.1c-0.4,0-0.8,0-1.1,0c-1.1,0-1,1.5-1,1.5c-0.9,0-1.3,0.7-1.3,1.6h10.6
			c0-0.8-0.4-1.6-1.3-1.6c0,0,0-1.5-1-1.5c-0.3,0-0.7,0-1.1,0v-1.1h-0.7V24.7h-0.4v-1.1c2.1,0.1,4.5,1,6.2,1.6l-3,8h-0.5
			c0.5,1.7,2.1,3,4.1,3s3.5-1.3,4.1-3h-0.6C102.2,33.2,102.2,33.1,102.2,33.1z M85.6,33.1h-4.9l2.4-6.9L85.6,33.1z M96.1,33.1
			l2.4-6.9l2.4,6.9H96.1z"/>
	</g>
	<g>
		<path class="st0" d="M10.7,17.5c0.6,6.5,1.5,15.9,2.2,22.3c0.1,0.8,0.5,4,0.5,4.6c0.2,2-0.1,4.9-4.7,6.1C8,47.9,6.4,47,5.2,46.4
			l-0.1-0.2c0.6,0,3.2,0,3.6-0.1c1.5-0.1,1.4-0.5,1.2-3.6c-0.1-1.3-0.6-6.8-0.7-8l-3.4,0.3c0.8,9.3-3.3,14.5-4.8,16H0.7
			c2.6-5.6,2-13.8,1.6-18.7C1.8,26.8,1.1,19.4,0,14.3l3.7,1.3L7,15.3l0.9-1c0.6-0.6,0.7-0.7,0.9-0.8c0.2,0,0.4,0,0.8,0.3l2,1.4
			c0.2,0.1,0.6,0.4,0.6,0.7C12.2,16.4,12,16.5,10.7,17.5z M7.6,16.3l-3.5,0.3l0.7,8l3.5-0.3L7.6,16.3z M8.4,25.2l-3.5,0.3
			c0.4,4.6,0.5,5.1,0.8,8.3l3.4-0.3L8.4,25.2z M36.6,47c-1,0.4-5,0.8-6.5,0.9c-2.2,0.2-4.4,0.2-4.8-3.2c0-0.1-0.9-10.1-1.1-11.6
			L20,33.4l2.7,1c0.2,0.1,0.9,0.3,0.9,0.7c0,0.5-1,1.1-1.1,1.2C20.3,47.6,14,49.9,12,50.7l-0.1-0.2c7-6,7.3-13.6,6.9-16.9l-0.7,0.1
			c0.1,0.7,0.3,2.3-1.9,2.5c-1.3,0.1-1.4-0.8-1.4-1.1c0-0.2,0-0.9-0.1-1.1c0-0.9-0.2-2.3-0.2-2.9c-0.2-2.7-0.7-8.1-1.2-10.3L17,22
			l10.5-1l1-1.1c0.3-0.4,0.5-0.7,0.8-0.7c0.2,0,0.7,0.3,0.9,0.5l1.7,1.4c0.2,0.2,0.6,0.5,0.6,0.9s-0.1,0.5-1.3,1.5
			c0.1,1,0.7,6.2,0.9,7.4c0,0.3,0.2,1.5,0.2,1.7c0.1,1.5-1.6,2-2.1,2c-1.3,0.1-1.4-0.9-1.4-1.8l-1.3,0.1c0.9,9.1,1,10.1,1.1,10.8
			c0.2,1,0.6,1.2,2.7,1c3-0.3,3.1-0.5,4.4-8.2H36c0,0.2,1,4.4,1.1,4.9c0.2,1,0.3,1.2,0.9,1.4c0.7,0.2,1.1,0.3,1.1,1
			C39.2,44.7,38.3,46.2,36.6,47z M18.3,20.5c-1.6,0.1-2.2-1-2.8-2.4c-0.9-2-1.1-2.4-2.8-4.7v-0.2c1.9,0.2,6.9,1.6,7.2,5
			C20,19.3,19.6,20.4,18.3,20.5z M27.8,22l-10.6,0.9l0.8,9.7l10.6-0.9L27.8,22z M29.7,14.9c-2.1,3-4,4.6-6.2,6l-0.1-0.1
			c1-1.8,2.4-5.8,2.9-7.8c0.1-0.4,0.3-2.2,0.4-2.5l4,2.6c0.3,0.2,0.7,0.5,0.7,0.8C31.4,14.6,30.4,14.9,29.7,14.9z"/>
		<path class="st0" d="M47.1,27.5c-2.7,0.5-3.6,0.9-4.4,1.1l-1-1.3c2.3-0.3,5.3-0.8,5.9-0.9l7.1-1.4l-0.5-6.4
			c-4.5,1.2-8,1.8-11.7,2.2c-1.8,0.2-3,0.2-4,0.2v-0.4c6.1-1.1,16.8-5.1,22.9-7.6c3.6-1.5,3.8-1.8,4.5-2.7l3.4,2.8
			c0.3,0.3,0.5,0.4,0.5,0.6c0.1,0.6-0.5,0.6-0.7,0.6s-1.1,0-1.3,0c-2.4,0.8-5.3,1.7-6.9,2.2c-0.9,0.3-2.5,0.8-3.2,1l0.4,6.9l7.5-1.5
			l1.1-2.4c0.3-0.6,0.4-0.8,0.6-0.8c0.3,0,0.5,0.2,0.8,0.3l2.9,1.6c0.3,0.2,0.5,0.3,0.6,0.6c0,0.3-0.3,0.4-0.5,0.5l-12.9,2.6
			c0.2,2.8,0.4,6,0.6,8.5l10.9-2.2l1.4-2.7c0.2-0.4,0.3-0.7,0.6-0.7c0.3,0,0.6,0.1,0.8,0.3l3.1,1.8c0.3,0.2,0.5,0.3,0.5,0.6
			c0,0.3-0.3,0.4-0.5,0.5l-16.7,3.4c0.1,1.5,0.5,7.5,0.6,8.6c0.1,0.9,0.3,1.2,1,1.4c0.6,0.1,5.1-0.2,6.1-0.3c5.5-0.5,5.8-1,6.5-3
			c0.8-2.3,0.9-3.7,1-4.8h0.3c1.2,3.6,1.5,4.7,1.8,5c0.3,0.4,1.3,1.4,1.3,1.8c0.1,0.6-0.8,2-1.7,2.5c-1.9,1.2-7.2,1.7-9.5,1.9
			c-8.2,0.7-9.7,0.1-10.1-4c-0.1-0.6-0.5-7.1-0.6-8.4l-10.1,2c-2.8,0.6-3.7,0.9-4.4,1.2l-1-1.3c2.4-0.3,5.5-0.9,5.9-0.9l9.5-1.9
			c-0.1-1.3-0.5-7.3-0.6-8.5L47.1,27.5z"/>
	</g>
</g>
</svg>
