<?xml version="1.0" encoding="utf-8"?>
<!-- Generator: Adobe Illustrator 26.3.1, SVG Export Plug-In . SVG Version: 6.00 Build 0)  -->
<svg version="1.1" id="レイヤー_1" xmlns="http://www.w3.org/2000/svg" xmlns:xlink="http://www.w3.org/1999/xlink" x="0px"
	 y="0px" viewBox="0 0 500 66" style="enable-background:new 0 0 500 66;" xml:space="preserve">
<style type="text/css">
	.st0{fill:#FFEEAA;}
</style>
<g>
	<path class="st0" d="M58.7,32.2c0.4-0.1,0.7,0,1,0.2s0.4,0.5,0.5,0.9c0,0.4-0.1,0.8-0.3,1.1s-0.6,0.5-1,0.6l-30.8,6.5
		c-0.3,0.7-0.6,1.4-1,2.1c-2.5,5-5,8.4-7.6,10s-4.9,2.3-6.9,1.7c-2-0.5-3.5-1.7-4.4-3.4c-0.9-1.7-0.9-3.5,0-5.3c1-1.7,2.3-3.1,4-4.2
		c1.7-1.1,3.4-1.9,5.2-2.4c1.8-0.5,3.9-1,6.4-1.4c0.6-1.3,1-2.4,1.3-3.4c0.3-1,0.5-2,0.6-3.1c0.1-1.1,0-2.1-0.3-3.1
		c-0.3-1-0.9-1.7-1.9-2.3c-1.5-0.8-3-1.1-4.3-1.1c-1.3,0.1-2.4,0.3-3.3,0.7c-2.1,5-4.1,9.9-6.1,14.6s-3.5,8.5-4.6,11.2
		c-0.3,0.6-0.7,1-1.3,1.1c-0.6,0.1-1.1,0-1.5-0.5l-1.3-1.6c-1-1.3-1.2-2.8-0.6-4.5c1.5-4,4-10.3,7.5-18.8C11.9,19.4,15.7,11,20,2.8
		c0.2-0.3,0.4-0.5,0.7-0.7c0.3-0.1,0.6-0.1,0.9,0c0.5,0.2,1.1,0.5,1.6,1.1c0.5,0.6,0.8,1.4,0.9,2.5c1-1,2.3-1.7,3.7-2.2
		c1.4-0.5,3-0.4,4.6,0.4c1.4,0.9,2.1,2.3,2,4.3c-0.1,2-0.6,4.1-1.6,6.5c-1,2.3-2.3,4.4-3.7,6.3c-1.4,1.9-2.8,3.1-4,3.8
		c0.9,0,1.6,0.1,2.3,0.3c0.6,0.2,1.3,0.5,1.9,1c0.6,0.5,1.1,1.2,1.4,2.2c0.3,1,0.5,2.3,0.3,3.9c-0.1,1.6-0.6,3.6-1.4,6L58.7,32.2z
		 M12.4,49.1c0.5,0.7,1.2,0.9,2,0.7c0.8-0.2,1.7-0.7,2.6-1.5c0.9-0.7,1.7-1.6,2.5-2.4c0.8-0.9,1.7-2,2.7-3.3
		c-1.1,0.1-2.6,0.5-4.4,1.1c-1.9,0.6-3.4,1.4-4.7,2.3C11.9,46.9,11.7,47.9,12.4,49.1z M18.1,21.8c1.3,0.2,2.9-0.1,4.8-0.8
		c1.9-0.7,3.6-2.5,5.2-5.3c0.7-1.4,1.2-2.5,1.5-3.5c0.3-1,0.5-1.9,0.5-2.9c0-0.9-0.3-1.7-0.9-2.3c-0.7-0.5-1.6-0.4-2.7,0.4
		s-2.3,1.8-3.4,3c-0.1,0.3-0.2,0.6-0.4,0.9C21.5,13.8,20,17.2,18.1,21.8z"/>
	<path class="st0" d="M106.9,32.4c0.3-0.1,0.6-0.1,0.8,0c0.3,0.1,0.5,0.3,0.6,0.5c0.1,0.3,0.1,0.6,0,0.8c-0.1,0.3-0.3,0.5-0.5,0.6
		c-1.2,0.6-3.4,1.5-6.6,2.7c-3.2,1.2-7,2.4-11.2,3.7c-4.2,1.3-8.5,2.3-12.7,3.2c-4.3,0.9-8,1.3-11.3,1.2c-3.3,0-5.5-0.8-6.7-2.1
		c-2-2.7-2.8-5.5-2.2-8.3c0.5-2.9,1.9-5.5,4-7.9c2.1-2.4,4.6-4.3,7.4-5.7c2.8-1.2,5.1-1.5,7.1-0.8c2,0.7,3.4,1.9,4.2,3.7
		c0.8,1.7,0.8,3.5,0,5.2c-0.7,1-2.2,2-4.5,2.8c-2.3,0.9-4.5,1.5-6.4,1.9l-3.4,0.8c-1.3,1.7-1.9,3.3-1.9,4.6c0,1.3,1,2.1,3,2.3
		c3.2,0.2,7.6-0.4,13.4-1.6c5.7-1.2,11.2-2.6,16.5-4.2C101.7,34.3,105.2,33.2,106.9,32.4z M77.1,26.5c-0.9-0.6-2.3-0.2-4.3,1.1
		c-2,1.3-4,3-5.8,5.1c0.9-0.3,1.9-0.7,3.1-1.1c1.4-0.5,2.8-1,4.1-1.5c1.3-0.5,2.3-1.1,3-1.7C77.8,27.8,77.8,27.2,77.1,26.5z"/>
	<path class="st0" d="M167,32.1c0.4-0.2,0.8-0.2,1.2,0c0.4,0.2,0.6,0.4,0.8,0.8s0.2,0.8,0,1.2c-0.2,0.4-0.5,0.6-0.9,0.8
		c-2.5,0.9-6.5,2.4-12,4.3c-5.5,1.9-11,3.6-16.5,5.2c-5.5,1.6-9.4,2.3-11.8,2.3c-1.4-0.1-2.5-0.5-3.4-1.1c-0.8-0.6-1.5-1.4-1.9-2.3
		s-0.7-1.8-0.8-2.6c-0.1-0.9-0.1-1.9-0.1-3c-1.4,2.5-3,4.5-4.9,6.1c-1.9,1.6-3.7,2.7-5.5,3.1c-1.8,0.4-3.2,0.1-4.4-0.9
		c-1.6-1.7-2.1-4-1.6-6.8c0.5-2.9,1.5-6.1,3.2-9.7c1.7-3.6,3.9-5.9,6.7-7c2.8-1.1,5.2-0.8,7.1,0.9c0.9,0.9,1.4,2,1.6,3.2
		c0.2,1.2,0.3,2.4,0.1,3.6c-0.1,1.2-0.4,2.6-0.9,4.2l5.8-9.6c0.3-0.5,0.8-0.8,1.4-0.9c0.6-0.1,1.1,0,1.6,0.4l2.8,2.3
		c0.5,0.5,0.8,1.1,0.9,1.7c0.1,0.7-0.1,1.3-0.5,1.8c-0.9,1.1-1.9,2.5-2.9,4c-1,1.5-1.7,3-2.1,4.4c-0.5,1.4-0.4,2.5,0.3,3.4
		c0.6,0.8,2.1,1.1,4.4,0.8c5.2-0.9,11.1-2.6,17.8-5C159.2,35.2,164,33.3,167,32.1z M120.7,32.6c0.3-1,0.4-1.9,0.5-2.7
		c0-0.9-0.2-1.5-0.6-1.9c-0.5-0.3-1.4,0.1-2.5,1.1c-1.1,1.1-2.2,2.4-3.3,4.1c-1.1,1.7-1.9,3.3-2.3,4.7c-0.5,1.5-0.3,2.5,0.5,3.1
		c0.7,0.4,1.3,0.5,1.9,0.3c0.6-0.2,1.2-0.6,1.7-1.1c0.5-0.5,1-1.1,1.4-1.8c0.4-0.6,0.8-1.4,1.3-2.3C120,34.7,120.5,33.6,120.7,32.6z
		"/>
	<path class="st0" d="M171.9,36.2c-0.6,0.9-1.1,1.9-1.7,2.8c-0.5,1-0.9,1.8-1.1,2.5c-0.2,0.7-0.2,1.2,0.1,1.4
		c0.6,0.2,1.8-0.3,3.6-1.6s3.6-2.8,5.4-4.4c1.8-1.7,3.2-3,4-4c1-1.2,2.2-2.9,3.7-5.2c1.5-2.2,2.7-4,3.5-5.4c0.4-0.6,1-0.9,1.8-0.8
		c1.6,0.2,2.9,0.7,4,1.4c1.1,0.7,1.5,1.8,1.3,3.1c-0.1,0.5-0.5,1.3-1.1,2.3c-0.6,1-1.3,2.1-2.1,3.4c-1,1.5-1.9,3-2.8,4.5
		c-0.9,1.5-1.4,2.7-1.7,3.7c-0.3,1,0,1.5,0.8,1.6c1.1,0,3.8-0.3,8.1-1c4.3-0.7,9.2-1.5,14.6-2.5c5.4-1,10.3-2,14.7-2.9
		c4.4-0.9,7.2-1.6,8.4-2.1c0.2-0.1,0.5-0.1,0.7,0c0.3,0.1,0.4,0.3,0.6,0.5c0.1,0.3,0.2,0.5,0.1,0.8c-0.1,0.3-0.3,0.5-0.5,0.6
		c-1.4,0.6-4.6,1.5-9.6,2.8c-5,1.2-10.6,2.5-16.7,3.9c-6.1,1.3-11.7,2.4-16.5,3.2c-4.9,0.8-7.9,1.1-9.1,0.8
		c-0.9-0.3-1.5-0.8-1.9-1.5c-0.4-0.7-0.7-1.5-0.8-2.3c-0.1-0.8-0.2-1.7-0.1-2.4c0-0.8,0.2-1.7,0.4-2.8c-0.7,1-2,2.3-3.8,3.9
		s-3.8,2.8-5.9,4c-2.1,1.1-4,1.6-5.6,1.4c-1.7-0.2-2.7-1.5-3.1-3.9c-0.4-2.8-0.1-5.6,0.8-8.4c0.9-2.8,2.1-5.3,3.4-7.5
		c1.3-2.2,2.4-3.8,3.2-4.8c0.5-0.6,1.1-0.8,1.8-0.6c1.4,0.3,2.6,0.8,3.5,1.5c0.9,0.6,1.6,1.3,2,1.9c0.4,0.5,0.6,1,0.5,1.6
		c0,0.6-0.2,1.1-0.6,1.6c-0.6,0.8-1.2,1.6-1.8,2.4c-0.6,0.9-1.4,1.9-2.3,3.2C173.2,34.1,172.5,35.2,171.9,36.2z"/>
	<path class="st0" d="M274.1,32.8c0.3-0.1,0.6-0.2,0.8-0.1c0.3,0.1,0.4,0.3,0.5,0.5c0.1,0.3,0.1,0.5-0.1,0.8
		c-0.1,0.3-0.3,0.5-0.6,0.6c-1.7,1-4.8,2.5-9.3,4.6c-4.5,2.1-9.4,3.9-14.9,5.5c-5.4,1.6-10.4,2-15,1.4c-2.5-0.5-4-1.9-4.3-4
		c-0.4-2.2,0-4.9,1.1-8.1c1.1-3.2,2.7-6.7,4.7-10.3c2-3.6,4.1-7.2,6.3-10.6h0c-0.1,0-0.1,0-0.1,0c-2-0.1-3.9-0.3-5.9-0.5
		c-0.3-0.1-0.7-0.1-1-0.1c-0.6-0.1-1.3-0.1-1.9-0.2c-0.3-0.1-0.7-0.1-1-0.1c-0.6-0.1-1.3-0.2-1.9-0.2l-1.4-0.2l-1.4-0.2
		c-0.4-0.1-0.7-0.1-1.1-0.2c-0.1,0-0.3-0.1-0.4-0.1c-0.5-0.1-1-0.2-1.4-0.3c-0.4-0.1-0.7-0.3-0.9-0.6c-0.2-0.3-0.3-0.6-0.2-1
		c0.1-0.4,0.3-0.7,0.5-0.9c0.3-0.2,0.6-0.3,1-0.2c0.5,0.1,1,0.1,1.4,0.2c0.2,0,0.3,0,0.5,0c0.3,0,0.6,0.1,1,0.1l1.4,0.1l1.4,0.2
		c1.9,0.2,3.9,0.3,5.8,0.5l2.9,0.2l0.7,0l0.7,0l1.4,0.1l1.4,0.1h0.6c2.5-3.6,4.5-6.5,6.1-8.7c0.4-0.5,0.9-0.9,1.5-1.1
		c0.6-0.2,1.2-0.2,1.7,0.1c1.1,0.4,2,1.1,2.7,2.2c0.7,1,0.6,2.5-0.3,4.4c-0.5,0.8-1.2,1.9-2.1,3.4c0.2,0,0.3,0,0.4,0
		c0.3,0,0.6,0,1,0l1.4,0l1.4,0h0.7c0.2,0,0.3,0,0.5,0c0.1,0,0.2,0,0.2,0l2.9-0.1c0.4,0,0.9-0.1,1.3-0.1c0.1,0,0.1,0,0.2,0l1.4-0.1
		l1.4-0.1c0.2,0,0.5-0.1,0.7-0.1h0l0.7-0.1l1.4-0.1l1.4-0.2h0c0.4,0,0.7,0.1,1,0.3c0.3,0.2,0.4,0.5,0.5,0.9c0,0.4-0.1,0.7-0.3,1
		c-0.2,0.3-0.5,0.4-0.8,0.5c-3.9,0.7-7.8,1.1-11.8,1.4c-2.7,0.1-5.3,0.2-8,0.2c-1.7,2.7-3.5,5.7-5.5,8.9c-2,3.3-3.7,6.4-5.3,9.5
		c-1.6,3.1-2.7,5.7-3.3,7.9c-0.6,2.2-0.4,3.5,0.7,4.1c1.3,0.5,3.6,0.3,6.7-0.5c3.1-0.8,6.6-1.9,10.3-3.3c3.7-1.4,7.2-2.8,10.4-4.2
		C270.4,34.4,272.7,33.4,274.1,32.8z"/>
	<path class="st0" d="M320.7,32.6c0.2,0.3,0.2,0.6,0.1,0.9c-0.1,0.3-0.3,0.5-0.6,0.7c-2.2,1.2-6.2,2.9-11.8,5.3
		c-5.6,2.4-11.4,4.3-17.3,5.7c-1.4,3.6-3.1,8-5.3,13.1c-0.8,1.5-1.6,2.7-2.2,3.7c-0.7,1-1.5,1.8-2.5,2.6c-1,0.8-2,1.2-3.1,1.3
		c-1.1,0.1-2.2-0.3-3.5-1.2c-2-1.7-2.9-3.7-2.8-6.2c0.1-2.4,1.1-4.9,3-7.3s4.3-4.6,7.5-6.3l3.9-9.2l-0.8,1c-0.1,0.1-0.1,0.1-0.1,0.2
		c-0.8,1.1-2.2,2.4-4,3.9c-1.8,1.5-3.8,2.8-5.9,3.9s-3.9,1.5-5.6,1.3c-1.6-0.2-2.7-1.5-3.1-4c-0.4-2.8-0.1-5.7,0.9-8.5
		c1-2.8,2.1-5.3,3.4-7.5s2.4-3.8,3.2-4.8c0.5-0.6,1.1-0.8,1.8-0.7c1.5,0.4,2.7,0.9,3.6,1.5c0.9,0.6,1.6,1.3,2.1,1.9
		c0.4,0.5,0.6,1,0.5,1.6c0,0.6-0.2,1.1-0.6,1.6c-0.6,0.7-1.2,1.6-1.9,2.4c-0.6,0.9-1.4,1.9-2.3,3.2c-0.9,1.3-1.6,2.4-2.2,3.3
		c-0.6,0.9-1.2,1.9-1.7,2.9c-0.5,1-0.9,1.8-1.1,2.5c-0.2,0.7-0.2,1.2,0.1,1.4c0.6,0.2,1.8-0.3,3.6-1.6c1.8-1.3,3.6-2.8,5.5-4.5
		c1.8-1.7,3.2-3,4-4c0.5-0.6,1.1-1.4,1.8-2.4c0.7-1,1.5-2.1,2.2-3.3l0.6-1.4l0.7-1.5c0.2-0.4,0.5-0.6,0.8-0.8
		c0.4-0.2,0.7-0.2,1.1-0.1c0.9,0.2,1.8,0.5,2.6,1c0.8,0.5,1.4,1.2,1.5,2.1c0.1,0.9-0.4,2.7-1.4,5.6c-1,2.9-2.1,6.1-3.5,9.7
		c2.6-0.6,5.7-1.6,9.3-2.9c3.7-1.3,7.1-2.6,10.4-3.9c3.3-1.3,5.6-2.2,7.1-2.8c0.3-0.1,0.5-0.1,0.8,0S320.6,32.4,320.7,32.6z
		 M275,58.5c0.2,1,0.4,1.4,0.8,1.1c0.4-0.3,0.8-0.9,1.4-1.9c0.5-1,1-2.1,1.5-3.3c0.5-1.2,1-2.7,1.7-4.5c-1.2,0.8-2.2,1.6-3,2.3
		c-0.8,0.7-1.4,1.6-1.9,2.7C275,55.9,274.8,57.1,275,58.5z"/>
	<path class="st0" d="M375.1,44.2c2.9,0.1,5.1,0.4,6.5,1c1.4,0.6,2.3,1.3,2.7,2c0.2,0.5,0.2,1-0.1,1.5c-0.3,0.5-0.8,0.8-1.4,0.8
		c-3.6,0-9.1,0.1-16.5,0.1c-7.4,0-13.9,0-19.4,0c-0.1,0.3-0.3,0.6-0.4,0.9c-0.3,0.7-0.9,1.3-1.6,1.6c-0.7,0.3-1.4,0.4-2.1,0.1
		l-1-0.5c-0.9-0.5-1.3-1.3-1.1-2.4c-1.7-0.3-2.8-0.7-3.2-1.3c-0.5-0.6-0.6-1.2-0.4-1.7c0.1-0.3,0.3-0.6,0.5-0.9
		c0.3-0.2,0.6-0.4,1-0.4c0.9,0,2.2-0.1,3.9-0.2c2.7-6.2,5.8-13.7,9.5-22.7c3.6-9,6-15.7,7-20.1c0.2-0.6,0.5-1.1,1.1-1.4
		c0.6-0.3,1.1-0.3,1.6-0.1c1.1,0.5,1.9,1.4,2.5,2.7c0.6,1.3,0.4,3.3-0.6,5.8c-0.5,1.1-1.1,2.6-1.9,4.5c-1.8,4.3-3.9,9.4-6.3,15.3
		c-2.4,5.9-4.6,11.2-6.5,15.9c4.4-0.2,9.1-0.3,14-0.4C367.7,44.1,371.8,44.1,375.1,44.2z"/>
	<path class="st0" d="M445.6,32.1c0.4-0.2,0.8-0.2,1.2,0c0.4,0.2,0.6,0.4,0.8,0.8c0.2,0.4,0.2,0.8,0,1.2c-0.2,0.4-0.5,0.6-0.9,0.8
		c-2.5,0.9-6.5,2.4-12,4.3c-5.5,1.9-11,3.6-16.5,5.2c-5.5,1.6-9.4,2.3-11.8,2.3c-1.4-0.1-2.6-0.5-3.4-1.1c-0.8-0.6-1.5-1.4-1.9-2.3
		s-0.7-1.8-0.8-2.6c-0.1-0.9-0.1-1.9-0.1-3c-1.4,2.5-3,4.5-4.9,6.1c-1.9,1.6-3.7,2.7-5.5,3.1s-3.2,0.1-4.4-0.9
		c-1.6-1.7-2.1-4-1.6-6.8c0.5-2.9,1.5-6.1,3.2-9.7c1.7-3.6,3.9-5.9,6.7-7c2.8-1.1,5.2-0.8,7.1,0.9c0.9,0.9,1.4,2,1.6,3.2
		c0.2,1.2,0.3,2.4,0.1,3.6c-0.1,1.2-0.4,2.6-0.9,4.2l5.8-9.6c0.3-0.5,0.8-0.8,1.4-0.9c0.6-0.1,1.1,0,1.6,0.4l2.8,2.3
		c0.5,0.5,0.8,1.1,0.9,1.7c0.1,0.7-0.1,1.3-0.5,1.8c-0.9,1.1-1.9,2.5-2.9,4c-1,1.5-1.7,3-2.1,4.4c-0.5,1.4-0.4,2.5,0.3,3.4
		c0.6,0.8,2.1,1.1,4.4,0.8c5.2-0.9,11.1-2.6,17.8-5C437.8,35.2,442.7,33.3,445.6,32.1z M399.4,32.6c0.3-1,0.4-1.9,0.5-2.7
		c0-0.9-0.2-1.5-0.6-1.9c-0.5-0.3-1.4,0.1-2.5,1.1c-1.1,1.1-2.2,2.4-3.3,4.1c-1.1,1.7-1.9,3.3-2.3,4.7s-0.3,2.5,0.5,3.1
		c0.7,0.4,1.3,0.5,1.9,0.3c0.6-0.2,1.2-0.6,1.7-1.1c0.5-0.5,1-1.1,1.4-1.8c0.4-0.6,0.8-1.4,1.3-2.3
		C398.7,34.7,399.1,33.6,399.4,32.6z"/>
	<path class="st0" d="M495.5,33.5c0.1,0.3,0.2,0.6,0.1,0.8c-0.1,0.2-0.3,0.4-0.5,0.5c-1.6,0.5-4.6,1.3-9.1,2.2
		c-4.4,0.9-9.7,1.5-15.7,1.8c-0.9,2.5-2.3,4.4-4,5.8c-1.7,1.4-3.9,1.8-6.4,1.1c-2.7-0.8-4.4-1.7-5-2.7c-0.6-1-0.6-1.8,0-2.7
		c0.7-0.8,1.6-1.5,2.8-2.1c1.2-0.5,2.3-0.9,3.4-1c0.6-1.8,1.1-3.3,1.5-4.6c0.4-1.3,0.7-2.6,1-3.9c0.3-1.3,0.3-2.3,0.3-3.2
		c-0.2-1-0.7-1.3-1.6-1.1s-1.8,0.8-2.9,1.7c-1,0.9-1.9,1.8-2.5,2.8c-0.1,0.1-0.1,0.3-0.2,0.4c-0.1,0.1-0.1,0.2-0.2,0.4
		c-3.2,6.4-5.6,11.4-7.3,15.1c-0.4,0.7-1,1.1-1.8,1.2c-0.8,0.1-1.6-0.2-2.4-0.7c-0.7-0.6-1.4-1.3-2.2-2.3c-0.8-1.2-1-2.3-0.6-3.4
		c1-2.4,2.7-6.1,5-11.2c2.3-5.1,4.7-10.3,7.2-15.6c2.5-5.2,4.6-9.3,6.3-12c0.3-0.5,0.8-0.7,1.5-0.5c0.9,0.1,2.2,0.7,3.8,1.7
		c0.9,0.6,1.3,1.6,1.2,3c-0.1,1.4-0.4,2.9-1,4.5c-0.6,1.6-1.3,3.2-2,4.7c-0.9,1.8-2.6,5.2-5.1,10.4c0.6-0.7,1.1-1.2,1.7-1.6
		c0.5-0.4,1.2-0.7,2-0.9c0.8-0.2,1.7-0.3,2.8-0.2c1,0.1,2.2,0.6,3.4,1.3c1.4,1,2.3,2.7,2.7,5.2c0.3,2.4,0.2,5.1-0.5,7.9
		c2.8-0.2,6.5-0.7,11.3-1.3s8.7-1.3,11.8-2.2c0.2-0.1,0.5-0.1,0.8,0.1C495.2,33,495.4,33.2,495.5,33.5z"/>
	<path class="st0" d="M499,37.3c0.5,0.3,0.7,0.6,0.9,1.1c0.1,0.5,0.1,1-0.1,1.5l-0.8,1.9c-0.4,1-1.2,1.6-2.2,1.7l-1.2,0.2
		c-0.9,0.1-1.6-0.2-2-0.9l-0.3-0.5c-0.3-0.5-0.4-0.9-0.3-1.5c0.1-0.5,0.3-1,0.7-1.4l1.8-1.8c0.4-0.5,0.9-0.7,1.5-0.8
		c0.5-0.1,1.1,0,1.5,0.2L499,37.3z"/>
</g>
</svg>
